<?xml version="1.0" encoding="UTF-8"?>
<svg version="1.1" xmlns="http://www.w3.org/2000/svg" width="400" height="400">
<path d="M0 0 C132 0 264 0 400 0 C400 132 400 264 400 400 C268 400 136 400 0 400 C0 268 0 136 0 0 Z " fill="#9A1C25" transform="translate(0,0)"/>
<path d="M0 0 C66.33 0 132.66 0 201 0 C201 66 201 132 201 200 C134.67 200 68.34 200 0 200 C0 134 0 68 0 0 Z " fill="#981B25" transform="translate(100,45)"/>
<path d="M0 0 C66.33 0 132.66 0 201 0 C201 66 201 132 201 200 C134.67 200 68.34 200 0 200 C0 134 0 68 0 0 Z M14 14 C14 70.76 14 127.52 14 186 C70.76 186 127.52 186 186 186 C186 129.24 186 72.48 186 14 C129.24 14 72.48 14 14 14 Z " fill="#FDFBFA" transform="translate(100,45)"/>
<path d="M0 0 C44.22 0 88.44 0 134 0 C134 11.22 134 22.44 134 34 C89.78 34 45.56 34 0 34 C0 22.78 0 11.56 0 0 Z " fill="#FCF9F8" transform="translate(133,78)"/>
<path d="M0 0 C27.72 0 55.44 0 84 0 C84 11.22 84 22.44 84 34 C56.28 34 28.56 34 0 34 C0 22.78 0 11.56 0 0 Z " fill="#FDF9F9" transform="translate(133,128)"/>
<path d="M0 0 C3.84204131 2.47873633 3.84204131 2.47873633 4.625 5.0625 C4.74875 5.701875 4.8725 6.34125 5 7 C5.66 7.66 6.32 8.32 7 9 C8.62353602 8.72941066 10.24667885 8.45613451 11.8671875 8.16796875 C17.61255362 7.71549486 23.8329097 9.58869119 29 12 C29 12.66 29 13.32 29 14 C29.66 14 30.32 14 31 14 C30.505 11.525 30.505 11.525 30 9 C33.3930563 7.30347185 37.16686625 8.01631073 40.875 8.1875 C41.69097656 8.20619141 42.50695312 8.22488281 43.34765625 8.24414062 C46.9091313 8.40972307 49.40592721 8.67207909 52.5546875 10.41015625 C54.86276898 14.54598874 54.41908232 18.60673928 54.25 23.25 C54.23195313 24.18585938 54.21390625 25.12171875 54.1953125 26.0859375 C54.14825673 28.39167015 54.08253713 30.69530945 54 33 C52.02 33 50.04 33 48 33 C47.93941406 31.78441406 47.87882812 30.56882812 47.81640625 29.31640625 C47.73201668 27.73175772 47.6473679 26.14712298 47.5625 24.5625 C47.52318359 23.76005859 47.48386719 22.95761719 47.44335938 22.13085938 C47.5945704 18.24760439 47.5945704 18.24760439 46 15 C43.5 14.83333333 43.5 14.83333333 41 15 C38.90429053 17.09570947 39.62761101 21.5284417 39.5 24.4375 C39.13440018 32.73119964 39.13440018 32.73119964 38 35 C33.83861737 35.08159574 30.0527516 34.98248524 26 34 C25.67 35.32 25.34 36.64 25 38 C24.34 38 23.68 38 23 38 C23 37.34 23 36.68 23 36 C18.3661033 36.55958931 18.3661033 36.55958931 13.875 37.75 C10.90171662 38.14643778 9.31525614 36.73644211 7 35 C7 34.34 7 33.68 7 33 C2.38492226 31.95785309 2.38492226 31.95785309 -2 33 C-3.59447464 33.08400529 -5.19240545 33.10727467 -6.7890625 33.09765625 C-7.63678223 33.09515869 -8.48450195 33.09266113 -9.35791016 33.09008789 C-10.4360498 33.08098389 -11.51418945 33.07187988 -12.625 33.0625 C-16.04875 33.041875 -19.4725 33.02125 -23 33 C-23 22.44 -23 11.88 -23 1 C-19.9475 0.979375 -16.895 0.95875 -13.75 0.9375 C-12.79448242 0.928396 -11.83896484 0.91929199 -10.85449219 0.90991211 C-10.09297852 0.90741455 -9.33146484 0.90491699 -8.546875 0.90234375 C-7.77182617 0.89710693 -6.99677734 0.89187012 -6.19824219 0.88647461 C-4.00716402 0.99963002 -2.10362139 1.39447552 0 2 C0 1.34 0 0.68 0 0 Z " fill="#8F292F" transform="translate(172,312)"/>
<path d="M0 0 C11.22 0 22.44 0 34 0 C34 11.22 34 22.44 34 34 C22.78 34 11.56 34 0 34 C0 22.78 0 11.56 0 0 Z " fill="#FDF6F6" transform="translate(133,178)"/>
<path d="M0 0 C2.19921875 1.08984375 2.19921875 1.08984375 5.51171875 3.08984375 C5.84171875 2.09984375 6.17171875 1.10984375 6.51171875 0.08984375 C15.09171875 0.08984375 23.67171875 0.08984375 32.51171875 0.08984375 C32.51171875 1.73984375 32.51171875 3.38984375 32.51171875 5.08984375 C29.54171875 5.08984375 26.57171875 5.08984375 23.51171875 5.08984375 C23.51171875 14.65984375 23.51171875 24.22984375 23.51171875 34.08984375 C21.86171875 34.08984375 20.21171875 34.08984375 18.51171875 34.08984375 C18.51171875 35.07984375 18.51171875 36.06984375 18.51171875 37.08984375 C17.52171875 36.75984375 16.53171875 36.42984375 15.51171875 36.08984375 C14.46517193 31.81229127 14.35804942 27.65555984 14.38671875 23.27734375 C14.38865234 22.56900391 14.39058594 21.86066406 14.39257812 21.13085938 C14.43204545 16.36408297 14.72881399 11.78727231 15.51171875 7.08984375 C14.19171875 7.08984375 12.87171875 7.08984375 11.51171875 7.08984375 C11.51171875 10.38984375 11.51171875 13.68984375 11.51171875 17.08984375 C11.18171875 17.08984375 10.85171875 17.08984375 10.51171875 17.08984375 C10.18171875 15.10984375 9.85171875 13.12984375 9.51171875 11.08984375 C7.35829896 13.24326354 6.8705991 14.12908084 6.51171875 17.08984375 C7.17171875 18.07984375 7.83171875 19.06984375 8.51171875 20.08984375 C8.375 22.2109375 8.375 22.2109375 7.82421875 24.52734375 C7.65535156 25.28917969 7.48648437 26.05101562 7.3125 26.8359375 C6.36834425 29.49339053 5.53766833 31.10793656 3.51171875 33.08984375 C0.6640625 33.6640625 0.6640625 33.6640625 -2.55078125 33.77734375 C-6.67376016 33.82807559 -6.67376016 33.82807559 -10.48828125 35.08984375 C-12.42578125 34.96484375 -12.42578125 34.96484375 -14.48828125 34.08984375 C-16.11328125 31.65234375 -16.11328125 31.65234375 -17.48828125 29.08984375 C-18.14828125 28.42984375 -18.80828125 27.76984375 -19.48828125 27.08984375 C-19.88592388 25.10163062 -20.22603474 23.10040036 -20.48828125 21.08984375 C-18.17828125 21.08984375 -15.86828125 21.08984375 -13.48828125 21.08984375 C-13.15828125 22.40984375 -12.82828125 23.72984375 -12.48828125 25.08984375 C-8.85828125 25.41984375 -5.22828125 25.74984375 -1.48828125 26.08984375 C-1.48828125 24.10984375 -1.48828125 22.12984375 -1.48828125 20.08984375 C-2.36871094 19.93128906 -3.24914062 19.77273438 -4.15625 19.609375 C-13.52209768 17.72788951 -13.52209768 17.72788951 -17.80078125 14.90234375 C-19.70846522 11.72287047 -20.29785517 9.70121948 -20.01953125 6.02734375 C-19.26722999 3.28365681 -17.84301385 1.55517145 -15.5234375 -0.0625 C-10.52904318 -2.14269879 -5.02159381 -1.83678392 0 0 Z " fill="#95222D" transform="translate(286.48828125,265.91015625)"/>
<path d="M0 0 C56.76 0 113.52 0 172 0 C172 56.76 172 113.52 172 172 C115.24 172 58.48 172 0 172 C0 115.24 0 58.48 0 0 Z M1 1 C1 57.1 1 113.2 1 171 C57.1 171 113.2 171 171 171 C170.87625 143.878125 170.7525 116.75625 170.625 88.8125 C170.59100098 80.24385986 170.55700195 71.67521973 170.52197266 62.84692383 C170.48207084 55.17628525 170.48207084 55.17628525 170.43954468 47.50566101 C170.4206512 44.08505107 170.40731146 40.66446748 170.39730835 37.24382019 C170.38437132 32.88178828 170.3619991 28.51990095 170.33276629 24.15794885 C170.32364455 22.55635022 170.31784992 20.95472841 170.31574559 19.35310519 C170.31242784 17.19034106 170.29697083 15.02799052 170.2784729 12.86531067 C170.27294214 11.65315289 170.26741138 10.44099512 170.26171303 9.19210529 C170.12490929 5.60109731 170.12490929 5.60109731 168 1 C112.89 1 57.78 1 1 1 Z " fill="#99424D" transform="translate(114,59)"/>
<path d="M0 0 C4.764375 -0.1546875 4.764375 -0.1546875 9.625 -0.3125 C11.1092749 -0.38078003 11.1092749 -0.38078003 12.62353516 -0.45043945 C16.98839444 -0.5188196 20.08552154 -0.45804925 23.5859375 2.33203125 C27.24855185 6.37987203 27.18230659 9.51549088 27.25 14.8125 C27.27578125 16.01519531 27.3015625 17.21789062 27.328125 18.45703125 C26.87375319 23.36316497 25.61947807 26.54521462 21.92578125 29.86328125 C17.65995932 31.52062996 13.71433348 31.31813732 9.1875 31.1875 C6.155625 31.125625 3.12375 31.06375 0 31 C0 20.77 0 10.54 0 0 Z " fill="#FDF7F7" transform="translate(95,266)"/>
<path d="M0 0 C3.031875 -0.061875 6.06375 -0.12375 9.1875 -0.1875 C10.60712036 -0.22846802 10.60712036 -0.22846802 12.05541992 -0.27026367 C16.84628681 -0.31755702 20.14384415 -0.19156787 24 3 C25.11445498 5.22890995 25.16480286 6.53055106 25.1875 9 C25.20167969 9.70125 25.21585938 10.4025 25.23046875 11.125 C25 13 25 13 23 15 C23.72703125 15.58974609 23.72703125 15.58974609 24.46875 16.19140625 C26.44839718 18.52961197 26.46349921 19.90337144 26.5 22.9375 C26.5309375 23.79214844 26.561875 24.64679688 26.59375 25.52734375 C26 28 26 28 24.14453125 30.30078125 C19.51477901 32.80257283 15.35190426 32.42897038 10.1875 32.25 C6.825625 32.1675 3.46375 32.085 0 32 C0 21.44 0 10.88 0 0 Z " fill="#F8E6E6" transform="translate(149,313)"/>
<path d="M0 0 C5.0428125 -0.1546875 5.0428125 -0.1546875 10.1875 -0.3125 C11.76374146 -0.38078003 11.76374146 -0.38078003 13.37182617 -0.45043945 C18.02250323 -0.51955969 20.29297932 -0.51731079 24.14453125 2.30078125 C26.5727127 5.83314626 26.60146625 7.78973625 26 12 C24.6875 14.875 24.6875 14.875 23 17 C22.01 17.33 21.02 17.66 20 18 C20.5053125 18.77085937 21.010625 19.54171875 21.53125 20.3359375 C22.1809375 21.33882813 22.830625 22.34171875 23.5 23.375 C24.1496875 24.37273437 24.799375 25.37046875 25.46875 26.3984375 C27 29 27 29 27 31 C21.91307753 31.8770556 21.91307753 31.8770556 19 31 C16.17371918 27.7361778 13 23.45637368 13 19 C10.69 19 8.38 19 6 19 C6 22.96 6 26.92 6 31 C4.02 31 2.04 31 0 31 C0 20.77 0 10.54 0 0 Z " fill="#F8F2F1" transform="translate(237,266)"/>
<path d="M0 0 C3.625 1.625 3.625 1.625 6 4 C6.875 7.25 6.875 7.25 7 10 C4.69 10 2.38 10 0 10 C0 8.68 0 7.36 0 6 C-2.97 6 -5.94 6 -9 6 C-9.33 7.32 -9.66 8.64 -10 10 C-8.845 10.433125 -7.69 10.86625 -6.5 11.3125 C-5.77554687 11.58707031 -5.05109375 11.86164063 -4.3046875 12.14453125 C-2.79659297 12.70431549 -1.2809539 13.24427524 0.2421875 13.76171875 C5.7875 15.68125 5.7875 15.68125 8 19 C8.66923077 25.91538462 8.66923077 25.91538462 6.1875 29.9375 C2.3268329 33.57755756 -1.5333241 33.21476842 -6.55859375 33.15625 C-10.28474112 32.91777657 -12.74857899 31.89387215 -15.75 29.75 C-17.50291148 27.29592392 -17.67163788 24.95525904 -18 22 C-15.69 22 -13.38 22 -11 22 C-10.67 23.32 -10.34 24.64 -10 26 C-6.37 26.33 -2.74 26.66 1 27 C1 25.02 1 23.04 1 21 C0.11957031 20.84144531 -0.76085937 20.68289063 -1.66796875 20.51953125 C-11.03381643 18.63804576 -11.03381643 18.63804576 -15.3125 15.8125 C-17.22018397 12.63302672 -17.80957392 10.61137573 -17.53125 6.9375 C-16.7799686 4.19753254 -15.35592845 2.46837623 -13.04296875 0.84765625 C-8.78211896 -0.9202298 -4.48988367 -0.71278569 0 0 Z " fill="#FBEEEF" transform="translate(284,265)"/>
<path d="M0 0 C3.91075925 1.98968453 5.57689098 3.36533646 8 7 C8 7.99 8 8.98 8 10 C4.75 10.25 4.75 10.25 1 10 C0.34 9.319375 -0.32 8.63875 -1 7.9375 C-1.66 7.298125 -2.32 6.65875 -3 6 C-6.62649951 5.91083846 -6.62649951 5.91083846 -10 7 C-12.38081145 10.57121718 -12.26906871 12.26674633 -12.25 16.5 C-12.25515625 17.6446875 -12.2603125 18.789375 -12.265625 19.96875 C-12.22885568 23.17666163 -12.22885568 23.17666163 -10 26 C-7.79274927 26.36362818 -7.79274927 26.36362818 -5.375 26.1875 C-4.55773437 26.16042969 -3.74046875 26.13335937 -2.8984375 26.10546875 C-1.95871094 26.05326172 -1.95871094 26.05326172 -1 26 C-0.34 24.68 0.32 23.36 1 22 C3.31 22 5.62 22 8 22 C7.73212125 25.92888829 7.47562903 27.54876221 4.5625 30.3125 C-0.30497409 33.51790977 -4.25490021 33.48537709 -10 33 C-13.80568027 31.68531045 -15.45550449 30.75102829 -17.8125 27.5 C-20.62391993 21.58122121 -20.92073846 15.26816895 -19.5390625 8.86328125 C-18.40114268 5.77751044 -16.84199848 3.84594852 -14.5 1.5625 C-9.59629368 -0.62665461 -5.28900323 -0.79374343 0 0 Z " fill="#FAE4E6" transform="translate(172,265)"/>
<path d="M0 0 C1.65 0 3.3 0 5 0 C5 66 5 132 5 200 C3.35 200 1.7 200 0 200 C0 199.34 0 198.68 0 198 C0.99 198 1.98 198 3 198 C2.67 132.99 2.34 67.98 2 1 C1.34 0.67 0.68 0.34 0 0 Z " fill="#FDDDDE" transform="translate(296,45)"/>
<path d="M0 0 C2.5625 1.5625 2.5625 1.5625 3.5625 2.5625 C3.64919432 4.0512186 3.66953494 5.543945 3.66015625 7.03515625 C3.65693359 7.93427734 3.65371094 8.83339844 3.65039062 9.75976562 C3.64201172 10.70529297 3.63363281 11.65082031 3.625 12.625 C3.62048828 13.57439453 3.61597656 14.52378906 3.61132812 15.50195312 C3.5995011 17.85553065 3.58302025 20.20898477 3.5625 22.5625 C1.54427083 22.52994792 -0.47395833 22.49739583 -2.4921875 22.46484375 C-4.51935404 22.43600758 -4.51935404 22.43600758 -6.4375 23.5625 C-10.31174565 23.92122645 -12.58683906 24.12960729 -15.875 21.9375 C-17.90911336 18.84564769 -18.04355429 17.19882575 -17.4375 13.5625 C-16.0625 11.25 -16.0625 11.25 -13.4375 9.5625 C-10.11045231 8.94193781 -6.81662113 8.69147409 -3.4375 8.5625 C-3.7675 7.2425 -4.0975 5.9225 -4.4375 4.5625 C-7.4075 4.0675 -7.4075 4.0675 -10.4375 3.5625 C-10.7675 4.5525 -11.0975 5.5425 -11.4375 6.5625 C-13.0875 6.5625 -14.7375 6.5625 -16.4375 6.5625 C-15.95539077 1.01824388 -15.95539077 1.01824388 -13.875 -0.8125 C-8.73941538 -2.12931657 -4.82052219 -2.01585474 0 0 Z " fill="#EECDD2" transform="translate(196.4375,322.4375)"/>
<path d="M0 0 C1.32 0.33 2.64 0.66 4 1 C3.34 1 2.68 1 2 1 C2 66.01 2 131.02 2 198 C98.03 198.495 98.03 198.495 196 199 C196 199.33 196 199.66 196 200 C131.32 200 66.64 200 0 200 C0 134 0 68 0 0 Z " fill="#FEEDEB" transform="translate(100,45)"/>
<path d="M0 0 C6.27 0 12.54 0 19 0 C19 0.33 19 0.66 19 1 C13.06 1 7.12 1 1 1 C1 2.98 1 4.96 1 7 C1.99 7.33 2.98 7.66 4 8 C4 8.99 4 9.98 4 11 C4.66 11 5.32 11 6 11 C5.7215625 11.9590625 5.7215625 11.9590625 5.4375 12.9375 C5.293125 13.618125 5.14875 14.29875 5 15 C5.33 15.33 5.66 15.66 6 16 C6.33 15.34 6.66 14.68 7 14 C9.94140625 13.5859375 9.94140625 13.5859375 13.5625 13.375 C14.76003906 13.30023438 15.95757812 13.22546875 17.19140625 13.1484375 C18.58166016 13.07496094 18.58166016 13.07496094 20 13 C20.33 14.32 20.66 15.64 21 17 C18.23547967 18.38226016 15.9538637 18.09525387 12.875 18.0625 C11.77929688 18.05347656 10.68359375 18.04445313 9.5546875 18.03515625 C8.71164063 18.02355469 7.86859375 18.01195312 7 18 C7 20.97 7 23.94 7 27 C8.6254308 26.85904936 10.25034051 26.71207913 11.875 26.5625 C12.77992188 26.48128906 13.68484375 26.40007812 14.6171875 26.31640625 C17.01110861 26.13010715 17.01110861 26.13010715 19 25 C19.34740923 23.00239695 19.67966043 21.00212229 20 19 C20.66 18.01 21.32 17.02 22 16 C23.32 16.66 24.64 17.32 26 18 C26.1357675 19.58093717 26.23234745 21.16526952 26.3125 22.75 C26.37050781 23.63171875 26.42851562 24.5134375 26.48828125 25.421875 C26 28 26 28 24.15625 30.3125 C19.51687554 32.79295763 15.35195072 32.42897199 10.1875 32.25 C6.825625 32.1675 3.46375 32.085 0 32 C0 21.44 0 10.88 0 0 Z " fill="#FAEBED" transform="translate(149,313)"/>
<path d="M0 0 C7.26 0 14.52 0 22 0 C22 1.98 22 3.96 22 6 C16.72 6 11.44 6 6 6 C6 8.64 6 11.28 6 14 C10.62 14 15.24 14 20 14 C20 15.65 20 17.3 20 19 C15.71 19 11.42 19 7 19 C7 23.62 7 28.24 7 33 C4.69 33 2.38 33 0 33 C0 22.11 0 11.22 0 0 Z " fill="#F3DBDD" transform="translate(197,265)"/>
<path d="M0 0 C1.98 0 3.96 0 6 0 C6.33 4.95 6.66 9.9 7 15 C7.825 13.845 8.65 12.69 9.5 11.5 C11.36046719 9.28791341 12.32408821 8.14414606 15.1796875 7.53515625 C17.375 7.5625 17.375 7.5625 21 8 C20.55527344 8.44730469 20.11054688 8.89460938 19.65234375 9.35546875 C19.08644531 9.96003906 18.52054688 10.56460937 17.9375 11.1875 C17.36902344 11.77917969 16.80054688 12.37085938 16.21484375 12.98046875 C14.76444292 14.9579515 14.76444292 14.9579515 15.15625 17.4453125 C16.03351515 20.10147642 17.13191933 22.28689597 18.5625 24.6875 C21 28.79603399 21 28.79603399 21 31 C17.8125 31.5 17.8125 31.5 14 31 C12.36554977 29.02305224 11.27367052 27.04800782 10.140625 24.75 C9.76421875 24.1725 9.3878125 23.595 9 23 C8.01 23 7.02 23 6 23 C6 25.64 6 28.28 6 31 C4.02 31 2.04 31 0 31 C0 20.77 0 10.54 0 0 Z " fill="#FBF8F9" transform="translate(232,314)"/>
<path d="M0 0 C7.26 0 14.52 0 22 0 C22 1.65 22 3.3 22 5 C16.72 5 11.44 5 6 5 C6 7.64 6 10.28 6 13 C10.62 13 15.24 13 20 13 C20 14.65 20 16.3 20 18 C15.71 18 11.42 18 7 18 C7 22.29 7 26.58 7 31 C4.69 31 2.38 31 0 31 C0 20.77 0 10.54 0 0 Z " fill="#F8E0E2" transform="translate(127,266)"/>
<path d="M0 0 C0.99 0.33 1.98 0.66 3 1 C4.66580016 1.09198542 6.33506491 1.12628403 8.00340271 1.12698364 C9.03668701 1.12980347 10.06997131 1.13262329 11.13456726 1.13552856 C12.83417351 1.13249222 12.83417351 1.13249222 14.56811523 1.12939453 C16.35866837 1.13202301 16.35866837 1.13202301 18.18539429 1.13470459 C21.4601878 1.13835526 24.73494099 1.1374943 28.00973392 1.1343255 C31.43650825 1.13179496 34.86327988 1.13414144 38.29005432 1.13571167 C44.04599491 1.13753158 49.80192268 1.13513199 55.55786133 1.13037109 C62.2112749 1.1249314 68.86465781 1.12668972 75.51807064 1.1321975 C81.23025094 1.13673679 86.94242202 1.13737509 92.65460354 1.13475883 C96.06629982 1.13320023 99.4779817 1.13299086 102.88967705 1.13629532 C106.69396932 1.13882898 110.49820238 1.13497093 114.30249023 1.12939453 C115.43353683 1.13141876 116.56458344 1.13344299 117.72990417 1.13552856 C118.7660083 1.13270874 119.80211243 1.12988892 120.86961365 1.12698364 C121.76907432 1.12660662 122.66853498 1.12622959 123.59525204 1.12584114 C125.87167093 1.0067155 127.80211687 0.5612161 130 0 C132.25 0.4375 132.25 0.4375 134 1 C134 1.99 134 2.98 134 4 C89.45 4 44.9 4 -1 4 C-1 15.22 -1 26.44 -1 38 C-1.33 38 -1.66 38 -2 38 C-2.33 26.12 -2.66 14.24 -3 2 C-2.01 2 -1.02 2 0 2 C0 1.34 0 0.68 0 0 Z " fill="#922D3A" transform="translate(134,74)"/>
<path d="M0 0 C2.2109375 1.37890625 2.2109375 1.37890625 4 4 C4.49158353 7.42930799 4.3758188 10.79482228 4.25 14.25 C4.23195312 15.18585938 4.21390625 16.12171875 4.1953125 17.0859375 C4.14825673 19.39167015 4.08253713 21.69530945 4 24 C2.02 24 0.04 24 -2 24 C-2.06058594 22.78441406 -2.12117187 21.56882812 -2.18359375 20.31640625 C-2.26798332 18.73175772 -2.3526321 17.14712298 -2.4375 15.5625 C-2.47681641 14.76005859 -2.51613281 13.95761719 -2.55664062 13.13085938 C-2.4054296 9.24760439 -2.4054296 9.24760439 -4 6 C-6.5 5.83333333 -6.5 5.83333333 -9 6 C-11.11925604 8.11925604 -10.41831017 12.6196093 -10.5625 15.5625 C-10.60568359 16.36880859 -10.64886719 17.17511719 -10.69335938 18.00585938 C-10.79975262 20.00368805 -10.90040888 22.0018207 -11 24 C-12.98 24 -14.96 24 -17 24 C-17 16.41 -17 8.82 -17 1 C-14.33333333 1 -11.66666667 1 -9 1 C-5.90826248 -0.54586876 -3.40570448 -0.29359521 0 0 Z " fill="#FDF3F3" transform="translate(222,321)"/>
<path d="M0 0 C8.25 0 16.5 0 25 0 C25 1.65 25 3.3 25 5 C22.03 5 19.06 5 16 5 C16 13.91 16 22.82 16 32 C13.69 32 11.38 32 9 32 C9 23.09 9 14.18 9 5 C6.03 5 3.06 5 0 5 C0 3.35 0 1.7 0 0 Z " fill="#FAF9F9" transform="translate(294,266)"/>
<path d="M0 0 C3.42375 -0.061875 6.8475 -0.12375 10.375 -0.1875 C11.45313965 -0.21481201 12.5312793 -0.24212402 13.64208984 -0.27026367 C14.91366943 -0.28150269 14.91366943 -0.28150269 16.2109375 -0.29296875 C17.08024902 -0.3086792 17.94956055 -0.32438965 18.84521484 -0.34057617 C19.55629395 -0.22818604 20.26737305 -0.1157959 21 0 C23.1519437 3.22791555 23.20086443 4.28400809 23 8 C22.34 8 21.68 8 21 8 C20.59136719 7.51917969 20.18273437 7.03835938 19.76171875 6.54296875 C17.23000547 4.32561454 15.12589617 4.49063958 11.8125 4.3125 C10.72582031 4.24675781 9.63914063 4.18101562 8.51953125 4.11328125 C7.68808594 4.07589844 6.85664063 4.03851563 6 4 C6 7.3 6 10.6 6 14 C8.31 14.33 10.62 14.66 13 15 C12.67 15.66 12.34 16.32 12 17 C10.02 17.33 8.04 17.66 6 18 C6 22.29 6 26.58 6 31 C4.02 31 2.04 31 0 31 C0 20.77 0 10.54 0 0 Z " fill="#FCF5F5" transform="translate(237,266)"/>
<path d="M0 0 C0.33 0 0.66 0 1 0 C1.20625 1.258125 1.4125 2.51625 1.625 3.8125 C2.45928089 7.05819551 2.68183883 7.76933315 5.5 9.8125 C9.9686538 11.3286504 14.45429641 12.73331185 19 14 C19 15.98 19 17.96 19 20 C15.37 20 11.74 20 8 20 C7.505 17.525 7.505 17.525 7 15 C4.69 15 2.38 15 0 15 C0.45375 16.093125 0.9075 17.18625 1.375 18.3125 C1.63023437 18.92738281 1.88546875 19.54226563 2.1484375 20.17578125 C3.06806692 22.26533932 3.06806692 22.26533932 5 25 C2.23547967 26.38226016 -0.0461363 26.09525387 -3.125 26.0625 C-4.22070312 26.05347656 -5.31640625 26.04445313 -6.4453125 26.03515625 C-7.70988281 26.01775391 -7.70988281 26.01775391 -9 26 C-9 25.67 -9 25.34 -9 25 C-6.69 25 -4.38 25 -2 25 C-2.5053125 24.22914063 -3.010625 23.45828125 -3.53125 22.6640625 C-4.1809375 21.66117187 -4.830625 20.65828125 -5.5 19.625 C-6.1496875 18.62726563 -6.799375 17.62953125 -7.46875 16.6015625 C-9 14 -9 14 -9 12 C-7.67732273 10.98594743 -6.34275169 9.98731742 -5 9 C-4.34 8.01 -3.68 7.02 -3 6 C-2.34 5.34 -1.68 4.68 -1 4 C-0.3574765 1.93125966 -0.3574765 1.93125966 0 0 Z " fill="#8F2730" transform="translate(266,272)"/>
<path d="M0 0 C3.3 0 6.6 0 10 0 C13.23266584 3.23266584 13.38432904 4.08441987 13.41015625 8.44921875 C13.39855469 9.12597656 13.38695313 9.80273438 13.375 10.5 C13.38660156 11.17675781 13.39820312 11.85351562 13.41015625 12.55078125 C13.38432904 16.91558013 13.23266584 17.76733416 10 21 C6.7 21 3.4 21 0 21 C0 14.07 0 7.14 0 0 Z " fill="#93232C" transform="translate(102,271)"/>
<path d="M0 0 C2.69082872 0.17635452 5.32851446 0.61835921 8 1 C8.33 3.31 8.66 5.62 9 8 C9.99 8.33 10.98 8.66 12 9 C12.6875 11.0625 12.6875 11.0625 13 13 C11.02 14.65 9.04 16.3 7 18 C7 12.72 7 7.44 7 2 C5.02 2 3.04 2 1 2 C1 12.23 1 22.46 1 33 C2.98 33 4.96 33 7 33 C6.34 34.32 5.68 35.64 5 37 C3.68 37 2.36 37 1 37 C0.67 37.99 0.34 38.98 0 40 C-1.32229189 37.35541621 -1.09677194 35.32238699 -1.0625 32.375 C-1.05347656 31.37210937 -1.04445312 30.36921875 -1.03515625 29.3359375 C-1.01775391 28.17964844 -1.01775391 28.17964844 -1 27 C-2.21081851 30.10540926 -2.21081851 30.10540926 -2 34 C-4.97 34.495 -4.97 34.495 -8 35 C-6.515 34.505 -6.515 34.505 -5 34 C-5.13883419 30.56217969 -5.28727054 27.12483971 -5.4375 23.6875 C-5.47681641 22.71103516 -5.51613281 21.73457031 -5.55664062 20.72851562 C-5.59853516 19.79072266 -5.64042969 18.85292969 -5.68359375 17.88671875 C-5.72025146 17.02264404 -5.75690918 16.15856934 -5.79467773 15.26831055 C-5.92747354 12.8352174 -5.92747354 12.8352174 -7 10 C-5.35 10.33 -3.7 10.66 -2 11 C-1.93941406 10.28972656 -1.87882813 9.57945312 -1.81640625 8.84765625 C-1.73261719 7.92855469 -1.64882812 7.00945312 -1.5625 6.0625 C-1.48128906 5.14597656 -1.40007812 4.22945313 -1.31640625 3.28515625 C-1 1 -1 1 0 0 Z " fill="#942732" transform="translate(231,312)"/>
<path d="M0 0 C2.31 0 4.62 0 7 0 C7 10.23 7 20.46 7 31 C4.69 31 2.38 31 0 31 C0 20.77 0 10.54 0 0 Z " fill="#FAE6E7" transform="translate(82,266)"/>
<path d="M0 0 C2.02408755 0.09002398 4.04544287 0.24641038 6.0625 0.4375 C7.71958984 0.59025391 7.71958984 0.59025391 9.41015625 0.74609375 C10.26480469 0.82988281 11.11945313 0.91367187 12 1 C10.68 1.99 9.36 2.98 8 4 C8 3.34 8 2.68 8 2 C6.02 2 4.04 2 2 2 C2 9.92 2 17.84 2 26 C3.65 26 5.3 26 7 26 C7 26.33 7 26.66 7 27 C2.83861737 27.08159574 -0.9472484 26.98248524 -5 26 C-5.33 27.32 -5.66 28.64 -6 30 C-6.66 30 -7.32 30 -8 30 C-8 29.34 -8 28.68 -8 28 C-12.6338967 28.55958931 -12.6338967 28.55958931 -17.125 29.75 C-20.09828338 30.14643778 -21.68474386 28.73644211 -24 27 C-24 26.34 -24 25.68 -24 25 C-25.98 24.67 -27.96 24.34 -30 24 C-29.34 23.34 -28.68 22.68 -28 22 C-25.74169505 22.30110733 -24.15248391 22.91061288 -22.1875 24.0625 C-18.5555795 25.61903736 -14.72576639 25.47066356 -10.9375 24.4375 C-9 24 -9 24 -3 25 C-3.33 18.07 -3.66 11.14 -4 4 C-3.34 4 -2.68 4 -2 4 C-2 4.66 -2 5.32 -2 6 C-1.34 6 -0.68 6 0 6 C-0.185625 5.195625 -0.37125 4.39125 -0.5625 3.5625 C-0.706875 2.716875 -0.85125 1.87125 -1 1 C-0.67 0.67 -0.34 0.34 0 0 Z " fill="#8D242D" transform="translate(203,320)"/>
<path d="M0 0 C0.66 0 1.32 0 2 0 C2 0.99 2 1.98 2 3 C3.98 3.495 3.98 3.495 6 4 C2.88397453 5.55801273 -0.41497833 5.11240265 -3.83328247 5.08229065 C-4.65170179 5.07906152 -5.47012111 5.07583239 -6.31334102 5.07250541 C-9.0710823 5.06038772 -11.82872606 5.04102379 -14.58642578 5.02172852 C-16.5571369 5.01159024 -18.52785034 5.00189608 -20.49856567 4.99261475 C-25.86194449 4.96608858 -31.22526945 4.93331835 -36.58860636 4.89946485 C-42.18868027 4.86516644 -47.7887831 4.83655808 -53.3888855 4.80735779 C-63.99946794 4.75116107 -74.61001417 4.68981366 -85.22055709 4.62663645 C-97.29774058 4.55497581 -109.37495312 4.48902566 -121.45217156 4.42356598 C-146.30148539 4.28875182 -171.15075389 4.14673127 -196 4 C-196 3.67 -196 3.34 -196 3 C-131.65 3 -67.3 3 -1 3 C-0.67 2.01 -0.34 1.02 0 0 Z " fill="#85232C" transform="translate(297,40)"/>
<path d="M0 0 C0.33 0 0.66 0 1 0 C1.33 9.57 1.66 19.14 2 29 C3.32 29.33 4.64 29.66 6 30 C6 21.75 6 13.5 6 5 C6.33 5 6.66 5 7 5 C7 11.93 7 18.86 7 26 C16.28467583 26.1374827 16.28467583 26.1374827 19 23 C19.14517744 20.0906442 19.18630796 17.280054 19.125 14.375 C19.11597656 13.57320313 19.10695313 12.77140625 19.09765625 11.9453125 C19.07406223 9.96341477 19.03819065 7.98167019 19 6 C19.99 6.33 20.98 6.66 22 7 C21.67 11.95 21.34 16.9 21 22 C21.99 22.33 22.98 22.66 24 23 C24.66 18.05 25.32 13.1 26 8 C26.33 8 26.66 8 27 8 C27.08165496 10.20770805 27.13948488 12.41630425 27.1875 14.625 C27.23970703 16.46964844 27.23970703 16.46964844 27.29296875 18.3515625 C26.89319999 23.33001618 25.66933281 26.50042985 21.92578125 29.86328125 C17.65995932 31.52062996 13.71433348 31.31813732 9.1875 31.1875 C6.155625 31.125625 3.12375 31.06375 0 31 C0 20.77 0 10.54 0 0 Z " fill="#F6DBDD" transform="translate(95,266)"/>
<path d="M0 0 C0 0.66 0 1.32 0 2 C-0.9075 2.45375 -1.815 2.9075 -2.75 3.375 C-7.18015574 6.07478903 -7.78411076 10.66419908 -9.04296875 15.41796875 C-9.35878906 16.27003906 -9.67460937 17.12210937 -10 18 C-10.99 18.33 -11.98 18.66 -13 19 C-13 17.68 -13 16.36 -13 15 C-17.95 15 -22.9 15 -28 15 C-28 12.36 -28 9.72 -28 7 C-22.72 7 -17.44 7 -12 7 C-12 5.35 -12 3.7 -12 2 C-11.67 2 -11.34 2 -11 2 C-11 3.65 -11 5.3 -11 7 C-10.2575 6.030625 -9.515 5.06125 -8.75 4.0625 C-7.08039268 2.05234954 -6.27005433 1.10802173 -3.8125 0.125 C-2.54399687 0.03751703 -1.27151621 0 0 0 Z " fill="#931D25" transform="translate(161,264)"/>
<path d="M0 0 C1.98 0 3.96 0 6 0 C6 10.23 6 20.46 6 31 C4.02 31 2.04 31 0 31 C0 20.77 0 10.54 0 0 Z " fill="#FEF5F4" transform="translate(224,266)"/>
<path d="M0 0 C1.9453125 -0.29296875 1.9453125 -0.29296875 4.125 -0.1875 C5.40375 -0.125625 6.6825 -0.06375 8 0 C7.55527344 0.44730469 7.11054688 0.89460938 6.65234375 1.35546875 C6.08644531 1.96003906 5.52054688 2.56460937 4.9375 3.1875 C4.36902344 3.77917969 3.80054688 4.37085938 3.21484375 4.98046875 C1.76444292 6.9579515 1.76444292 6.9579515 2.15625 9.4453125 C3.03351515 12.10147642 4.13191933 14.28689597 5.5625 16.6875 C8 20.79603399 8 20.79603399 8 23 C4.8125 23.5 4.8125 23.5 1 23 C-0.66914446 21.02816095 -1.78715136 19.04983214 -2.95703125 16.75 C-3.30121094 16.1725 -3.64539063 15.595 -4 15 C-4.66 15 -5.32 15 -6 15 C-6 13.02 -6 11.04 -6 9 C-6.66 9 -7.32 9 -8 9 C-7 7 -7 7 -4.5625 5.0625 C-1.83597963 3.07937532 -1.83597963 3.07937532 0 0 Z " fill="#F9E9EA" transform="translate(245,322)"/>
<path d="M0 0 C1.65 0 3.3 0 5 0 C5.04938149 4.37823917 5.0857104 8.75633146 5.10986328 13.13476562 C5.11993043 14.6247032 5.13358518 16.11462097 5.15087891 17.60449219 C5.17509653 19.74419028 5.18647564 21.88362753 5.1953125 24.0234375 C5.20578613 25.31169434 5.21625977 26.59995117 5.22705078 27.92724609 C5 31 5 31 3 33 C-0.84100398 34.47730922 -4.95250514 34.06745825 -9 34 C-11.38825352 30.35570204 -10.94295451 27.9306564 -10.125 23.75 C-9.92132813 22.67234375 -9.71765625 21.5946875 -9.5078125 20.484375 C-9.34023437 19.66453125 -9.17265625 18.8446875 -9 18 C-10.32 18.33 -11.64 18.66 -13 19 C-13 17.02 -13 15.04 -13 13 C-11.35 13 -9.7 13 -8 13 C-8 19.27 -8 25.54 -8 32 C-4.535 31.505 -4.535 31.505 -1 31 C-0.67 30.01 -0.34 29.02 0 28 C0.99 27.67 1.98 27.34 3 27 C3 20.07 3 13.14 3 6 C2.34 6 1.68 6 1 6 C1 11.28 1 16.56 1 22 C0.67 22 0.34 22 0 22 C0 14.74 0 7.48 0 0 Z " fill="#8A1E26" transform="translate(231,266)"/>
<path d="M0 0 C0.33 0 0.66 0 1 0 C1.04898438 0.68707031 1.09796875 1.37414062 1.1484375 2.08203125 C1.22320312 2.98308594 1.29796875 3.88414062 1.375 4.8125 C1.44460937 5.70582031 1.51421875 6.59914063 1.5859375 7.51953125 C1.86645036 10.24398499 1.86645036 10.24398499 4 13 C6.20725073 13.36362818 6.20725073 13.36362818 8.625 13.1875 C9.44226563 13.16042969 10.25953125 13.13335937 11.1015625 13.10546875 C11.72804687 13.07066406 12.35453125 13.03585937 13 13 C13.66 11.68 14.32 10.36 15 9 C17.31 9 19.62 9 22 9 C21.73212125 12.92888829 21.47562903 14.54876221 18.5625 17.3125 C13.79578953 20.45155324 9.65311109 20.82912296 4 20 C2.0625 17.875 2.0625 17.875 1 15 C0.443125 13.906875 -0.11375 12.81375 -0.6875 11.6875 C-1.120625 10.800625 -1.55375 9.91375 -2 9 C-1.67 8.67 -1.34 8.34 -1 8 C-0.76924918 6.65252916 -0.58846937 5.29622435 -0.4375 3.9375 C-0.293125 2.638125 -0.14875 1.33875 0 0 Z " fill="#F9E4E7" transform="translate(158,278)"/>
<path d="M0 0 C0.99 0.33 1.98 0.66 3 1 C3 1.99 3 2.98 3 4 C3.66 4 4.32 4 5 4 C4.814375 4.639375 4.62875 5.27875 4.4375 5.9375 C4.293125 6.618125 4.14875 7.29875 4 8 C4.33 8.33 4.66 8.66 5 9 C5.33 8.34 5.66 7.68 6 7 C8.94140625 6.5859375 8.94140625 6.5859375 12.5625 6.375 C13.76003906 6.30023438 14.95757812 6.22546875 16.19140625 6.1484375 C17.58166016 6.07496094 17.58166016 6.07496094 19 6 C19.33 7.32 19.66 8.64 20 10 C17.3552822 11.3223589 15.07250243 11.29821499 12.125 11.5 C8.54589883 11.74622809 5.50080143 12.12479964 2 13 C2.99 15.64 3.98 18.28 5 21 C3.02 21.99 3.02 21.99 1 23 C0.03911617 20.11734851 -0.11670941 18.32337729 -0.09765625 15.33203125 C-0.09443359 14.43935547 -0.09121094 13.54667969 -0.08789062 12.62695312 C-0.07951172 11.69818359 -0.07113281 10.76941406 -0.0625 9.8125 C-0.05798828 8.87212891 -0.05347656 7.93175781 -0.04882812 6.96289062 C-0.03704626 4.64186288 -0.02059558 2.32096356 0 0 Z " fill="#FCF9F9" transform="translate(150,320)"/>
<path d="M0 0 C1.32 0.66 2.64 1.32 4 2 C3.69177379 4.2922454 3.37829126 6.58378455 3.0625 8.875 C2.88847656 10.15117187 2.71445313 11.42734375 2.53515625 12.7421875 C2 16 2 16 1 18 C1.76600582 20.01925867 1.76600582 20.01925867 2.9375 22.125 C3.31777344 22.84945313 3.69804687 23.57390625 4.08984375 24.3203125 C4.39019531 24.87460937 4.69054687 25.42890625 5 26 C4.34 26.33 3.68 26.66 3 27 C-1.26143622 24.08428048 -2.98247365 22.08763175 -4 17 C-4.59447588 6.22121361 -4.59447588 6.22121361 -3 2 C-2.01 1.34 -1.02 0.68 0 0 Z " fill="#FCF2F1" transform="translate(156,270)"/>
<path d="M0 0 C2.31 0 4.62 0 7 0 C8.98 3.63 10.96 7.26 13 11 C12.01 10.67 11.02 10.34 10 10 C10 9.34 10 8.68 10 8 C5.99479464 9.54746571 3.7987165 10.86123566 1.8125 14.625 C0 18 0 18 -3 19 C-3.33 17.68 -3.66 16.36 -4 15 C-4.66 15 -5.32 15 -6 15 C-6 14.01 -6 13.02 -6 12 C-4.02 12 -2.04 12 0 12 C0 8.04 0 4.08 0 0 Z " fill="#911C24" transform="translate(243,285)"/>
<path d="M0 0 C0 5.94 0 11.88 0 18 C-10.7421875 18.1953125 -10.7421875 18.1953125 -14 18 C-14.66 17.34 -15.32 16.68 -16 16 C-16 15.01 -16 14.02 -16 13 C-12.7 13 -9.4 13 -6 13 C-5.896875 11.5975 -5.79375 10.195 -5.6875 8.75 C-4.72293307 0 -4.72293307 0 0 0 Z " fill="#FCEFEF" transform="translate(199,327)"/>
<path d="M0 0 C0.86625 0.268125 1.7325 0.53625 2.625 0.8125 C4.62397128 1.15194795 6.62375639 1.48671616 8.625 1.8125 C8.295 3.7925 7.965 5.7725 7.625 7.8125 C1 8.9375 1 8.9375 -2.375 7.8125 C-1.73520151 9.84491727 -1.73520151 9.84491727 -0.375 11.8125 C2.18019921 12.62421228 2.18019921 12.62421228 4.625 12.8125 C4.625 13.1425 4.625 13.4725 4.625 13.8125 C-1.65086207 14.29525862 -1.65086207 14.29525862 -4.8125 12.1875 C-6.84661336 9.09564769 -6.98105429 7.44882575 -6.375 3.8125 C-3.54198656 -0.27963052 -3.54198656 -0.27963052 0 0 Z " fill="#F6DEE3" transform="translate(185.375,332.1875)"/>
<path d="M0 0 C0.99 0 1.98 0 3 0 C3 10.56 3 21.12 3 32 C4.98 32 6.96 32 9 32 C9 32.33 9 32.66 9 33 C6.69 33 4.38 33 2 33 C1.67 33.66 1.34 34.32 1 35 C-1.125 30.375 -1.125 30.375 0 27 C-0.09268505 24.93381251 -0.09268505 24.93381251 -0.4375 22.8125 C-0.623125 21.554375 -0.80875 20.29625 -1 19 C-1.33 19 -1.66 19 -2 19 C-2.33 14.38 -2.66 9.76 -3 5 C-2.34 5 -1.68 5 -1 5 C-1 6.65 -1 8.3 -1 10 C-0.34 10 0.32 10 1 10 C0.67 6.7 0.34 3.4 0 0 Z " fill="#8D2C35" transform="translate(124,266)"/>
<path d="M0 0 C1.93166016 0.01740234 1.93166016 0.01740234 3.90234375 0.03515625 C5.19269531 0.04417969 6.48304688 0.05320312 7.8125 0.0625 C8.81152344 0.07410156 9.81054688 0.08570313 10.83984375 0.09765625 C10.50984375 1.41765625 10.17984375 2.73765625 9.83984375 4.09765625 C6.20984375 4.09765625 2.57984375 4.09765625 -1.16015625 4.09765625 C-1.16015625 8.38765625 -1.16015625 12.67765625 -1.16015625 17.09765625 C-2.81015625 17.09765625 -4.46015625 17.09765625 -6.16015625 17.09765625 C-6.21465463 15.36884643 -6.25317313 13.63952913 -6.28515625 11.91015625 C-6.30835938 10.94722656 -6.3315625 9.98429687 -6.35546875 8.9921875 C-6.01939376 4.01155621 -5.34610162 0.1652071 0 0 Z " fill="#FCF9F9" transform="translate(204.16015625,279.90234375)"/>
<path d="M0 0 C0.33 0 0.66 0 1 0 C2.25 6.625 2.25 6.625 0 10 C-0.99 9.67 -1.98 9.34 -3 9 C-3 10.32 -3 11.64 -3 13 C-2.34 13.33 -1.68 13.66 -1 14 C-1.66 14 -2.32 14 -3 14 C-2.67 14.99 -2.34 15.98 -2 17 C-1.01 17 -0.02 17 1 17 C1.28875 17.763125 1.5775 18.52625 1.875 19.3125 C2.96269013 22.15029308 2.96269013 22.15029308 5 25 C2.23547967 26.38226016 -0.0461363 26.09525387 -3.125 26.0625 C-4.22070312 26.05347656 -5.31640625 26.04445313 -6.4453125 26.03515625 C-7.70988281 26.01775391 -7.70988281 26.01775391 -9 26 C-9 25.67 -9 25.34 -9 25 C-6.69 25 -4.38 25 -2 25 C-2.5053125 24.22914063 -3.010625 23.45828125 -3.53125 22.6640625 C-4.1809375 21.66117187 -4.830625 20.65828125 -5.5 19.625 C-6.1496875 18.62726563 -6.799375 17.62953125 -7.46875 16.6015625 C-9 14 -9 14 -9 12 C-7.67732273 10.98594743 -6.34275169 9.98731742 -5 9 C-4.34 8.01 -3.68 7.02 -3 6 C-2.34 5.34 -1.68 4.68 -1 4 C-0.3574765 1.93125966 -0.3574765 1.93125966 0 0 Z " fill="#8F2833" transform="translate(266,272)"/>
<path d="M0 0 C6.27 0 12.54 0 19 0 C19 0.33 19 0.66 19 1 C13.06 1 7.12 1 1 1 C1.33 10.57 1.66 20.14 2 30 C2.99 29.01 3.98 28.02 5 27 C4.34 24.69 3.68 22.38 3 20 C4.32 19.67 5.64 19.34 7 19 C7 21.64 7 24.28 7 27 C8.98 27 10.96 27 13 27 C11.68 27.33 10.36 27.66 9 28 C10 30.5 10 30.5 14 32 C9.38 32 4.76 32 0 32 C0 21.44 0 10.88 0 0 Z " fill="#F0CACF" transform="translate(149,313)"/>
<path d="M0 0 C2.31 0 4.62 0 7 0 C7.33 1.32 7.66 2.64 8 4 C10.97 4.33 13.94 4.66 17 5 C16.34 6.32 15.68 7.64 15 9 C16.32 9.66 17.64 10.32 19 11 C7.36912255 11.40651611 7.36912255 11.40651611 2.25 7.75 C0.49708852 5.29592392 0.32836212 2.95525904 0 0 Z " fill="#F6E5E6" transform="translate(266,287)"/>
<path d="M0 0 C1.79158489 -0.02696365 3.58328473 -0.04637917 5.375 -0.0625 C6.37273437 -0.07410156 7.37046875 -0.08570313 8.3984375 -0.09765625 C11 0 11 0 13 1 C13.04254356 2.99954746 13.04080783 5.00041636 13 7 C12 8 12 8 9.27734375 8.09765625 C7.62412109 8.08025391 7.62412109 8.08025391 5.9375 8.0625 C4.83277344 8.05347656 3.72804687 8.04445313 2.58984375 8.03515625 C1.30787109 8.01775391 1.30787109 8.01775391 0 8 C0 5.36 0 2.72 0 0 Z " fill="#80393E" transform="translate(243,271)"/>
<path d="M0 0 C1.97909398 -0.02686553 3.95828971 -0.04633375 5.9375 -0.0625 C7.03964844 -0.07410156 8.14179688 -0.08570313 9.27734375 -0.09765625 C12 0 12 0 13 1 C13.25 3.4375 13.25 3.4375 13 6 C9.68629 8.20914 8.6553979 8.22481553 4.8125 8.125 C3.91144531 8.10695313 3.01039063 8.08890625 2.08203125 8.0703125 C1.39496094 8.04710937 0.70789063 8.02390625 0 8 C0 5.36 0 2.72 0 0 Z " fill="#89232F" transform="translate(156,332)"/>
<path d="M0 0 C0 10.56 0 21.12 0 32 C-0.33 32 -0.66 32 -1 32 C-1.82038591 25.598406 -2.12754513 19.38697499 -2.0625 12.9375 C-2.05798828 12.07189453 -2.05347656 11.20628906 -2.04882812 10.31445312 C-2.03719913 8.20960461 -2.01927073 6.10479242 -2 4 C-2.66 4 -3.32 4 -4 4 C-3.99476318 4.59425781 -3.98952637 5.18851562 -3.98413086 5.80078125 C-3.96314409 8.5338431 -3.95027155 11.2668879 -3.9375 14 C-3.92912109 14.93457031 -3.92074219 15.86914062 -3.91210938 16.83203125 C-3.89291108 22.32274401 -4.1865807 27.56866481 -5 33 C-5.33 33 -5.66 33 -6 33 C-6 22.77 -6 12.54 -6 2 C-2 0 -2 0 0 0 Z " fill="#86252D" transform="translate(95,265)"/>
<path d="M0 0 C1.5 1.125 1.5 1.125 3 3 C3.125 6.0625 3.125 6.0625 3 9 C3.33 9.66 3.66 10.32 4 11 C3.34 11.66 2.68 12.32 2 13 C1.87625 13.639375 1.7525 14.27875 1.625 14.9375 C1 17 1 17 -0.75 18.8125 C-3.6004589 20.31690887 -4.98088413 19.92250763 -8 19 C-7.236875 18.484375 -6.47375 17.96875 -5.6875 17.4375 C-2.38424393 14.44152356 -1.51374274 12.14287486 0 8 C-2.31 8 -4.62 8 -7 8 C-7.33 9.32 -7.66 10.64 -8 12 C-9.65 12.33 -11.3 12.66 -13 13 C-12.01 12.67 -11.02 12.34 -10 12 C-10 11.34 -10 10.68 -10 10 C-9.34 10 -8.68 10 -8 10 C-8 8.35 -8 6.7 -8 5 C-7.05125 4.9175 -6.1025 4.835 -5.125 4.75 C-1.89538209 4.34925077 -1.89538209 4.34925077 -0.625 1.9375 C-0.41875 1.298125 -0.2125 0.65875 0 0 Z " fill="#922931" transform="translate(180,279)"/>
<path d="M0 0 C0 8.25 0 16.5 0 25 C-1.32 25 -2.64 25 -4 25 C-4.0867982 21.20847666 -4.14032207 17.41720704 -4.1875 13.625 C-4.21263672 12.54476563 -4.23777344 11.46453125 -4.26367188 10.3515625 C-4.27333984 9.3203125 -4.28300781 8.2890625 -4.29296875 7.2265625 C-4.31653442 5.79691162 -4.31653442 5.79691162 -4.34057617 4.33837891 C-4.22818604 3.56671387 -4.1157959 2.79504883 -4 2 C-1 0 -1 0 0 0 Z " fill="#FDFCFA" transform="translate(309,271)"/>
<path d="M0 0 C3.14067245 3.14067245 2.97821454 6.20788056 3.09765625 10.55078125 C3.08605469 11.79214844 3.07445312 13.03351563 3.0625 14.3125 C3.05347656 15.56675781 3.04445312 16.82101562 3.03515625 18.11328125 C3.01775391 19.54220703 3.01775391 19.54220703 3 21 C1.35 21 -0.3 21 -2 21 C-2 14.4 -2 7.8 -2 1 C-1.34 0.67 -0.68 0.34 0 0 Z " fill="#FBFAFC" transform="translate(208,324)"/>
<path d="M0 0 C0.99 0.33 1.98 0.66 3 1 C2.67 8.92 2.34 16.84 2 25 C3.32 25 4.64 25 6 25 C6 16.75 6 8.5 6 0 C6.33 0 6.66 0 7 0 C7 8.91 7 17.82 7 27 C4.69 27 2.38 27 0 27 C0 18.09 0 9.18 0 0 Z " fill="#EFCACC" transform="translate(303,271)"/>
<path d="M0 0 C0.66 0.66 1.32 1.32 2 2 C-0.31 2.33 -2.62 2.66 -5 3 C-4.01 3.33 -3.02 3.66 -2 4 C-2.33 4.99 -2.66 5.98 -3 7 C-3.33 6.67 -3.66 6.34 -4 6 C-6.41537838 5.58282721 -6.41537838 5.58282721 -9 6 C-10.84315671 7.9004467 -10.84315671 7.9004467 -12 10 C-12.66 8.02 -13.32 6.04 -14 4 C-14.66 4 -15.32 4 -16 4 C-16 10.6 -16 17.2 -16 24 C-16.33 24 -16.66 24 -17 24 C-17 16.41 -17 8.82 -17 1 C-14.33333333 1 -11.66666667 1 -9 1 C-5.98675805 -0.50662097 -3.31713623 -0.17770373 0 0 Z " fill="#FADFE5" transform="translate(222,321)"/>
<path d="M0 0 C2.5 0.25 2.5 0.25 4.5 2.25 C4.64517744 5.1593558 4.68630796 7.969946 4.625 10.875 C4.61597656 11.67679687 4.60695312 12.47859375 4.59765625 13.3046875 C4.57406223 15.28658523 4.53819065 17.26832981 4.5 19.25 C4.17 19.25 3.84 19.25 3.5 19.25 C3.5 15.62 3.5 11.99 3.5 8.25 C1.19 8.25 -1.12 8.25 -3.5 8.25 C-3.5 11.88 -3.5 15.51 -3.5 19.25 C-3.83 19.25 -4.16 19.25 -4.5 19.25 C-4.55380578 16.45807795 -4.59357669 13.6671859 -4.625 10.875 C-4.64175781 10.0809375 -4.65851563 9.286875 -4.67578125 8.46875 C-4.69335473 6.39507985 -4.60335168 4.32116759 -4.5 2.25 C-2.5 0.25 -2.5 0.25 0 0 Z " fill="#8D2733" transform="translate(215.5,325.75)"/>
<path d="M0 0 C2.97 0.33 5.94 0.66 9 1 C9 2.32 9 3.64 9 5 C11.31 5 13.62 5 16 5 C13.05056977 7.5124776 10.90836129 8.82234721 7 9 C4.18115131 8.30596528 1.50778622 7.47654703 -1 6 C-1.33 5.01 -1.66 4.02 -2 3 C-1.34 2.01 -0.68 1.02 0 0 Z " fill="#9A3C43" transform="translate(275,270)"/>
<path d="M0 0 C0.66 0 1.32 0 2 0 C2.98484108 1.74681293 3.96266187 3.4975851 4.9375 5.25 C5.48277344 6.22453125 6.02804688 7.1990625 6.58984375 8.203125 C7.76610835 10.53610409 8.52101691 12.45350762 9 15 C5.875 15.625 5.875 15.625 2 15 C-0.49515761 11.91488105 -2.26536376 8.55822819 -4 5 C-1.525 5.495 -1.525 5.495 1 6 C0.34 4.35 -0.32 2.7 -1 1 C-0.67 0.67 -0.34 0.34 0 0 Z " fill="#F2DDDC" transform="translate(244,330)"/>
<path d="M0 0 C5.875 1.875 5.875 1.875 7 3 C7.09983684 4.91451817 7.12967589 6.83288619 7.125 8.75 C7.12757812 9.79671875 7.13015625 10.8434375 7.1328125 11.921875 C7.01155348 14.73223122 6.63784091 17.26639609 6 20 C4.68 19.34 3.36 18.68 2 18 C2.02320312 16.95199219 2.04640625 15.90398437 2.0703125 14.82421875 C2.08907303 13.44531963 2.10727293 12.0664128 2.125 10.6875 C2.14175781 9.99720703 2.15851563 9.30691406 2.17578125 8.59570312 C2.21217794 4.82864604 2.14378864 3.21568296 0 0 Z " fill="#FEF9FB" transform="translate(114,270)"/>
<path d="M0 0 C1.62463842 -0.05395478 3.24978541 -0.09277195 4.875 -0.125 C5.77992188 -0.14820313 6.68484375 -0.17140625 7.6171875 -0.1953125 C10 0 10 0 12 2 C11.67 3.65 11.34 5.3 11 7 C7.37 7 3.74 7 0 7 C0 4.69 0 2.38 0 0 Z " fill="#862C37" transform="translate(156,319)"/>
<path d="M0 0 C0 0.66 0 1.32 0 2 C-1.423125 2.86625 -1.423125 2.86625 -2.875 3.75 C-6.4294113 6.30917613 -7.04949793 7.81779089 -8 12 C-8.33 10.68 -8.66 9.36 -9 8 C-9.99 8.495 -9.99 8.495 -11 9 C-13.7235195 8.91075148 -16.41013311 8.76646668 -19.125 8.5625 C-19.87910156 8.51029297 -20.63320312 8.45808594 -21.41015625 8.40429688 C-23.2737937 8.27454996 -25.13694996 8.13792512 -27 8 C-27 9.98 -27 11.96 -27 14 C-22.71 14 -18.42 14 -14 14 C-14 14.33 -14 14.66 -14 15 C-18.62 15 -23.24 15 -28 15 C-28 12.36 -28 9.72 -28 7 C-22.72 7 -17.44 7 -12 7 C-12 5.35 -12 3.7 -12 2 C-11.67 2 -11.34 2 -11 2 C-11 3.65 -11 5.3 -11 7 C-10.2575 6.030625 -9.515 5.06125 -8.75 4.0625 C-7.08039268 2.05234954 -6.27005433 1.10802173 -3.8125 0.125 C-2.54399687 0.03751703 -1.27151621 0 0 0 Z " fill="#944249" transform="translate(161,264)"/>
<path d="M0 0 C3.65280499 0.20293361 4.8411725 0.8371 7.4375 3.5 C9.29951633 7.67091658 8.962594 9.56083739 7.87109375 13.8515625 C6.8411445 16.39179607 5.96006923 18.06132891 4 20 C1.15234375 20.57421875 1.15234375 20.57421875 -2.0625 20.6875 C-6.18547891 20.73823184 -6.18547891 20.73823184 -10 22 C-12.125 21.5625 -12.125 21.5625 -14 21 C-14 20.01 -14 19.02 -14 18 C-13.11957031 18.03480469 -12.23914063 18.06960938 -11.33203125 18.10546875 C-9.58986328 18.14607422 -9.58986328 18.14607422 -7.8125 18.1875 C-6.08966797 18.23970703 -6.08966797 18.23970703 -4.33203125 18.29296875 C-0.6955965 17.97323533 1.1105914 17.18158273 4 15 C5.58749551 11.82500898 5.41181178 8.45779895 5 5 C3.74882038 3.07994865 3.74882038 3.07994865 2 2 C1.34 1.34 0.68 0.68 0 0 Z " fill="#8E2F39" transform="translate(286,279)"/>
<path d="M0 0 C3.07053382 2.39885455 3.93626913 3.49925747 4.4375 7.4375 C3.98048206 11.15893177 3.31697943 13.0823222 1 16 C0.01 16.33 -0.98 16.66 -2 17 C-1.67 16.01 -1.34 15.02 -1 14 C-0.34 14 0.32 14 1 14 C1 13.01 1 12.02 1 11 C-0.32 11 -1.64 11 -3 11 C-3 9.02 -3 7.04 -3 5 C-7.29 4.67 -11.58 4.34 -16 4 C-16 3.67 -16 3.34 -16 3 C-14.06280622 2.94593878 -12.12518079 2.90717975 -10.1875 2.875 C-9.10855469 2.85179687 -8.02960938 2.82859375 -6.91796875 2.8046875 C-4 3 -4 3 -1 5 C-1 5.66 -1 6.32 -1 7 C-0.34 7 0.32 7 1 7 C0.67 4.69 0.34 2.38 0 0 Z " fill="#FAE4E5" transform="translate(259,267)"/>
<path d="M0 0 C1.39456452 0.00667256 2.78911118 0.01863093 4.18359375 0.03515625 C4.89451172 0.03966797 5.60542969 0.04417969 6.33789062 0.04882812 C8.09899388 0.06064761 9.86005411 0.07858362 11.62109375 0.09765625 C12.28109375 1.41765625 12.94109375 2.73765625 13.62109375 4.09765625 C9.00109375 4.09765625 4.38109375 4.09765625 -0.37890625 4.09765625 C-0.37890625 5.74765625 -0.37890625 7.39765625 -0.37890625 9.09765625 C-1.36890625 9.42765625 -2.35890625 9.75765625 -3.37890625 10.09765625 C-4.37890625 9.09765625 -4.37890625 9.09765625 -4.51171875 7.28515625 C-4.50914063 6.56328125 -4.5065625 5.84140625 -4.50390625 5.09765625 C-4.50648437 4.37578125 -4.5090625 3.65390625 -4.51171875 2.91015625 C-4.26941717 -0.39654764 -3.40555941 0.09842657 0 0 Z " fill="#FCFAF9" transform="translate(132.37890625,265.90234375)"/>
<path d="M0 0 C2.68777802 -0.0544207 5.37443212 -0.09387266 8.0625 -0.125 C8.81466797 -0.14175781 9.56683594 -0.15851563 10.34179688 -0.17578125 C15.29327709 -0.21865121 19.30414451 0.41600625 24 2 C21.0751367 2.84191782 18.49258344 3.11819313 15.453125 3.09765625 C14.69161133 3.09515869 13.93009766 3.09266113 13.14550781 3.09008789 C11.71223145 3.07643188 11.71223145 3.07643188 10.25 3.0625 C5.67125 3.0315625 5.67125 3.0315625 1 3 C0.67 13.23 0.34 23.46 0 34 C-0.33 34 -0.66 34 -1 34 C-1.19279158 29.80125838 -1.3714261 25.60222204 -1.53710938 21.40234375 C-1.59541735 19.97444624 -1.65755423 18.54669964 -1.72363281 17.11914062 C-1.81808538 15.06408166 -1.89863877 13.00886899 -1.9765625 10.953125 C-2.02893066 9.71723633 -2.08129883 8.48134766 -2.13525391 7.20800781 C-2.00570235 4.13525065 -1.63395097 2.554094 0 0 Z " fill="#891D29" transform="translate(148,311)"/>
<path d="M0 0 C1.32 0.33 2.64 0.66 4 1 C5.18234854 4.69483919 5.2804701 8.14353614 5 12 C4 13.9375 4 13.9375 2 15 C-0.71882023 15.23595284 -3.25957022 15.13477523 -6 15 C-4.19587357 11.73539027 -3.16605307 10.11070205 0 8 C1.19248372 5.0187907 0.97140086 3.02213602 0 0 Z " fill="#FBF0F0" transform="translate(286,282)"/>
<path d="M0 0 C2.97 0 5.94 0 9 0 C9 8.91 9 17.82 9 27 C11.31 27 13.62 27 16 27 C16 27.66 16 28.32 16 29 C14.35 29 12.7 29 11 29 C11 29.99 11 30.98 11 32 C10.01 31.67 9.02 31.34 8 31 C6.95345318 26.72244752 6.84633067 22.56571609 6.875 18.1875 C6.87693359 17.47916016 6.87886719 16.77082031 6.88085938 16.04101562 C6.9203267 11.27423922 7.21709524 6.69742856 8 2 C5.36 1.67 2.72 1.34 0 1 C0 0.67 0 0.34 0 0 Z " fill="#851F29" transform="translate(294,271)"/>
<path d="M0 0 C0.66 0 1.32 0 2 0 C2 11.22 2 22.44 2 34 C1.01 34 0.02 34 -1 34 C-0.67 22.78 -0.34 11.56 0 0 Z " fill="#86212D" transform="translate(131,128)"/>
<path d="M0 0 C0.99 0 1.98 0 3 0 C2.67 11.22 2.34 22.44 2 34 C1.34 34 0.68 34 0 34 C0 22.78 0 11.56 0 0 Z " fill="#953E46" transform="translate(267,78)"/>
<path d="M0 0 C5.94 0.33 11.88 0.66 18 1 C18 1.99 18 2.98 18 4 C14.43954823 5.18681726 11.56191663 5.09689832 7.8125 5.0625 C6.54019531 5.05347656 5.26789063 5.04445313 3.95703125 5.03515625 C2.49330078 5.01775391 2.49330078 5.01775391 1 5 C0.67 3.35 0.34 1.7 0 0 Z " fill="#FCFBF9" transform="translate(129,278)"/>
<path d="M0 0 C5.94 0 11.88 0 18 0 C17.67 0.66 17.34 1.32 17 2 C12.05 2 7.1 2 2 2 C2 11.9 2 21.8 2 32 C1.34 32 0.68 32 0 32 C0 21.44 0 10.88 0 0 Z " fill="#FEF4F2" transform="translate(134,179)"/>
<path d="M0 0 C7.11111111 1.42222222 7.11111111 1.42222222 10.5 3.625 C12.73488225 7.16356356 12.27579429 9.86308559 12 14 C11.67 14 11.34 14 11 14 C10.87882812 13.43410156 10.75765625 12.86820312 10.6328125 12.28515625 C10.46523438 11.55167969 10.29765625 10.81820313 10.125 10.0625 C9.96257812 9.33160156 9.80015625 8.60070312 9.6328125 7.84765625 C9.17038477 5.79299706 9.17038477 5.79299706 7 5 C6.67 5.66 6.34 6.32 6 7 C6.99 7.33 7.98 7.66 9 8 C8.34 8 7.68 8 7 8 C6.67 9.65 6.34 11.3 6 13 C5.67 13 5.34 13 5 13 C5 11.35 5 9.7 5 8 C2.03 7.505 2.03 7.505 -1 7 C-0.34 6.34 0.32 5.68 1 5 C1.99 5 2.98 5 4 5 C4 4.34 4 3.68 4 3 C2.68 2.67 1.36 2.34 0 2 C0 1.34 0 0.68 0 0 Z " fill="#F5DDE0" transform="translate(280,278)"/>
<path d="M0 0 C3.08089673 2.77280706 4.68775452 5.06326356 6 9 C8.64 8.67 11.28 8.34 14 8 C14 8.66 14 9.32 14 10 C11.85473901 10.19393875 9.70876323 10.37998676 7.5625 10.5625 C5.77005859 10.71912109 5.77005859 10.71912109 3.94140625 10.87890625 C2.97074219 10.91886719 2.00007812 10.95882813 1 11 C0.67 10.67 0.34 10.34 0 10 C0 8.33333333 0 6.66666667 0 5 C-0.33 4.67 -0.66 4.34 -1 4 C-1 5.65 -1 7.3 -1 9 C-1.33 9 -1.66 9 -2 9 C-2 6.36 -2 3.72 -2 1 C-1.34 0.67 -0.68 0.34 0 0 Z " fill="#9A2E37" transform="translate(240,336)"/>
<path d="M0 0 C0.66 0 1.32 0 2 0 C2.02691685 2.45840605 2.04679802 4.91651882 2.0625 7.375 C2.07087891 8.07367188 2.07925781 8.77234375 2.08789062 9.4921875 C2.11328125 14.7734375 2.11328125 14.7734375 1 17 C0.01 16.67 -0.98 16.34 -2 16 C-1.979375 14.948125 -1.95875 13.89625 -1.9375 12.8125 C-1.8500798 9.15339777 -1.8500798 9.15339777 -2.6875 6.3125 C-3 4 -3 4 -1.6875 1.6875 C-1.130625 1.130625 -0.57375 0.57375 0 0 Z " fill="#FDF7FB" transform="translate(197,327)"/>
<path d="M0 0 C1.5 1 1.5 1 3 3 C3.39491399 5.79873829 3.227129 8.13817454 3 11 C2.34 11.66 1.68 12.32 1 13 C0.67 14.65 0.34 16.3 0 18 C-4.95 17.67 -9.9 17.34 -15 17 C-15 16.67 -15 16.34 -15 16 C-10.38 15.67 -5.76 15.34 -1 15 C-1.33 13.68 -1.66 12.36 -2 11 C-2.66 10.67 -3.32 10.34 -4 10 C-3.34 8.68 -2.68 7.36 -2 6 C-1.67 6.66 -1.34 7.32 -1 8 C-0.01 8.33 0.98 8.66 2 9 C1.67 8.2575 1.34 7.515 1 6.75 C0 4 0 4 0 0 Z " fill="#FAE6E7" transform="translate(171,315)"/>
<path d="M0 0 C3.84204131 2.47873633 3.84204131 2.47873633 4.625 5.0625 C4.74875 5.701875 4.8725 6.34125 5 7 C5.66 7.66 6.32 8.32 7 9 C6.67 9.66 6.34 10.32 6 11 C5.95977609 13.3329866 5.95679753 15.66706666 6 18 C5.01 18 4.02 18 3 18 C2.89042969 17.18015625 2.78085938 16.3603125 2.66796875 15.515625 C2.43013672 13.89914062 2.43013672 13.89914062 2.1875 12.25 C2.03667969 11.18265625 1.88585937 10.1153125 1.73046875 9.015625 C0.98679593 5.94548906 0.07234528 4.33919522 -2 2 C-1.34 2 -0.68 2 0 2 C0 1.34 0 0.68 0 0 Z " fill="#951B29" transform="translate(172,312)"/>
<path d="M0 0 C0.33 0 0.66 0 1 0 C1 10.23 1 20.46 1 31 C2.98 31 4.96 31 7 31 C6.34 32.32 5.68 33.64 5 35 C3.68 35 2.36 35 1 35 C0.67 35.99 0.34 36.98 0 38 C-1.59142848 34.81714304 -1.00008284 31.4129558 -0.87890625 27.9296875 C-0.85529526 27.13345978 -0.83168427 26.33723206 -0.80735779 25.51687622 C-0.73067789 22.96940471 -0.64667239 20.4222339 -0.5625 17.875 C-0.50928363 16.14975438 -0.4565432 14.42449402 -0.40429688 12.69921875 C-0.27505693 8.46595478 -0.13924581 4.23294618 0 0 Z " fill="#922A36" transform="translate(231,314)"/>
<path d="M0 0 C2.02408755 0.09002398 4.04544287 0.24641038 6.0625 0.4375 C7.71958984 0.59025391 7.71958984 0.59025391 9.41015625 0.74609375 C10.26480469 0.82988281 11.11945313 0.91367187 12 1 C10.68 1.99 9.36 2.98 8 4 C8 3.34 8 2.68 8 2 C6.02 2 4.04 2 2 2 C2 9.59 2 17.18 2 25 C1.67 25 1.34 25 1 25 C0.67 19.39 0.34 13.78 0 8 C-0.99 8 -1.98 8 -3 8 C-3.33 6.68 -3.66 5.36 -4 4 C-3.34 4 -2.68 4 -2 4 C-2 4.66 -2 5.32 -2 6 C-1.34 6 -0.68 6 0 6 C-0.2784375 4.7934375 -0.2784375 4.7934375 -0.5625 3.5625 C-0.706875 2.716875 -0.85125 1.87125 -1 1 C-0.67 0.67 -0.34 0.34 0 0 Z " fill="#8C313B" transform="translate(203,320)"/>
<path d="M0 0 C1.65 1.65 3.3 3.3 5 5 C4.67 5.99 4.34 6.98 4 8 C2.824375 8.185625 2.824375 8.185625 1.625 8.375 C-1.14057822 8.79117993 -1.14057822 8.79117993 -3 11 C-3.66 11 -4.32 11 -5 11 C-4.93993922 9.54052295 -4.8511311 8.08220728 -4.75 6.625 C-4.70359375 5.81289063 -4.6571875 5.00078125 -4.609375 4.1640625 C-4 2 -4 2 -1.953125 0.7109375 C-1.30859375 0.47632813 -0.6640625 0.24171875 0 0 Z " fill="#961B28" transform="translate(267,279)"/>
<path d="M0 0 C0.66 0.33 1.32 0.66 2 1 C2 1.99 2 2.98 2 4 C2.66 4 3.32 4 4 4 C4 6.31 4 8.62 4 11 C4.66 11 5.32 11 6 11 C6.33 13.31 6.66 15.62 7 18 C4.69 17.67 2.38 17.34 0 17 C0.33 16.34 0.66 15.68 1 15 C1.14640501 13.35857459 1.22096589 11.7101859 1.25 10.0625 C1.27578125 9.18722656 1.3015625 8.31195313 1.328125 7.41015625 C0.94290357 4.5806131 0.19305243 3.74867075 -2 2 C-1.34 1.34 -0.68 0.68 0 0 Z " fill="#903C44" transform="translate(173,326)"/>
<path d="M0 0 C2.31 0 4.62 0 7 0 C7.33 2.31 7.66 4.62 8 7 C8.99 7.33 9.98 7.66 11 8 C11.6875 10.0625 11.6875 10.0625 12 12 C10.02 13.65 8.04 15.3 6 17 C6 11.72 6 6.44 6 1 C4.02 1 2.04 1 0 1 C0 0.67 0 0.34 0 0 Z " fill="#9F4850" transform="translate(232,313)"/>
<path d="M0 0 C-0.33 1.65 -0.66 3.3 -1 5 C-9.35355205 6.75864254 -17.6042747 6.08331939 -26 5 C-26 4.67 -26 4.34 -26 4 C-24.68644531 3.96261719 -23.37289062 3.92523438 -22.01953125 3.88671875 C-20.28382636 3.82104343 -18.54815053 3.75459663 -16.8125 3.6875 C-15.94818359 3.66494141 -15.08386719 3.64238281 -14.19335938 3.61914062 C-8.97717342 3.39930137 -4.52498716 0 0 0 Z " fill="#953D45" transform="translate(121,293)"/>
<path d="M0 0 C0 0.33 0 0.66 0 1 C-4.1196377 2.29243536 -7.66831683 3.26252625 -12 3 C-12 3.66 -12 4.32 -12 5 C-10.68 5.33 -9.36 5.66 -8 6 C-9.98 6.99 -9.98 6.99 -12 8 C-12.99 7.34 -13.98 6.68 -15 6 C-15.99 6.33 -16.98 6.66 -18 7 C-17.04908327 4.49303771 -16.06198622 3.05598755 -14.0625 1.25 C-9.44046014 -0.63654688 -4.92876009 -0.23305871 0 0 Z " fill="#F7DCDE" transform="translate(172,265)"/>
<path d="M0 0 C3.3 0 6.6 0 10 0 C11.49821059 3.37097383 12 5.20442119 12 9 C10.125 8.75 10.125 8.75 8 8 C7.30062468 6.68352881 6.63270867 5.34977849 6 4 C5.01 3.67 4.02 3.34 3 3 C3 2.34 3 1.68 3 1 C2.01 0.67 1.02 0.34 0 0 Z " fill="#FBFBFA" transform="translate(161,315)"/>
<path d="M0 0 C0.33 0 0.66 0 1 0 C1 4.29 1 8.58 1 13 C-0.65 13 -2.3 13 -4 13 C-3.71682074 11.39431334 -3.42312209 9.79047953 -3.125 8.1875 C-2.96257812 7.29417969 -2.80015625 6.40085937 -2.6328125 5.48046875 C-2 3 -2 3 0 0 Z " fill="#FDF5F2" transform="translate(210,332)"/>
<path d="M0 0 C0.33 0 0.66 0 1 0 C1.04898438 0.66386719 1.09796875 1.32773437 1.1484375 2.01171875 C1.54566619 6.70312659 1.97348123 10.69364762 4 15 C4.33 16.32 4.66 17.64 5 19 C7.97 19 10.94 19 14 19 C14 19.33 14 19.66 14 20 C10.62154518 20.2852354 7.36990918 20.43078127 4 20 C2.0625 17.875 2.0625 17.875 1 15 C0.443125 13.906875 -0.11375 12.81375 -0.6875 11.6875 C-1.120625 10.800625 -1.55375 9.91375 -2 9 C-1.67 8.67 -1.34 8.34 -1 8 C-0.76924918 6.65252916 -0.58846937 5.29622435 -0.4375 3.9375 C-0.293125 2.638125 -0.14875 1.33875 0 0 Z " fill="#F6E0E1" transform="translate(158,278)"/>
<path d="M0 0 C0.66 0 1.32 0 2 0 C2 3.96 2 7.92 2 12 C0.68 12.33 -0.64 12.66 -2 13 C-2.05416188 11.39620659 -2.09286638 9.79188594 -2.125 8.1875 C-2.14820312 7.29417969 -2.17140625 6.40085937 -2.1953125 5.48046875 C-2 3 -2 3 0 0 Z " fill="#FCFAF7" transform="translate(130,284)"/>
<path d="M0 0 C0.66 0 1.32 0 2 0 C2.33 10.23 2.66 20.46 3 31 C5.31 31.33 7.62 31.66 10 32 C10 32.33 10 32.66 10 33 C3.84765625 33.87890625 3.84765625 33.87890625 2 34 C0.04901915 32.04901915 0.74584892 28.35325071 0.68359375 25.68359375 C0.66281265 24.95253922 0.64203156 24.22148468 0.62062073 23.46827698 C0.55504976 21.12478344 0.49620568 18.78117461 0.4375 16.4375 C0.39432192 14.85220145 0.35070787 13.26691471 0.30664062 11.68164062 C0.1993608 7.78787963 0.0981151 3.89400228 0 0 Z " fill="#881C28" transform="translate(194,266)"/>
<path d="M0 0 C2.64 0 5.28 0 8 0 C8 1.65 8 3.3 8 5 C7.01 5 6.02 5 5 5 C5.66 5.66 6.32 6.32 7 7 C1.125 6.125 1.125 6.125 0 5 C-0.04063832 3.33382885 -0.042721 1.66611905 0 0 Z " fill="#8F1C26" transform="translate(245,272)"/>
<path d="M0 0 C0.33 0 0.66 0 1 0 C1.33 2.31 1.66 4.62 2 7 C-3.61 6.67 -9.22 6.34 -15 6 C-15 7.98 -15 9.96 -15 12 C-10.71 12 -6.42 12 -2 12 C-2 12.33 -2 12.66 -2 13 C-6.62 13 -11.24 13 -16 13 C-16 10.36 -16 7.72 -16 5 C-10.72 5 -5.44 5 0 5 C0 3.35 0 1.7 0 0 Z " fill="#9C565E" transform="translate(219,266)"/>
<path d="M0 0 C0.33 1.32 0.66 2.64 1 4 C-3.95 4 -8.9 4 -14 4 C-14 3.34 -14 2.68 -14 2 C-9.126739 0.4087311 -5.19209404 -0.21192221 0 0 Z " fill="#FBF6F8" transform="translate(174,266)"/>
<path d="M0 0 C0.33 0 0.66 0 1 0 C1 9.57 1 19.14 1 29 C4.0109362 26.9927092 4.63016497 26.16115776 6 23 C6 25.31 6 27.62 6 30 C4.02 30 2.04 30 0 30 C0 20.1 0 10.2 0 0 Z " fill="#FEE2E5" transform="translate(232,315)"/>
<path d="M0 0 C0.94875 0.04125 1.8975 0.0825 2.875 0.125 C2.875 1.775 2.875 3.425 2.875 5.125 C0.565 5.455 -1.745 5.785 -4.125 6.125 C-4.75 4.25 -4.75 4.25 -5.125 2.125 C-3.125 0.125 -3.125 0.125 0 0 Z " fill="#87313B" transform="translate(190.125,334.875)"/>
<path d="M0 0 C0.99 0.495 0.99 0.495 2 1 C2 1.99 2 2.98 2 4 C5.96 4 9.92 4 14 4 C14.33 4.66 14.66 5.32 15 6 C15.99 4.68 16.98 3.36 18 2 C17.67 4.64 17.34 7.28 17 10 C16.01 10.33 15.02 10.66 14 11 C13.67 9.68 13.34 8.36 13 7 C8.71 6.67 4.42 6.34 0 6 C0 4.02 0 2.04 0 0 Z " fill="#871F2C" transform="translate(134,272)"/>
<path d="M0 0 C1.27875 0.103125 2.5575 0.20625 3.875 0.3125 C4.95394531 0.39951172 4.95394531 0.39951172 6.0546875 0.48828125 C8 1 8 1 10 4 C10 4.99 10 5.98 10 7 C8.02 7 6.04 7 4 7 C4 6.01 4 5.02 4 4 C1.525 3.01 1.525 3.01 -1 2 C-0.67 1.34 -0.34 0.68 0 0 Z " fill="#FCEDEA" transform="translate(281,267)"/>
<path d="M0 0 C-0.33 0.99 -0.66 1.98 -1 3 C-1.99 2.34 -2.98 1.68 -4 1 C-6.22131423 0.6349209 -6.22131423 0.6349209 -8.66796875 0.5859375 C-9.56064453 0.54726563 -10.45332031 0.50859375 -11.37304688 0.46875 C-12.30181641 0.4378125 -13.23058594 0.406875 -14.1875 0.375 C-15.12787109 0.33632813 -16.06824219 0.29765625 -17.03710938 0.2578125 C-19.3578771 0.16356813 -21.67863748 0.07795975 -24 0 C-24 -0.33 -24 -0.66 -24 -1 C-15.93069222 -2.21800872 -7.60841969 -3.46834267 0 0 Z " fill="#9F434C" transform="translate(119,266)"/>
<path d="M0 0 C1.65 0 3.3 0 5 0 C5 0.66 5 1.32 5 2 C5.66 2 6.32 2 7 2 C7.33 3.32 7.66 4.64 8 6 C5.69 6 3.38 6 1 6 C-0.0625 4.125 -0.0625 4.125 -1 2 C-0.67 1.34 -0.34 0.68 0 0 Z " fill="#902935" transform="translate(274,271)"/>
<path d="M0 0 C0 0.33 0 0.66 0 1 C-1.98 1 -3.96 1 -6 1 C-6 1.66 -6 2.32 -6 3 C-6.99 3 -7.98 3 -9 3 C-8.67 4.65 -8.34 6.3 -8 8 C-9.65 8 -11.3 8 -13 8 C-12.51789077 2.45574388 -12.51789077 2.45574388 -10.4375 0.625 C-6.89649716 -0.28294945 -3.65233264 -0.12174442 0 0 Z " fill="#F2D1D2" transform="translate(193,321)"/>
<path d="M0 0 C1.98 0 3.96 0 6 0 C6.33 1.65 6.66 3.3 7 5 C2.545 5.495 2.545 5.495 -2 6 C-1.01 5.67 -0.02 5.34 1 5 C1 4.34 1 3.68 1 3 C0.34 2.67 -0.32 2.34 -1 2 C-0.67 1.34 -0.34 0.68 0 0 Z " fill="#963F49" transform="translate(186,326)"/>
<path d="M0 0 C-0.33 0.66 -0.66 1.32 -1 2 C-3.75078884 2.91692961 -5.35948913 3.10886083 -8.1875 3.0625 C-10.0746875 3.0315625 -10.0746875 3.0315625 -12 3 C-12.33 2.01 -12.66 1.02 -13 0 C-11.58456585 -0.19658808 -10.16755969 -0.38187546 -8.75 -0.5625 C-7.96109375 -0.66691406 -7.1721875 -0.77132813 -6.359375 -0.87890625 C-3.99467126 -1.00027349 -2.2488963 -0.69633257 0 0 Z " fill="#FAFBF7" transform="translate(171,341)"/>
<path d="M0 0 C2.64 0 5.28 0 8 0 C8.66 1.65 9.32 3.3 10 5 C4.06 4.01 4.06 4.01 -2 3 C-2 3.66 -2 4.32 -2 5 C-2.66 4.67 -3.32 4.34 -4 4 C-3.67 3.34 -3.34 2.68 -3 2 C-2.01 2 -1.02 2 0 2 C0 1.34 0 0.68 0 0 Z " fill="#FDF8F8" transform="translate(187,322)"/>
<path d="M0 0 C3.26265612 2.17510408 3.73936409 3.12949953 5.1875 6.625 C5.53167969 7.44226563 5.87585938 8.25953125 6.23046875 9.1015625 C6.48441406 9.72804688 6.73835937 10.35453125 7 11 C6.01 11.495 6.01 11.495 5 12 C1 5.25 1 5.25 1 3 C-1.31 3 -3.62 3 -6 3 C-3 1 -3 1 0 0 Z " fill="#F6DCDF" transform="translate(249,282)"/>
<path d="M0 0 C0.99 0.33 1.98 0.66 3 1 C2.67 4.96 2.34 8.92 2 13 C-1.28976808 14.09658936 -2.71303767 13.79953138 -6 13 C-6 12.67 -6 12.34 -6 12 C-4.02 12 -2.04 12 0 12 C0 8.04 0 4.08 0 0 Z " fill="#953E46" transform="translate(243,285)"/>
<path d="M0 0 C0.33 0 0.66 0 1 0 C1.33 5.28 1.66 10.56 2 16 C1.01 16 0.02 16 -1 16 C-2.79570284 13.33874255 -3.03345719 12.21888938 -2.5390625 8.984375 C-2.23742187 7.91703125 -1.93578125 6.8496875 -1.625 5.75 C-1.32851562 4.67234375 -1.03203125 3.5946875 -0.7265625 2.484375 C-0.48679687 1.66453125 -0.24703125 0.8446875 0 0 Z " fill="#92222C" transform="translate(123,279)"/>
<path d="M0 0 C1.875 0.1875 1.875 0.1875 4 1 C5.25 3.5625 5.25 3.5625 6 6 C3.69 6 1.38 6 -1 6 C-0.67 4.02 -0.34 2.04 0 0 Z " fill="#FBE9E9" transform="translate(247,339)"/>
<path d="M0 0 C1.32 0.33 2.64 0.66 4 1 C3.34 3.31 2.68 5.62 2 8 C0.68 8 -0.64 8 -2 8 C-2 7.34 -2 6.68 -2 6 C-2.66 5.67 -3.32 5.34 -4 5 C-3.01 4.67 -2.02 4.34 -1 4 C-0.26676204 1.98491642 -0.26676204 1.98491642 0 0 Z " fill="#991922" transform="translate(165,272)"/>
<path d="M0 0 C1.79258558 0.08693141 3.58415144 0.19510504 5.375 0.3125 C6.87160156 0.39951172 6.87160156 0.39951172 8.3984375 0.48828125 C9.25695312 0.65714844 10.11546875 0.82601563 11 1 C11.66 1.99 12.32 2.98 13 4 C10.75 5.125 10.75 5.125 8 6 C5.6875 5.125 5.6875 5.125 4 4 C4.33 3.67 4.66 3.34 5 3 C2.525 2.01 2.525 2.01 0 1 C0 0.67 0 0.34 0 0 Z " fill="#972631" transform="translate(160,297)"/>
<path d="M0 0 C0.268125 0.5775 0.53625 1.155 0.8125 1.75 C2.01719859 4.0325868 3.40798115 5.9737942 5 8 C2.23547967 9.38226016 -0.0461363 9.09525387 -3.125 9.0625 C-4.22070312 9.05347656 -5.31640625 9.04445313 -6.4453125 9.03515625 C-7.70988281 9.01775391 -7.70988281 9.01775391 -9 9 C-9 8.67 -9 8.34 -9 8 C-6.69 8 -4.38 8 -2 8 C-1.34 5.36 -0.68 2.72 0 0 Z " fill="#9F454E" transform="translate(266,289)"/>
<path d="M0 0 C0.33 0.66 0.66 1.32 1 2 C0.649375 2.61875 0.29875 3.2375 -0.0625 3.875 C-0.5265625 4.926875 -0.5265625 4.926875 -1 6 C-0.21690533 8.23470405 -0.21690533 8.23470405 1 10 C0.01 10.495 0.01 10.495 -1 11 C-3 10 -3 10 -4.125 6.9375 C-4.41375 5.968125 -4.7025 4.99875 -5 4 C-3.35 2.68 -1.7 1.36 0 0 Z " fill="#F8FCF9" transform="translate(245,326)"/>
<path d="M0 0 C-0.33 0.99 -0.66 1.98 -1 3 C-3.31 3.33 -5.62 3.66 -8 4 C-8.66 3.01 -9.32 2.02 -10 1 C-6.42181037 -1.33958553 -4.07775191 -0.9267618 0 0 Z " fill="#FCF7F6" transform="translate(285,280)"/>
<path d="M0 0 C4.62 0 9.24 0 14 0 C14 0.33 14 0.66 14 1 C8.06 1.495 8.06 1.495 2 2 C4.31 2.66 6.62 3.32 9 4 C9 4.33 9 4.66 9 5 C6.03 5 3.06 5 0 5 C0 3.35 0 1.7 0 0 Z " fill="#FEE9EA" transform="translate(294,266)"/>
<path d="M0 0 C2.64 0 5.28 0 8 0 C8 0.66 8 1.32 8 2 C7.071875 2.061875 6.14375 2.12375 5.1875 2.1875 C1.8109337 2.68827104 1.8109337 2.68827104 0.125 5.5625 C-0.24625 6.366875 -0.6175 7.17125 -1 8 C-2.32 7.67 -3.64 7.34 -5 7 C-4.01 7 -3.02 7 -2 7 C-2 6.34 -2 5.68 -2 5 C-1.34 5 -0.68 5 0 5 C0 3.35 0 1.7 0 0 Z " fill="#84272F" transform="translate(172,284)"/>
<path d="M0 0 C1.65 0 3.3 0 5 0 C5 1.65 5 3.3 5 5 C0.71 5 -3.58 5 -8 5 C-8 4.67 -8 4.34 -8 4 C-3.545 3.505 -3.545 3.505 1 3 C0.67 2.01 0.34 1.02 0 0 Z " fill="#FDEAE5" transform="translate(144,266)"/>
<path d="M0 0 C2.31 0 4.62 0 7 0 C7 1.65 7 3.3 7 5 C4.03 5 1.06 5 -2 5 C-1.01 4.01 -0.02 3.02 1 2 C1.99 2 2.98 2 4 2 C2.68 1.34 1.36 0.68 0 0 Z " fill="#FEEAED" transform="translate(312,266)"/>
<path d="M0 0 C1.7492214 -0.08142927 3.49954542 -0.13938541 5.25 -0.1875 C6.22453125 -0.22230469 7.1990625 -0.25710938 8.203125 -0.29296875 C11.37468742 0.03924798 12.67040307 0.88672279 15 3 C9.47322267 3.19392201 5.24385089 2.7479503 0 1 C0 0.67 0 0.34 0 0 Z " fill="#F6D9DC" transform="translate(273,265)"/>
<path d="M0 0 C1.77049689 -0.05410687 3.54146849 -0.09284119 5.3125 -0.125 C6.29863281 -0.14820313 7.28476562 -0.17140625 8.30078125 -0.1953125 C11 0 11 0 14 2 C9.05 2.33 4.1 2.66 -1 3 C-0.67 2.01 -0.34 1.02 0 0 Z " fill="#87262B" transform="translate(272,263)"/>
<path d="M0 0 C3.08089673 2.77280706 4.68775452 5.06326356 6 9 C5.01 8.67 4.02 8.34 3 8 C1.8125 5.4375 1.8125 5.4375 1 3 C0.67 3 0.34 3 0 3 C-0.33 4.98 -0.66 6.96 -1 9 C-1.33 9 -1.66 9 -2 9 C-2 6.36 -2 3.72 -2 1 C-1.34 0.67 -0.68 0.34 0 0 Z " fill="#91424B" transform="translate(240,336)"/>
<path d="M0 0 C0.78375 0.04125 1.5675 0.0825 2.375 0.125 C-1.375 3.125 -1.375 3.125 -3.625 3.125 C-3.625 8.405 -3.625 13.685 -3.625 19.125 C-3.955 19.125 -4.285 19.125 -4.625 19.125 C-4.67880578 16.33307795 -4.71857669 13.5421859 -4.75 10.75 C-4.76675781 9.9559375 -4.78351563 9.161875 -4.80078125 8.34375 C-4.81835473 6.27007985 -4.72835168 4.19616759 -4.625 2.125 C-2.625 0.125 -2.625 0.125 0 0 Z " fill="#9B565C" transform="translate(215.625,325.875)"/>
<path d="M0 0 C0.66 0.33 1.32 0.66 2 1 C1.34 2.65 0.68 4.3 0 6 C-1.65 5.67 -3.3 5.34 -5 5 C-4.1875 3.0625 -4.1875 3.0625 -3 1 C-2.01 0.67 -1.02 0.34 0 0 Z " fill="#9C1F2A" transform="translate(166,332)"/>
<path d="M0 0 C0.33 0.99 0.66 1.98 1 3 C-3.94367454 4.20577428 -7.20862412 3.6290678 -12 2 C-12 1.67 -12 1.34 -12 1 C-6.06 0.505 -6.06 0.505 0 0 Z " fill="#F2D5D8" transform="translate(255,278)"/>
<path d="M0 0 C0.33 0 0.66 0 1 0 C2.25 6.625 2.25 6.625 0 10 C-2 10 -4 10 -6 10 C-4.4198632 7.84526801 -2.89353366 5.89353366 -1 4 C-0.3574765 1.93125966 -0.3574765 1.93125966 0 0 Z " fill="#95333F" transform="translate(266,272)"/>
<path d="M0 0 C0.99 0 1.98 0 3 0 C3 1.98 3 3.96 3 6 C1.1875 6.6875 1.1875 6.6875 -1 7 C-2.75 5.5625 -2.75 5.5625 -4 4 C-2.68 4.33 -1.36 4.66 0 5 C-0.33 4.01 -0.66 3.02 -1 2 C-0.67 1.34 -0.34 0.68 0 0 Z " fill="#8F3237" transform="translate(253,272)"/>
<path d="M0 0 C0 1.65 0 3.3 0 5 C-2.62113708 5 -4.50935112 4.68707555 -7 4 C-7 3.34 -7 2.68 -7 2 C-4 0 -4 0 0 0 Z " fill="#8B1E24" transform="translate(219,327)"/>
<path d="M0 0 C0 0.99 0 1.98 0 3 C-0.66 3 -1.32 3 -2 3 C-2.33 3.99 -2.66 4.98 -3 6 C-4.32 5.67 -5.64 5.34 -7 5 C-6.67 3.68 -6.34 2.36 -6 1 C-3.92446352 0.4465236 -2.15634036 0 0 0 Z " fill="#961B2A" transform="translate(164,320)"/>
<path d="M0 0 C0.66 0.99 1.32 1.98 2 3 C-1.3 2.34 -4.6 1.68 -8 1 C-8.33 1.99 -8.66 2.98 -9 4 C-9.66 4 -10.32 4 -11 4 C-8.41216357 -1.73020923 -5.98953485 -1.28347175 0 0 Z " fill="#903F45" transform="translate(171,271)"/>
<path d="M0 0 C0 2.64 0 5.28 0 8 C-0.99 7.67 -1.98 7.34 -3 7 C-3.33 5.02 -3.66 3.04 -4 1 C-2 0 -2 0 0 0 Z " fill="#F2D8DE" transform="translate(156,332)"/>
<path d="M0 0 C2.015625 1.17578125 2.015625 1.17578125 4 3 C4.171875 5.48046875 4.171875 5.48046875 3.75 8.1875 C3.62109375 9.08855469 3.4921875 9.98960937 3.359375 10.91796875 C3.24078125 11.60503906 3.1221875 12.29210937 3 13 C2.67 13 2.34 13 2 13 C1.87882813 12.37351562 1.75765625 11.74703125 1.6328125 11.1015625 C1.46523437 10.28429687 1.29765625 9.46703125 1.125 8.625 C0.96257812 7.81289063 0.80015625 7.00078125 0.6328125 6.1640625 C0.13341068 3.81326077 0.13341068 3.81326077 -2 2 C-1.34 2 -0.68 2 0 2 C0 1.34 0 0.68 0 0 Z " fill="#953841" transform="translate(172,312)"/>
<path d="M0 0 C2.76544722 3.45680903 4.84921278 7.14341602 7 11 C6.01 10.67 5.02 10.34 4 10 C4 9.34 4 8.68 4 8 C3.01 7.67 2.02 7.34 1 7 C0.67 6.01 0.34 5.02 0 4 C-0.66 3.34 -1.32 2.68 -2 2 C-1.34 2 -0.68 2 0 2 C0 1.34 0 0.68 0 0 Z " fill="#91333C" transform="translate(249,285)"/>
<path d="M0 0 C1.39195915 4.17587745 -0.17676781 6.13474776 -2 10 C-2.33 10 -2.66 10 -3 10 C-3 7.36 -3 4.72 -3 2 C-2.01 2 -1.02 2 0 2 C0 1.34 0 0.68 0 0 Z " fill="#82212D" transform="translate(266,269)"/>
<path d="M0 0 C1.485 0.99 1.485 0.99 3 2 C3.66 1.67 4.32 1.34 5 1 C5.66 2.98 6.32 4.96 7 7 C4.08482708 5.92598892 2.22189824 5.22189824 0 3 C0 2.01 0 1.02 0 0 Z " fill="#FAE6E2" transform="translate(154,290)"/>
<path d="M0 0 C1.32 0.33 2.64 0.66 4 1 C4 3.31 4 5.62 4 8 C3.01 8 2.02 8 1 8 C0.67 5.36 0.34 2.72 0 0 Z " fill="#F4FCFC" transform="translate(286,282)"/>
<path d="M0 0 C4.7517398 0.43197635 6.92000054 1.32769295 10 5 C9.67 5.66 9.34 6.32 9 7 C5.83884224 5.63016497 5.0072908 5.0109362 3 2 C2.01 1.34 1.02 0.68 0 0 Z " fill="#F8E0E0" transform="translate(111,266)"/>
<path d="M0 0 C0.33 0 0.66 0 1 0 C1 1.65 1 3.3 1 5 C1.66 5 2.32 5 3 5 C3 5.66 3 6.32 3 7 C5.31 7 7.62 7 10 7 C10 7.33 10 7.66 10 8 C6.7 8 3.4 8 0 8 C0 5.36 0 2.72 0 0 Z " fill="#89353F" transform="translate(156,332)"/>
<path d="M0 0 C0.33 1.32 0.66 2.64 1 4 C-3.95 3.67 -8.9 3.34 -14 3 C-14 2.67 -14 2.34 -14 2 C-13.15695313 1.93941406 -12.31390625 1.87882812 -11.4453125 1.81640625 C-10.34960938 1.73261719 -9.25390625 1.64882813 -8.125 1.5625 C-7.03445312 1.48128906 -5.94390625 1.40007812 -4.8203125 1.31640625 C-2.05271029 1.16998297 -2.05271029 1.16998297 0 0 Z " fill="#E6C2C9" transform="translate(170,329)"/>
<path d="M0 0 C1.32 0.33 2.64 0.66 4 1 C4 1.33 4 1.66 4 2 C6.97 2.495 6.97 2.495 10 3 C10 3.33 10 3.66 10 4 C6.7 4 3.4 4 0 4 C0 2.68 0 1.36 0 0 Z " fill="#FEF1F4" transform="translate(204,280)"/>
<path d="M0 0 C-0.8125 1.9375 -0.8125 1.9375 -2 4 C-2.99 4.33 -3.98 4.66 -5 5 C-5 7.31 -5 9.62 -5 12 C-5.33 12 -5.66 12 -6 12 C-6.48979592 4.65306122 -6.48979592 4.65306122 -4.125 1.5 C-2 0 -2 0 0 0 Z " fill="#F7DBD9" transform="translate(273,266)"/>
<path d="M0 0 C1.65 0 3.3 0 5 0 C5 1.32 5 2.64 5 4 C3.68 4.33 2.36 4.66 1 5 C0.67 3.35 0.34 1.7 0 0 Z " fill="#F7F5F1" transform="translate(83,266)"/>
<path d="M0 0 C0.99 0.33 1.98 0.66 3 1 C1.4375 3 1.4375 3 -1 5 C-4.75 5.25 -4.75 5.25 -8 5 C-5.66785852 3.79371992 -3.50357861 2.8345262 -1 2 C-0.67 1.34 -0.34 0.68 0 0 Z " fill="#FCE4E5" transform="translate(171,340)"/>
<path d="M0 0 C3.465 1.485 3.465 1.485 7 3 C7 3.66 7 4.32 7 5 C5.02 5 3.04 5 1 5 C0.34 3.68 -0.32 2.36 -1 1 C-0.67 0.67 -0.34 0.34 0 0 Z " fill="#FEF9FA" transform="translate(162,292)"/>
<path d="M0 0 C2.31 0 4.62 0 7 0 C5.68 0.33 4.36 0.66 3 1 C3.33 2.65 3.66 4.3 4 6 C3.01 6 2.02 6 1 6 C0.67 4.02 0.34 2.04 0 0 Z " fill="#EDC5C4" transform="translate(266,287)"/>
<path d="M0 0 C1.32 0.33 2.64 0.66 4 1 C4 1.66 4 2.32 4 3 C4.66 3 5.32 3 6 3 C6 3.66 6 4.32 6 5 C4.35 5 2.7 5 1 5 C0.67 3.35 0.34 1.7 0 0 Z " fill="#F8FDFC" transform="translate(129,278)"/>
<path d="M0 0 C1.98 0 3.96 0 6 0 C6 0.99 6 1.98 6 3 C4.02 3 2.04 3 0 3 C0 2.01 0 1.02 0 0 Z " fill="#FDEEED" transform="translate(188,331)"/>
<path d="M0 0 C3.375 -0.125 3.375 -0.125 7 0 C7.66 0.66 8.32 1.32 9 2 C4.545 2.495 4.545 2.495 0 3 C0 2.01 0 1.02 0 0 Z " fill="#EECACD" transform="translate(215,321)"/>
<path d="M0 0 C0.33 0 0.66 0 1 0 C1.125 5.75 1.125 5.75 0 8 C-0.66 8 -1.32 8 -2 8 C-2 7.34 -2 6.68 -2 6 C-2.66 6 -3.32 6 -4 6 C-4 4.35 -4 2.7 -4 1 C-3.67 2.32 -3.34 3.64 -3 5 C-2.34 4.67 -1.68 4.34 -1 4 C-0.34786708 1.97536745 -0.34786708 1.97536745 0 0 Z " fill="#9B3C46" transform="translate(151,278)"/>
<path d="M0 0 C2.31 0 4.62 0 7 0 C6.34 1.32 5.68 2.64 5 4 C2.03 3.505 2.03 3.505 -1 3 C-0.67 2.01 -0.34 1.02 0 0 Z " fill="#9F151E" transform="translate(173,279)"/>
<path d="M0 0 C4.29 0 8.58 0 13 0 C13 0.99 13 1.98 13 3 C12.01 3 11.02 3 10 3 C10 2.34 10 1.68 10 1 C6.7 1 3.4 1 0 1 C0 0.67 0 0.34 0 0 Z " fill="#FFEAED" transform="translate(134,279)"/>
<path d="M0 0 C0.66 0 1.32 0 2 0 C2.33 1.32 2.66 2.64 3 4 C2.34 4 1.68 4 1 4 C0.67 4.99 0.34 5.98 0 7 C-0.66 6.34 -1.32 5.68 -2 5 C-1.46428571 1.46428571 -1.46428571 1.46428571 0 0 Z " fill="#8E1F22" transform="translate(263,262)"/>
<path d="M0 0 C0.33 0.66 0.66 1.32 1 2 C-1.40983607 6.70491803 -1.40983607 6.70491803 -4 8 C-3.50168276 4.31245243 -2.89932357 2.39509338 0 0 Z " fill="#96363E" transform="translate(250,325)"/>
<path d="M0 0 C2.64 0 5.28 0 8 0 C8 0.66 8 1.32 8 2 C5.69 2.33 3.38 2.66 1 3 C0.67 2.01 0.34 1.02 0 0 Z " fill="#E7CCD3" transform="translate(163,292)"/>
<path d="M0 0 C1.32 1.32 2.64 2.64 4 4 C3.01 4.495 3.01 4.495 2 5 C-0.03144641 4.06553465 -2.03533587 3.06775224 -4 2 C-2.68 1.34 -1.36 0.68 0 0 Z " fill="#F0D5D3" transform="translate(273,279)"/>
<path d="M0 0 C5.75 -0.125 5.75 -0.125 8 1 C8 2.32 8 3.64 8 5 C7.01 5 6.02 5 5 5 C5 3.68 5 2.36 5 1 C3.35 1 1.7 1 0 1 C0 0.67 0 0.34 0 0 Z " fill="#A5323C" transform="translate(205,345)"/>
<path d="M0 0 C0.33 0.66 0.66 1.32 1 2 C1.66 2 2.32 2 3 2 C3 2.99 3 3.98 3 5 C1.35 5 -0.3 5 -2 5 C-2 4.01 -2 3.02 -2 2 C-1.34 2 -0.68 2 0 2 C0 1.34 0 0.68 0 0 Z " fill="#8B232E" transform="translate(164,321)"/>
<path d="M0 0 C1.65 0.33 3.3 0.66 5 1 C5 1.66 5 2.32 5 3 C3.02 3.33 1.04 3.66 -1 4 C-0.67 2.68 -0.34 1.36 0 0 Z " fill="#FBFCF9" transform="translate(152,315)"/>
<path d="M0 0 C0.33 0 0.66 0 1 0 C1.33 3.96 1.66 7.92 2 12 C0.68 11.34 -0.64 10.68 -2 10 C-1.34 6.7 -0.68 3.4 0 0 Z " fill="#F0C9D0" transform="translate(158,278)"/>
<path d="M0 0 C0.66 0 1.32 0 2 0 C2.33 1.65 2.66 3.3 3 5 C1.68 5 0.36 5 -1 5 C-0.67 3.35 -0.34 1.7 0 0 Z " fill="#F6DDDF" transform="translate(177,270)"/>
<path d="M0 0 C2.31 0.33 4.62 0.66 7 1 C6.67 1.99 6.34 2.98 6 4 C3.69 3.34 1.38 2.68 -1 2 C-0.67 1.34 -0.34 0.68 0 0 Z " fill="#FBFCFD" transform="translate(281,267)"/>
</svg>
