<?xml version="1.0" encoding="UTF-8"?>
<svg version="1.1" xmlns="http://www.w3.org/2000/svg" width="1481" height="1232">
<path d="M0 0 C0.98613281 0.78246094 1.97226563 1.56492187 2.98828125 2.37109375 C18.60045818 15.01314922 32.5620979 29.48106562 44 46 C44.50192871 46.72203613 45.00385742 47.44407227 45.52099609 48.18798828 C83.00621094 102.91856665 91.71705577 170.10791625 91.38672256 234.91859818 C91.37478366 237.42033262 91.36783042 239.92204216 91.36190796 242.42379761 C91.29482451 266.89923441 90.83500069 291.24586671 88.25323486 315.60534668 C87.98847944 318.10894131 87.73375307 320.61343381 87.47998047 323.11816406 C77.72893058 418.31242308 56.41451766 512.00532736 35.56351471 613.51186752 C28.56103745 647.59128044 21.60470133 681.67805666 14.875 715.8125 C14.71811455 716.60738453 14.5612291 717.40226906 14.39958954 718.221241 C13.36450342 723.46582981 12.33331533 728.71117224 11.3046875 733.95703125 C11.16753704 734.65493837 11.03038658 735.3528455 10.88908005 736.07190132 C9.25673784 744.38623158 7.6797131 752.70854986 6.16113281 761.04443359 C5.69718686 763.57002456 5.23259391 766.09549582 4.76788712 768.62094688 C4.33411786 770.998548 3.91191952 773.37800343 3.49020386 775.75776672 C-0.27238676 796.52535793 -0.27238676 796.52535793 -8.0234375 802.84375 C-14.0927763 806.39419325 -20.01616713 806.2859836 -26.83528137 806.26069641 C-27.92844986 806.26452196 -29.02161835 806.26834751 -30.14791316 806.27228898 C-33.81195517 806.28260997 -37.47584022 806.27862846 -41.13989258 806.2746582 C-43.76653692 806.2790052 -46.39317999 806.2841883 -49.01982117 806.29014587 C-55.41489069 806.30288936 -61.80991821 806.30468695 -68.20499829 806.30234561 C-73.40453514 806.30056167 -78.60405926 806.30231372 -83.80359459 806.30657005 C-84.54397996 806.30716524 -85.28436532 806.30776043 -86.04718661 806.30837366 C-87.55136183 806.30958543 -89.05553704 806.31079956 -90.55971225 806.31201603 C-104.66365269 806.3228905 -118.76756922 806.32072969 -132.871511 806.31463119 C-145.76579993 806.30946375 -158.66001326 806.32071305 -171.55428723 806.33972941 C-184.80166317 806.35911634 -198.04900336 806.3673622 -211.29639357 806.36360615 C-218.73072559 806.3616952 -226.1649933 806.36417125 -233.59931374 806.37832069 C-239.92926691 806.39024648 -246.2591162 806.39162611 -252.58907083 806.37953053 C-255.81655528 806.37364978 -259.04381105 806.3741536 -262.27128983 806.38453293 C-265.77562473 806.3949891 -269.27945101 806.38690805 -272.7837677 806.3742218 C-273.79623355 806.38159609 -274.8086994 806.38897037 -275.85184604 806.39656812 C-283.42251133 806.33900313 -290.05514374 805.45404688 -296 800.5 C-300.31746439 795.10316951 -299.34181565 788.58800376 -299 782 C-298.38385554 777.3604337 -297.45370489 772.81246053 -296.47851562 768.23632812 C-296.20353609 766.89987319 -295.92970003 765.56318256 -295.65689468 764.22628212 C-294.91172325 760.59072826 -294.15080988 756.95863037 -293.38716793 753.32691813 C-292.56488008 749.40171615 -291.75783974 745.47337783 -290.94903564 741.54537964 C-289.54854143 734.75356907 -288.13910578 727.96366632 -286.72351074 721.17498779 C-284.47744315 710.40271019 -282.24941181 699.62674408 -280.02441406 688.85009766 C-279.26259299 685.16114664 -278.50066881 681.47221693 -277.7387085 677.78329468 C-277.54862599 676.86296404 -277.35854348 675.94263341 -277.16270089 674.99441397 C-275.79894629 668.39256295 -274.43269698 661.79123097 -273.06549072 655.19009399 C-267.71272127 629.34146574 -262.40682553 603.48358827 -257.140625 577.6171875 C-256.96247379 576.74223979 -256.78432259 575.86729208 -256.60077286 574.9658308 C-254.48982001 564.59797315 -252.38060782 554.2297619 -250.27233315 543.86135936 C-247.5266825 530.35843453 -244.77896973 516.85592982 -242.02930069 503.35382271 C-241.41994539 500.36151136 -240.81087533 497.36914218 -240.20205307 494.37672234 C-237.09109496 479.08715758 -233.9666038 463.80062773 -230.79317856 448.52389145 C-230.34125674 446.34808403 -229.88977457 444.17218582 -229.43841553 441.9962616 C-228.04190926 435.26537829 -226.64164978 428.53533131 -225.23358154 421.80685425 C-219.05528578 392.15388264 -213.68145327 362.19777253 -211 332 C-210.9071875 330.99614258 -210.814375 329.99228516 -210.71875 328.95800781 C-209.89980188 319.05750995 -209.78009666 309.17366964 -209.75976562 299.24365234 C-209.75008652 296.40041535 -209.71896401 293.55791159 -209.6875 290.71484375 C-209.4950603 257.38345746 -216.85365775 225.84643206 -240.375 201.1875 C-245.48393172 196.24199725 -250.79021586 192.43740485 -257 189 C-257.95777344 188.46632813 -258.91554688 187.93265625 -259.90234375 187.3828125 C-294.22008118 169.25438878 -336.15298754 174.68405316 -372 185 C-410.27137755 196.86720217 -444.26237265 220.50415487 -469 252 C-469.79148437 252.98613281 -470.58296875 253.97226562 -471.3984375 254.98828125 C-524.0844146 321.71831219 -540.48525465 407.10308623 -556.44140625 488.390625 C-557.27196156 492.61487525 -558.10395904 496.83883786 -558.9375 501.0625 C-559.15102112 502.14472839 -559.36454224 503.22695679 -559.58453369 504.34197998 C-564.3245031 528.27554563 -569.53948457 552.10294953 -574.75 575.9375 C-580.80996271 603.66663196 -586.84369446 631.39874734 -592.625 659.1875 C-592.77095234 659.88820869 -592.91690468 660.58891739 -593.06727982 661.31085968 C-596.84346335 679.4426871 -600.52993501 697.59180077 -604.16464996 715.75250053 C-604.78265379 718.83906418 -605.40163393 721.92543042 -606.02093506 725.01173401 C-606.43178025 727.05965834 -606.84260792 729.10758619 -607.25341797 731.15551758 C-607.45621368 732.16634683 -607.6590094 733.17717607 -607.86795044 734.21863651 C-609.06764372 740.20367432 -610.25848561 746.19038988 -611.44248676 752.17855072 C-612.1807836 755.90413599 -612.92607028 759.62830031 -613.67297173 763.35216904 C-614.01841557 765.08258971 -614.36083767 766.81361692 -614.69993782 768.5452919 C-619.95833731 795.37955877 -619.95833731 795.37955877 -628 802 C-634.94027016 805.77771155 -641.3785111 806.57659682 -649.16444397 806.50120544 C-650.24469595 806.50673984 -651.32494793 806.51227424 -652.43793482 806.51797634 C-656.03446401 806.5315197 -659.63029164 806.51664734 -663.22680664 806.50170898 C-665.81463413 806.50549441 -668.40245959 806.51099629 -670.99028015 806.51808167 C-677.27523891 806.53197326 -683.55999597 806.52448854 -689.84494502 806.50940608 C-697.17153128 806.4924969 -704.49806799 806.49576238 -711.82466774 806.49950016 C-724.90081196 806.50537116 -737.97685972 806.49123654 -751.05297852 806.46655273 C-763.72781997 806.44262927 -776.4025326 806.43555136 -789.07739258 806.44604492 C-802.89668403 806.45746554 -816.71591598 806.45937045 -830.53520674 806.44494683 C-832.00995123 806.44342106 -833.48469573 806.44190071 -834.95944023 806.44038582 C-835.68494906 806.439628 -836.41045788 806.43887019 -837.15795182 806.43808941 C-842.25942973 806.43335581 -847.36088098 806.43519142 -852.46235847 806.43945122 C-859.33330475 806.44490482 -866.20406997 806.43409211 -873.0749836 806.41249657 C-875.59485778 806.40693763 -878.11474911 806.40645517 -880.63462448 806.41144943 C-884.07745969 806.41741667 -887.5197532 806.4048687 -890.96253967 806.38768005 C-891.95671325 806.3936901 -892.95088683 806.39970014 -893.97518688 806.40589231 C-901.13501658 806.34101089 -908.18281964 805.74675085 -913.5 800.5625 C-918.83137293 791.45473791 -915.63448999 779.55676489 -913.63671875 769.86328125 C-913.36852649 768.52506189 -913.10103245 767.18670246 -912.83415222 765.84822083 C-911.90748168 761.2283967 -910.95460126 756.61412031 -910 752 C-909.64080461 750.25844392 -909.28161281 748.51688709 -908.92242432 746.77532959 C-906.39568341 734.54284821 -903.8329342 722.31798281 -901.26373291 710.09436035 C-898.97324416 699.19665174 -896.6917695 688.2970534 -894.40940857 677.39764023 C-893.59889412 673.527198 -892.78815501 669.65680287 -891.97741699 665.78640747 C-885.83238151 636.4466767 -879.72211238 607.09972383 -873.625 577.75 C-873.48414443 577.07199309 -873.34328886 576.39398619 -873.19816494 575.69543362 C-861.92561388 521.43345744 -850.77221876 467.14739443 -839.67308044 412.84967041 C-836.28892509 396.2951017 -832.89798966 379.74193515 -829.50231361 363.18972588 C-817.7207297 305.75843355 -805.99860515 248.31534083 -794.3526125 190.85639334 C-793.87635164 188.50666858 -793.40004528 186.15695305 -792.92372894 183.80723953 C-786.19260091 150.60107803 -779.47470999 117.3923048 -772.79866028 84.17502213 C-771.95133098 79.95920284 -771.10346091 75.74349242 -770.25549316 71.52780151 C-769.70628258 68.79718344 -769.15709516 66.06656072 -768.60791016 63.3359375 C-768.47407094 62.67051131 -768.34023173 62.00508511 -768.20233679 61.31949449 C-766.52289522 52.96907153 -764.84723343 44.61790011 -763.17538166 36.26595402 C-762.23362663 31.56490031 -761.28885696 26.86445586 -760.34336662 22.16415215 C-759.91440334 20.02819001 -759.48672652 17.89196896 -759.06054878 15.7554493 C-757.74507788 9.16203865 -756.39728977 2.57657472 -755 -4 C-754.7997887 -4.94828297 -754.59957741 -5.89656593 -754.3932991 -6.87358475 C-753.78628335 -9.70905051 -753.15683909 -12.53858098 -752.51977539 -15.36743164 C-752.34124496 -16.20576507 -752.16271452 -17.04409849 -751.97877407 -17.90783596 C-750.37084853 -24.8500489 -747.71216823 -31.21452993 -742.6875 -36.375 C-729.30619464 -44.46602185 -710.61316229 -42.19224762 -695.38827133 -42.56998253 C-692.12222719 -42.65112674 -688.85629276 -42.73588562 -685.59036255 -42.82148743 C-680.89316698 -42.94436426 -676.19594259 -43.06602524 -671.49868774 -43.18661499 C-625.88876869 -44.35667244 -625.88876869 -44.35667244 -580.2890625 -45.86328125 C-579.33669268 -45.89821182 -578.38432285 -45.9331424 -577.40309334 -45.96913147 C-568.53416181 -46.29553822 -559.66569279 -46.63187535 -550.79790974 -46.98814774 C-535.16032785 -47.61380383 -519.52448305 -48.14321166 -503.87352562 -48.25153542 C-502.33944399 -48.26338112 -500.80539056 -48.27999715 -499.27141762 -48.30176353 C-497.15751282 -48.32959676 -495.04448715 -48.33727071 -492.93041992 -48.33911133 C-491.73301682 -48.34646805 -490.53561371 -48.35382477 -489.30192566 -48.36140442 C-484.71886788 -47.85977673 -481.30272784 -46.43749279 -478.1875 -43 C-473.88795052 -35.7586535 -476.31920204 -27.5837259 -478.24609375 -19.96484375 C-478.75127003 -17.89140908 -479.25622203 -15.81791976 -479.76098633 -13.74438477 C-480.16965439 -12.08694748 -480.16965439 -12.08694748 -480.58657837 -10.39602661 C-486.98512805 15.61054501 -492.71373058 41.74916415 -498.3125 67.9375 C-498.50465466 68.83562031 -498.69680931 69.73374062 -498.89478683 70.65907669 C-501.27215386 81.77081633 -503.64114984 92.88431459 -506 104 C-503.14153993 101.17097124 -500.28905016 98.33599221 -497.4375 95.5 C-496.63763672 94.70851563 -495.83777344 93.91703125 -495.01367188 93.1015625 C-490.64469851 88.75042168 -486.43308761 84.33567028 -482.43521118 79.63993835 C-480.56725116 77.50552125 -478.52719741 75.65669742 -476.375 73.8125 C-472.20825537 70.14754321 -468.27147846 66.32092188 -464.375 62.375 C-460.35367661 58.31187853 -456.30552842 54.36750949 -451.9453125 50.6640625 C-449.64767068 48.69860986 -447.42126877 46.66270129 -445.1875 44.625 C-439.93819023 39.89423907 -434.50376055 35.43002948 -429 31 C-427.86686303 30.07461592 -426.73406551 29.14881607 -425.6015625 28.22265625 C-405.02017825 11.47224579 -383.14046302 -3.04325314 -360 -16 C-359.26652344 -16.41604492 -358.53304687 -16.83208984 -357.77734375 -17.26074219 C-273.91391442 -64.5558157 -171.75862631 -72.33128123 0 0 Z " fill="#9A383A" transform="translate(1390,425)"/>
<path d="M0 0 C1.62179803 0.0489699 3.24360228 0.09773403 4.86541176 0.1463232 C6.14832253 0.18794687 6.14832253 0.18794687 7.4571507 0.23041141 C24.3706784 0.76768065 41.2749719 0.98041955 58.19644165 0.96165466 C59.77230392 0.95999587 59.77230392 0.95999587 61.38000178 0.95830357 C66.86410203 0.95108868 72.34817902 0.93918918 77.83226395 0.92446709 C84.85285195 0.90572243 91.87343551 0.89646384 98.89404297 0.8885498 C118.81761906 0.86471462 138.74116273 0.8281787 158.66470337 0.78392029 C169.75391867 0.75936885 180.84312252 0.74201838 191.93236101 0.7323609 C198.90652731 0.72584841 205.88059619 0.71036352 212.85472894 0.68804348 C217.17187241 0.67630962 221.48899239 0.67294619 225.80615044 0.67194557 C227.80240369 0.66980143 229.79865673 0.66422122 231.79488945 0.65491486 C234.52246052 0.6426894 237.24976555 0.64288763 239.97735596 0.64608765 C240.76195808 0.63957984 241.5465602 0.63307204 242.35493815 0.62636703 C250.5312531 0.66360405 256.91765577 1.97852308 262.81900024 7.87986755 C267.21397954 21.06480544 261.64079416 37.22918156 258.88150024 50.25486755 C258.30355587 53.02796402 257.72999717 55.80196393 257.15615845 58.57591248 C255.82615284 64.99315245 254.4851654 71.40803317 253.13833618 77.82176208 C250.81973458 88.86450765 248.51852521 99.91084779 246.21928978 110.95763969 C245.00946718 116.77024856 243.79915961 122.58275642 242.58877563 128.39524841 C242.33896848 129.59491399 242.08916132 130.79457956 241.83178425 132.03059864 C239.9890652 140.87866528 238.14357551 149.72615184 236.29727173 158.57347107 C227.45813964 200.93516187 218.68843999 243.31103608 209.94400024 285.69236755 C209.77463943 286.5131866 209.60527862 287.33400564 209.43078566 288.17969799 C205.35164991 307.94973394 201.27448609 327.72017628 197.19834888 347.49083066 C194.89286673 358.67312088 192.58644907 369.85521761 190.27896118 381.03709412 C190.1375861 381.72219047 189.99621102 382.40728683 189.85055184 383.11314368 C189.56702103 384.48711927 189.28349004 385.86109483 188.99995887 387.23507035 C188.8606127 387.91033481 188.72126653 388.58559927 188.57769775 389.28132629 C188.43903357 389.95328533 188.30036938 390.62524437 188.15750325 391.3175658 C173.04200093 464.56746396 157.97770657 537.8278814 105.1022656 796.57913768 C104.13355073 801.33552443 103.16475263 806.09189422 102.19589233 810.84825134 C95.06459432 845.85763759 87.93909995 880.86820214 80.81900024 915.87986755 C80.57774918 917.06615501 80.33649811 918.25244247 80.0879364 919.47467804 C76.76858015 935.79686974 73.44993004 952.11920491 70.13189697 968.44166565 C69.0950303 973.54233302 68.05805879 978.64297905 67.02099609 983.74360657 C61.30721686 1011.84643745 55.60004236 1039.95058234 49.90786684 1068.05779648 C48.83063592 1073.37685877 47.75298075 1078.69583497 46.67504883 1084.01475525 C46.52361927 1084.76197468 46.37218971 1085.50919411 46.21617138 1086.27905655 C45.6075728 1089.28210407 44.99896163 1092.28514904 44.39029717 1095.28818321 C42.76903617 1103.28723093 41.14859179 1111.28644166 39.53103638 1119.28623962 C36.42591209 1134.64122432 33.30642378 1149.99312642 30.15756226 1165.33921814 C29.29949552 1169.52371891 28.44835243 1173.70950073 27.60543823 1177.89707947 C26.71801904 1182.3053141 25.81559073 1186.71015364 24.89915657 1191.11244583 C24.58598274 1192.62978691 24.27835225 1194.14828664 23.9772625 1195.66807175 C21.67108976 1207.28380898 18.60722408 1218.94315804 8.89321899 1226.5478363 C1.06290383 1231.57634378 -7.47358385 1232.08066031 -16.59945679 1231.76316833 C-18.36481355 1231.71439299 -20.13018528 1231.66615778 -21.89556885 1231.61836243 C-22.84930264 1231.59081753 -23.80303642 1231.56327263 -24.78567123 1231.53489304 C-61.03063958 1230.52093122 -97.29323619 1230.72818155 -133.5485909 1230.7513001 C-140.17378702 1230.75507595 -146.79896824 1230.7537072 -153.42416382 1230.74949646 C-164.52800926 1230.74254006 -175.63184086 1230.74149583 -186.73568726 1230.74705505 C-188.06894688 1230.74760407 -188.06894688 1230.74760407 -189.42914104 1230.74816418 C-212.05983803 1230.75936315 -234.68204569 1230.81224151 -257.2991333 1231.70625305 C-277.85897889 1232.45812126 -277.85897889 1232.45812126 -284.18099976 1226.87986755 C-289.31488923 1220.45826983 -288.81869823 1212.70255233 -288.18099976 1204.87986755 C-287.42046045 1199.06332282 -286.10343971 1193.34664108 -284.84506226 1187.62205505 C-284.48282626 1185.92309944 -284.12191524 1184.22386089 -283.76220703 1182.52436829 C-282.98772228 1178.87740784 -282.20470768 1175.2324257 -281.41500854 1171.58872986 C-280.16629007 1165.82373607 -278.94081686 1160.05395238 -277.71908569 1154.28318787 C-275.96075806 1145.98672003 -274.19419467 1137.69205478 -272.42025757 1129.39891052 C-259.84200809 1070.59359587 -247.45063863 1011.75028757 -235.18099976 952.87986755 C-234.93254051 951.6878196 -234.68408127 950.49577164 -234.42809296 949.26760101 C-222.95564626 894.22171704 -211.53110007 839.16595565 -200.18099976 784.0947113 C-200.01167828 783.27316716 -199.84235681 782.45162302 -199.66790438 781.6051836 C-196.7171648 767.2880309 -193.76717482 752.97072371 -190.81746674 738.65335846 C-180.75504103 689.81283957 -170.64211736 640.98321476 -160.45782375 592.16796112 C-157.82858644 579.5655247 -155.19964715 566.96302614 -152.57162476 554.3603363 C-152.41913694 553.62909719 -152.26664912 552.89785808 -152.10954046 552.1444602 C-141.80178378 502.71267796 -131.5852103 453.2619918 -121.36749482 403.81153458 C-117.15514653 383.4251839 -112.93783046 363.03986703 -108.71699858 342.65527117 C-96.55523924 283.91898052 -84.40691375 225.18045844 -72.45914078 166.40019608 C-71.7500538 162.91210772 -71.04058929 159.42409636 -70.33099365 155.93611145 C-66.25299789 135.89032724 -62.17682805 115.84421161 -58.14094448 95.78989983 C-56.63811152 88.32346265 -55.12889611 80.85833559 -53.61468601 73.39419746 C-52.60215411 68.40052916 -51.59827161 63.40524272 -50.60203457 58.40829945 C-50.00199976 55.40980384 -49.39332052 52.41311171 -48.78218651 49.41686058 C-48.38109105 47.43758491 -47.99027854 45.45623364 -47.60002136 43.47479248 C-44.85945051 30.13684797 -41.54730035 14.83236015 -29.86849976 6.50486755 C-20.51023633 0.83652343 -10.79176414 -0.40639483 0 0 Z " fill="#9A383B" transform="translate(288.1809997558594,0.1201324462890625)"/>
</svg>
