<?xml version="1.0" encoding="UTF-8"?>
<svg version="1.1" xmlns="http://www.w3.org/2000/svg" width="1472" height="1602">
<path d="M0 0 C4.62277885 4.14456035 7.47318987 8.7737266 10.5625 14.125 C11.62444395 15.92948022 12.68829468 17.73283946 13.75390625 19.53515625 C14.29289551 20.44797363 14.83188477 21.36079102 15.38720703 22.30126953 C17.85595859 26.43229886 20.41913598 30.50085411 23 34.5625 C23.74165405 35.73063232 23.74165405 35.73063232 24.49829102 36.92236328 C25.49823497 38.4956778 26.49880329 40.06859567 27.5 41.64111328 C30.00974681 45.5879189 32.50406712 49.54445012 35 53.5 C35.99992652 55.08337974 36.99992651 56.66671308 38 58.25 C44 67.75000001 44 67.75000001 45.49951172 70.12426758 C46.50109035 71.71007325 47.50271808 73.29584791 48.50439453 74.8815918 C50.98064184 78.80184757 53.45607701 82.72261107 55.9296875 86.64453125 C60.62533497 94.08744095 65.33058934 101.52383692 70.06274414 108.94360352 C77.4793356 120.57400276 84.80747039 132.25766138 92.10449219 143.96337891 C93.99529753 146.9924666 95.89131803 150.0182244 97.7890625 153.04296875 C105.66904091 165.608147 113.44401902 178.23182379 121.12841797 190.91748047 C123.12173231 194.20049467 125.12461232 197.47759163 127.12890625 200.75390625 C144.01289538 228.37753309 160.08037433 256.46977914 175.5 284.9375 C176.02924072 285.91428711 176.55848145 286.89107422 177.10375977 287.89746094 C179.93336246 293.13387678 182.73343411 298.38439382 185.50390625 303.65234375 C196.60792206 324.6853553 208.77666143 343.53537396 225 361 C225.90105469 361.99966797 225.90105469 361.99966797 226.8203125 363.01953125 C251.00163999 388.71873427 287.78011898 399.94987673 322.22265625 401.10839844 C325.87837338 401.1716067 329.53123235 401.18957258 333.1875 401.1875 C333.86285797 401.18789276 334.53821594 401.18828552 335.23403931 401.18869019 C348.79526051 401.17946713 362.31320979 400.56913686 375.8503418 399.79956055 C400.856917 398.38281081 425.89543953 397.74463893 450.9375 397.375 C451.68534004 397.36380379 452.43318008 397.35260757 453.20368195 397.34107208 C501.86491677 396.62688156 550.53377245 397.31629717 599.19463253 397.79747868 C600.57376541 397.81111462 601.95289832 397.82474803 603.33203125 397.83837891 C604.01535306 397.84513291 604.69867487 397.85188692 605.4027034 397.85884559 C621.57042699 398.0182651 637.73831563 398.15689038 653.90625 398.29296875 C655.28211087 398.30457038 656.65797172 398.31617467 658.03383255 398.32778168 C663.40831503 398.37310889 668.78279792 398.41838687 674.15728188 398.46353912 C687.78977632 398.57820188 701.42223428 398.69695673 715.0546875 398.81640625 C717.21350097 398.835302 719.37231445 398.85419748 721.53112793 398.87309265 C726.35408589 398.91532662 731.17704318 398.95763599 736 399 C735.25347386 402.2282754 734.19665445 404.65103694 732.5078125 407.515625 C731.97760498 408.42022461 731.44739746 409.32482422 730.90112305 410.25683594 C730.31500244 411.24458008 729.72888184 412.23232422 729.125 413.25 C728.50858643 414.29704102 727.89217285 415.34408203 727.25708008 416.42285156 C725.54253655 419.33138045 723.82312127 422.23691896 722.10125732 425.14111328 C720.9826514 427.02928388 719.86623517 428.91873245 718.75048828 430.80859375 C704.41312855 455.09128772 689.8216104 479.21050529 675.01879883 503.21240234 C670.14489757 511.12104202 665.31398961 519.05483553 660.5 527 C654.3823352 537.09679224 648.21705589 547.1628798 642.01953125 557.2109375 C637.1456473 565.12022658 632.31429842 573.05438594 627.5 581 C621.31226372 591.21215678 615.07885245 601.39496256 608.81079102 611.55810547 C604.49211228 618.56387903 600.2058164 625.58845299 595.9375 632.625 C590.61394533 641.39480426 585.20345409 650.10703519 579.75244141 658.7980957 C575.06473332 666.27795248 570.42962754 673.78890332 565.8125 681.3125 C559.75772612 691.17313175 553.63072895 700.98365532 547.42675781 710.75097656 C545.48208743 713.8163947 543.54618313 716.88731071 541.60986328 719.95800781 C537.31617235 726.76635298 533.00748963 733.56488723 528.68115234 740.35253906 C526.89709056 743.15282635 525.11625307 745.95514241 523.3359375 748.7578125 C521.2695728 752.01035797 519.19216226 755.25517674 517.1015625 758.4921875 C506.85598444 774.4487232 497.92438517 791.11070193 502 810.5625 C505.88433186 824.62521999 513.50083536 836.81583454 521.55126953 848.81982422 C523.98901782 852.48836015 526.33922619 856.21127758 528.6875 859.9375 C529.42311157 861.10285278 529.42311157 861.10285278 530.17358398 862.29174805 C535.12967153 870.16623683 539.99493286 878.09640645 544.86157227 886.02636719 C549.41240417 893.43693472 554.00431966 900.82031618 558.625 908.1875 C564.04006535 916.82689435 569.37917858 925.50891754 574.66723633 934.2265625 C579.01911606 941.39880091 583.40876283 948.54700129 587.8125 955.6875 C593.38626976 964.73071212 598.92806104 973.79251575 604.4375 982.875 C604.78929321 983.45492706 605.14108643 984.03485413 605.50354004 984.63235474 C608.36140072 989.34429623 611.21717697 994.05750018 614.07287598 998.77075195 C616.56844675 1002.88942355 619.06483726 1007.00759665 621.5625 1011.125 C622.09071854 1011.99581207 622.09071854 1011.99581207 622.62960815 1012.88421631 C628.37166197 1022.34734731 634.16304123 1031.77953345 639.97412109 1041.20043945 C644.91423814 1049.21642105 649.8084583 1057.2592888 654.6875 1065.3125 C661.21259887 1076.0807512 667.80104693 1086.80766245 674.44824219 1097.50097656 C676.0234234 1100.03772213 677.59442064 1102.57701109 679.1640625 1105.1171875 C684.94162368 1114.46684461 690.73981417 1123.80337095 696.5625 1133.125 C697.19148193 1134.13272461 697.82046387 1135.14044922 698.46850586 1136.17871094 C701.40200567 1140.87200637 704.34793647 1145.55602684 707.3359375 1150.21484375 C727.99259711 1182.45712559 727.99259711 1182.45712559 726 1195 C722.72523708 1199.80980804 718.44027125 1201.55764766 713 1203 C704.06677631 1204.50646827 694.90387102 1204.11531188 685.87763977 1204.0688324 C684.13903511 1204.0637002 682.40042905 1204.05902701 680.66182202 1204.05477101 C675.90188707 1204.04183554 671.14199614 1204.02253648 666.38208783 1204.00220454 C661.24151801 1203.98139702 656.1009306 1203.96659636 650.96034241 1203.95114136 C642.05638205 1203.92364154 633.1524397 1203.89261418 624.24849892 1203.85940361 C611.35864589 1203.8115107 598.46877718 1203.77124302 585.57889166 1203.7332176 C564.64316022 1203.67144018 543.70743986 1203.60657808 522.77172852 1203.53833008 C521.51927875 1203.53424934 520.26682899 1203.5301686 518.97642621 1203.52596421 C501.20788725 1203.46792811 483.43935999 1203.40686089 465.67083546 1203.34458346 C464.41990165 1203.34019953 463.16896784 1203.3358156 461.88012695 1203.33129883 C460.6307231 1203.3269183 459.38131925 1203.32253778 458.09405468 1203.31802451 C437.24156714 1203.24511909 416.38906381 1203.18010689 395.53653115 1203.1215263 C382.68396347 1203.08510339 369.83145178 1203.04205765 356.97893604 1202.99042512 C348.1672182 1202.95554437 339.35549682 1202.92806365 330.54373679 1202.90634065 C325.46442818 1202.89357813 320.38518741 1202.87751078 315.30592346 1202.85242271 C310.64801688 1202.82947908 305.9901805 1202.81610731 301.33222225 1202.81005729 C299.65526823 1202.80623223 297.97831742 1202.79900859 296.30139605 1202.78786724 C273.6612584 1202.64251605 253.99541193 1205.68589184 236.421875 1221.2890625 C227.92024346 1229.92781713 222.13321129 1240.64161899 216 1251 C215.27943102 1252.21209062 214.5585534 1253.4239978 213.83740234 1254.63574219 C210.65133761 1259.99016347 207.46875098 1265.34662196 204.2956543 1270.70874023 C196.98940036 1283.05216492 189.55815409 1295.3168223 182.09277344 1307.56445312 C178.90963654 1312.78796701 175.73715552 1318.01795206 172.56369019 1323.24734497 C170.79680955 1326.15865531 169.02921558 1329.06953249 167.26171875 1331.98046875 C164.38892592 1336.71199867 161.51660758 1341.44381638 158.64453125 1346.17578125 C155.09746363 1352.01978089 151.5493482 1357.86314328 148.00048828 1363.70605469 C146.70172142 1365.8445661 145.4032042 1367.98322915 144.10498047 1370.12207031 C137.41608566 1381.14096568 130.69235924 1392.13619824 123.89355469 1403.08764648 C119.89382803 1409.537236 115.93910915 1416.01323804 112 1422.5 C107.04811482 1430.65295931 102.05700142 1438.78004444 97.02856445 1446.88598633 C92.73339606 1453.81074439 88.45675353 1460.74673655 84.1875 1467.6875 C83.51605957 1468.77909424 82.84461914 1469.87068848 82.15283203 1470.99536133 C80.78459668 1473.22000824 79.41643296 1475.44469921 78.04833984 1477.66943359 C74.03617472 1484.19314713 70.0215248 1490.71533179 66.00732422 1497.23779297 C62.63555555 1502.71660767 59.26442116 1508.19581073 55.89453125 1513.67578125 C54.53390689 1515.88805326 53.17323014 1518.10029305 51.8125 1520.3125 C51.14621582 1521.39571533 50.47993164 1522.47893066 49.79345703 1523.5949707 C45.66687794 1530.30053483 41.52553895 1536.99674743 37.375 1543.6875 C32.87946592 1550.93596795 28.42845881 1558.21037596 24 1565.5 C22.25480891 1568.36835317 20.50900117 1571.2363293 18.76269531 1574.10400391 C17.56817979 1576.06651681 16.37485694 1578.02975606 15.18261719 1579.99365234 C13.41907464 1582.89510198 11.64796091 1585.79179848 9.875 1588.6875 C9.34261719 1589.56664062 8.81023438 1590.44578125 8.26171875 1591.3515625 C7.76027344 1592.16753906 7.25882813 1592.98351563 6.7421875 1593.82421875 C6.3076123 1594.53666748 5.87303711 1595.24911621 5.42529297 1595.9831543 C3.82423977 1598.24870765 2.00711457 1600.09123136 0 1602 C-7.47122045 1590.10764932 -14.90985701 1578.19950163 -22.1875 1566.1875 C-26.81997873 1558.54403899 -31.52614609 1550.95531561 -36.32104492 1543.4128418 C-40.61252341 1536.64830792 -44.81079526 1529.82824091 -49 1523 C-54.15683527 1514.59635852 -59.35714676 1506.22447678 -64.6394043 1497.89916992 C-68.78824544 1491.3541542 -72.86960568 1484.76874354 -76.94091797 1478.17529297 C-81.04077812 1471.5392121 -85.17179499 1464.92315607 -89.3125 1458.3125 C-101.45981166 1438.9038233 -113.40739459 1419.37299127 -125.29541016 1399.8046875 C-127.55873986 1396.08066406 -129.82556813 1392.35877648 -132.0925293 1388.63696289 C-133.83346117 1385.77807846 -135.57306253 1382.91838763 -137.3125 1380.05859375 C-139.89150971 1375.81896358 -142.47590193 1371.58266051 -145.0625 1367.34765625 C-154.54999302 1351.79943717 -163.84391323 1336.14680658 -173.01269531 1320.40869141 C-174.8767337 1317.21143049 -176.74587083 1314.01722378 -178.6171875 1310.82421875 C-183.83423123 1301.91424445 -189.01832872 1292.98776825 -194.11801147 1284.01013184 C-208.23997187 1258.73867807 -208.23997187 1258.73867807 -226 1236 C-226.70745361 1235.21882813 -226.70745361 1235.21882813 -227.42919922 1234.421875 C-247.59098755 1212.35519708 -274.26107144 1203.90713409 -303.4679451 1202.13320541 C-315.05750953 1201.6961248 -326.6906584 1202.31309574 -338.27588081 1202.69350243 C-347.79696753 1203.00291253 -357.31993844 1203.2424769 -366.84326172 1203.47119141 C-367.87091412 1203.4959048 -368.89856652 1203.52061819 -369.95735991 1203.54608047 C-397.57426434 1204.19430466 -425.19313619 1204.22405708 -452.81640625 1204.23046875 C-454.77438684 1204.23104208 -454.77438684 1204.23104208 -456.77192259 1204.23162699 C-472.25983974 1204.23497889 -487.74771922 1204.22301785 -503.23562221 1204.20319296 C-513.45599543 1204.19020486 -523.67634726 1204.18472368 -533.89672852 1204.18530273 C-601.26999427 1204.18829016 -668.63237724 1203.92033742 -736 1203 C-734.80493669 1199.31120505 -733.64101069 1196.08093945 -731.55859375 1192.8046875 C-731.06649414 1192.02150146 -730.57439453 1191.23831543 -730.06738281 1190.43139648 C-729.52952148 1189.58778564 -728.99166016 1188.7441748 -728.4375 1187.875 C-727.25265791 1185.98906495 -726.06913164 1184.10230278 -724.88671875 1182.21484375 C-724.25556152 1181.20921387 -723.6244043 1180.20358398 -722.97412109 1179.16748047 C-719.51709703 1173.62067981 -716.13527596 1168.02823469 -712.75 1162.4375 C-712.02952698 1161.24890123 -711.30898613 1160.06034358 -710.58837891 1158.87182617 C-709.1260662 1156.45971398 -707.66419927 1154.04733242 -706.20263672 1151.63476562 C-702.93416024 1146.24023147 -699.6606712 1140.84874027 -696.38708496 1135.45730591 C-695.31298738 1133.68830271 -694.23901064 1131.91922619 -693.16503906 1130.15014648 C-688.21889805 1122.00343171 -683.2650851 1113.86141012 -678.30786133 1105.72143555 C-673.69872258 1098.15157671 -669.0984346 1090.57636322 -664.5 1083 C-658.13669409 1072.51608614 -651.76597887 1062.03671579 -645.38671875 1051.5625 C-643.11635504 1047.83462693 -640.84828463 1044.10537318 -638.58203125 1040.375 C-631.81820403 1029.24506385 -625.01402625 1018.14101176 -618.17895508 1007.0546875 C-613.18912586 998.95288953 -608.24299991 990.8254861 -603.3125 982.6875 C-597.36151638 972.86650333 -591.35924531 963.07929325 -585.30078125 953.32421875 C-582.23954105 948.39330587 -579.19978026 943.44936459 -576.16210938 938.50390625 C-568.45356464 925.95442499 -560.67905694 913.44795038 -552.85888672 900.96777344 C-549.11122246 894.98450488 -545.37150392 888.99626458 -541.63134766 883.00830078 C-538.47451458 877.95522428 -535.31355074 872.90481922 -532.14453125 867.859375 C-529.0082552 862.86385752 -525.88482319 857.86054835 -522.77246094 852.85009766 C-521.60977425 850.98051027 -520.44386506 849.11292228 -519.27441406 847.24755859 C-510.78621839 833.68279756 -502.65576189 820.2730348 -501 804 C-500.9175 803.30261719 -500.835 802.60523438 -500.75 801.88671875 C-499.23488185 776.74522693 -519.17283964 752.29227224 -532.09033203 732.53442383 C-537.32689218 724.52479318 -542.43678941 716.43863048 -547.52929688 708.33691406 C-548.97965592 706.03232629 -550.4342708 703.73049065 -551.890625 701.4296875 C-564.73220615 681.14193007 -577.41153709 660.75641334 -589.97509766 640.29541016 C-592.00557468 636.99092753 -594.03932529 633.68848334 -596.07421875 630.38671875 C-602.98769531 619.16780875 -609.8761733 607.93461823 -616.71801758 596.671875 C-621.05639254 589.53567341 -625.42942399 582.42131642 -629.8125 575.3125 C-637.55267976 562.75402322 -645.21356961 550.14855052 -652.85888672 537.53222656 C-656.04880458 532.26881666 -659.24384534 527.0085172 -662.43850708 521.74798584 C-664.20921519 518.83211834 -665.97959074 515.91604895 -667.75 513 C-668.45833174 511.83333237 -669.16666507 510.6666657 -669.875 509.5 C-671.29166667 507.16666667 -672.70833333 504.83333333 -674.125 502.5 C-674.47560486 501.92254532 -674.82620972 501.34509064 -675.18743896 500.75013733 C-675.89601928 499.58303933 -676.60455604 498.41591488 -677.31304932 497.24876404 C-679.07974826 494.33847878 -680.84719282 491.4286516 -682.61621094 488.51977539 C-685.85396867 483.19408859 -689.08524401 477.86487421 -692.28999329 472.51924133 C-694.10639465 469.48982401 -695.9271892 466.46306437 -697.75 463.4375 C-698.10341461 462.85048309 -698.45682922 462.26346619 -698.82095337 461.65866089 C-703.37118058 454.11795908 -708.12203669 446.76841383 -713.1875 439.5625 C-720.99621001 428.41024558 -727.05968517 417.2801274 -727.01416016 403.33691406 C-727.01211578 402.52514709 -727.01007141 401.71338013 -727.00796509 400.87701416 C-727.00533661 400.25759949 -727.00270813 399.63818481 -727 399 C-654.83125963 398.32634737 -582.66286936 397.87716167 -510.49085015 397.82062757 C-504.32753674 397.81538288 -498.16424774 397.80488621 -492.00094604 397.79199219 C-443.41696042 397.69415773 -394.92514769 398.53915642 -346.36927414 400.15381241 C-342.41925751 400.28474805 -338.46909352 400.4101628 -334.51879966 400.53243411 C-333.02110064 400.57971009 -331.52345739 400.62879669 -330.02588475 400.6799196 C-293.77655001 401.91409664 -261.34155009 395.53450273 -233 372 C-232.43539063 371.55914062 -231.87078125 371.11828125 -231.2890625 370.6640625 C-226.95111508 367.24419919 -223.48900646 363.25049596 -220 359 C-219.2471875 358.08476562 -218.494375 357.16953125 -217.71875 356.2265625 C-205.03364876 340.2899005 -195.70884394 322.18809171 -185.95849609 304.3846283 C-156.22835777 250.15377317 -123.68877923 197.36086156 -90.85888672 144.96777344 C-87.73535596 139.98095443 -84.61800825 134.99027306 -81.5 130 C-80.25002926 127.99998172 -79.00002926 125.99998171 -77.75 124 C-76.821875 122.515 -76.821875 122.515 -75.875 121 C-55.25 88 -55.25 88 -53.37524414 85.00048828 C-52.12431331 82.99893381 -50.87349965 80.99730611 -49.62280273 78.99560547 C-46.51299731 74.01878404 -43.40121669 69.04322032 -40.28515625 64.0703125 C-33.7501489 53.63608695 -27.25411117 43.17968102 -20.8125 32.6875 C-15.93540947 24.74563914 -11.03460598 16.82029182 -6.0625 8.9375 C-5.56016846 8.13981201 -5.05783691 7.34212402 -4.5402832 6.52026367 C-1.12575313 1.12575313 -1.12575313 1.12575313 0 0 Z M-2 215 C-10.20138847 228.47922495 -18.39488443 241.96258076 -26.5 255.5 C-31.76305528 264.28831588 -37.05575638 273.05811982 -42.375 281.8125 C-42.72850525 282.39432037 -43.0820105 282.97614075 -43.44622803 283.57559204 C-46.32406195 288.3114847 -49.20362496 293.04632542 -52.08325195 297.78112793 C-54.59797113 301.9160974 -57.11201475 306.0514765 -59.625 310.1875 C-59.97866638 310.76956207 -60.33233276 311.35162415 -60.69671631 311.95132446 C-66.27332589 321.13178413 -71.80877976 330.33646099 -77.32763672 339.55175781 C-82.10902088 347.52959287 -86.92200095 355.48782627 -91.75 363.4375 C-92.10818817 364.02745758 -92.46637634 364.61741516 -92.8354187 365.22525024 C-96.38427057 371.06931916 -99.93988515 376.90909963 -103.51953125 382.734375 C-104.03999023 383.58201416 -104.56044922 384.42965332 -105.09667969 385.30297852 C-106.04706803 386.84902165 -106.99942273 388.39385841 -107.95410156 389.93725586 C-110.05291991 392.78035429 -110.05291991 392.78035429 -111 396 C-38.07 396 34.86 396 110 396 C106.17962136 388.9959725 102.35491242 382.17449928 98.125 375.4375 C96.98008779 373.60049779 95.83557523 371.76324646 94.69140625 369.92578125 C94.09215332 368.96494629 93.49290039 368.00411133 92.87548828 367.01416016 C89.58674565 361.72871151 86.32450073 356.42698068 83.0625 351.125 C82.38872314 350.03026367 81.71494629 348.93552734 81.02075195 347.80761719 C76.01365225 339.66515221 71.04073726 331.50229748 66.07836914 323.33251953 C61.72239189 316.1682546 57.3162446 309.0362128 52.89379883 301.9128418 C48.2951544 294.49722305 43.75944261 287.04424765 39.23046875 279.5859375 C34.82901529 272.34452183 30.37837232 265.13487674 25.90771484 257.93603516 C21.19988012 250.34585265 16.55513045 242.71799532 11.93164062 235.07617188 C9.0525524 230.32790152 6.15058633 225.59384662 3.2109375 220.8828125 C2.6442334 219.97160645 2.0775293 219.06040039 1.49365234 218.12158203 C0.17224494 215.88866035 0.17224494 215.88866035 -2 215 Z M-537 510 C-531.96674204 518.80820144 -526.91070553 527.51756083 -521.5625 536.125 C-520.15680572 538.39798112 -518.75169622 540.67131041 -517.34765625 542.9453125 C-516.81121994 543.81364716 -516.81121994 543.81364716 -516.26394653 544.69952393 C-512.30684421 551.11131538 -508.40300791 557.55519387 -504.5 564 C-499.03455694 573.02154198 -493.53733577 582.02230769 -488 591 C-482.10037813 600.56506741 -476.25082782 610.1590798 -470.42724609 619.77050781 C-464.67524517 629.26196446 -458.87374811 638.72185652 -453.04589844 648.16699219 C-449.4632417 653.97925268 -445.89866004 659.80188519 -442.359375 665.640625 C-441.9730188 666.27794556 -441.5866626 666.91526611 -441.18859863 667.57189941 C-439.31743332 670.65982376 -437.44844661 673.74904628 -435.58203125 676.83984375 C-434.91042969 677.94972656 -434.23882812 679.05960938 -433.546875 680.203125 C-432.95745117 681.17926758 -432.36802734 682.15541016 -431.76074219 683.16113281 C-429.90368231 686.15529425 -427.96941479 689.07886361 -426 692 C-423.23913488 689.50998256 -421.49529396 686.74422178 -419.5859375 683.56640625 C-418.91626953 682.45716797 -418.24660156 681.34792969 -417.55664062 680.20507812 C-416.82939267 678.99090603 -416.10218012 677.77671273 -415.375 676.5625 C-414.61439137 675.29985355 -413.85331573 674.03748831 -413.09179688 672.77539062 C-411.50957885 670.15229191 -409.92938077 667.52799242 -408.35058594 664.90283203 C-405.09941763 659.50030757 -401.82393989 654.11259243 -398.54840088 648.724823 C-396.78109443 645.81726076 -395.01564854 642.9085692 -393.25 640 C-392.54167542 638.83332802 -391.8333421 637.66666135 -391.125 636.5 C-390.774375 635.9225 -390.42375 635.345 -390.0625 634.75 C-389 633 -387.9375 631.25 -386.875 629.5 C-386.52440018 628.92254028 -386.17380035 628.34508057 -385.81257629 627.75012207 C-385.10399289 626.58304592 -384.39540525 625.41597236 -383.68681335 624.24890137 C-381.91977124 621.33852084 -380.15280216 618.42809603 -378.38598633 615.51757812 C-375.15332415 610.19250205 -371.92004793 604.86780267 -368.68417358 599.54467773 C-361.62601809 587.93368108 -354.57710101 576.31783949 -347.59863281 564.65869141 C-343.23835696 557.38120452 -338.84078248 550.12650775 -334.4375 542.875 C-334.07399445 542.27618011 -333.71048889 541.67736023 -333.33596802 541.06039429 C-329.72609447 535.11458367 -326.11056755 529.17241927 -322.46875 523.24609375 C-321.69059937 521.97886475 -321.69059937 521.97886475 -320.89672852 520.68603516 C-319.94874876 519.14408113 -318.99882485 517.60332005 -318.04663086 516.06396484 C-315.94738754 513.22025507 -315.94738754 513.22025507 -315 510 C-388.26 510 -461.52 510 -537 510 Z M-190.85546875 528.10546875 C-194.96672295 532.79247012 -198.29846874 537.76311244 -201.5625 543.0625 C-202.45304077 544.4848999 -202.45304077 544.4848999 -203.36157227 545.93603516 C-204.6148585 547.93991499 -205.86439749 549.94614288 -207.11035156 551.95458984 C-208.96907422 554.95015915 -210.83819104 557.93896289 -212.7109375 560.92578125 C-215.84592871 565.9282692 -218.97235618 570.93603609 -222.09570312 575.94580078 C-231.20916508 590.56239168 -240.34515827 605.16402331 -249.55712891 619.71875 C-251.01248433 622.01973833 -252.46559118 624.32213105 -253.91796875 626.625 C-256.94160178 631.41901677 -259.96941076 636.2103778 -263 641 C-263.81573486 642.28946533 -263.81573486 642.28946533 -264.64794922 643.60498047 C-273.64516206 657.81616255 -282.76867878 671.93987763 -292 686 C-292.51016663 686.77738525 -293.02033325 687.55477051 -293.54595947 688.35571289 C-319.79864546 728.35597988 -319.79864546 728.35597988 -330.6875 744.3125 C-331.35225342 745.28719238 -332.01700684 746.26188477 -332.7019043 747.26611328 C-335.46505681 751.31046427 -338.23975903 755.34626119 -341.03125 759.37109375 C-351.11095059 774.01065889 -359.67974533 790.2024126 -356.37890625 808.4296875 C-353.03081301 822.74464613 -345.91460368 834.16886299 -337.14453125 845.7890625 C-304.9250746 888.59095299 -276.55538788 934.85362867 -252.0625 982.4375 C-234.73559199 1016.02328427 -215.83464029 1050.26282035 -183 1071 C-182.42926758 1071.36174316 -181.85853516 1071.72348633 -181.27050781 1072.09619141 C-137.82878495 1099.18295093 -87.02444573 1096.3422166 -38.27246094 1091.0534668 C14.61368467 1085.36779332 68.30899294 1087.90321392 121.30078125 1090.55078125 C129.55747859 1090.95877465 137.79433245 1091.21302664 146.0625 1091.25 C147.25037109 1091.270625 148.43824219 1091.29125 149.66210938 1091.3125 C165.72253068 1091.38297908 178.84447825 1086.78457245 190.5546875 1075.625 C200.17583838 1065.2968636 206.91677921 1052.64217146 214.07421875 1040.57421875 C217.79846404 1034.30807222 221.62536134 1028.11154767 225.5 1021.9375 C226.11834717 1020.95217285 226.73669434 1019.9668457 227.3737793 1018.95166016 C228.62359828 1016.96203291 229.87400435 1014.97277433 231.125 1012.98388672 C234.25969335 1007.99531613 237.37894116 1002.99710736 240.5 998 C241.75127278 995.99867959 243.00257485 993.9973775 244.25390625 991.99609375 C246.74457947 988.01140567 249.2312211 984.02424236 251.71484375 980.03515625 C260.0349391 966.68039257 268.4682364 953.4024061 276.97070312 940.16308594 C279.0206281 936.96784677 281.06578563 933.76960697 283.109375 930.5703125 C290.81823909 918.50278415 298.56604624 906.46238695 306.39013672 894.46923828 C307.99287062 892.01093518 309.59246357 889.5506141 311.19140625 887.08984375 C317.33021758 877.65147697 323.50073829 868.23527033 329.7109375 858.84375 C330.92110931 857.01199468 332.13123255 855.18020726 333.34130859 853.34838867 C335.15535691 850.60233147 336.97047762 847.85701921 338.78936768 845.11416626 C355.91230573 821.21560865 355.91230573 821.21560865 360 793 C357.09400215 780.06139053 348.3171171 768.76111634 341.01052856 757.93133545 C338.80498003 754.66143154 336.61220833 751.38296739 334.41796875 748.10546875 C333.96816147 747.43416931 333.51835419 746.76286987 333.05491638 746.07122803 C328.34508321 739.03573566 323.6966334 731.96051173 319.0625 724.875 C318.66481415 724.26701569 318.2671283 723.65903137 317.85739136 723.03262329 C315.23572674 719.02340043 312.61749704 715.01194471 310 711 C309.39607422 710.07541992 308.79214844 709.15083984 308.16992188 708.19824219 C300.98366316 697.19402331 293.8770711 686.14019099 286.80004883 675.06542969 C283.0506186 669.19895579 279.28960626 663.34059628 275.5 657.5 C259.97385079 633.56004136 244.68963324 609.46098497 229.46777344 585.32666016 C226.98016644 581.38339756 224.48995129 577.44178256 222 573.5 C218.41412057 567.82289635 214.82884995 562.14541004 211.24536133 556.46679688 C210.21625425 554.83725638 209.18616181 553.20833772 208.1550293 551.58007812 C206.08714728 548.31417278 204.02802337 545.04571656 202.0078125 541.75 C193.49328343 527.93841367 183.97355671 516.78993678 168 512 C159.25865404 510.20264546 150.68761799 509.71168777 141.78660583 509.74603271 C140.52214742 509.74291273 139.25768901 509.73979275 137.95491368 509.73657823 C134.48432922 509.72831106 131.01385626 509.7323182 127.54327166 509.73855066 C123.78521867 509.74310758 120.02718381 509.73607548 116.26913452 509.73059082 C108.9228397 509.72172977 101.5765859 509.72360403 94.23028951 509.7294161 C88.25672893 509.73394524 82.2831798 509.7345401 76.309618 509.73236847 C75.45725742 509.732062 74.60489684 509.73175554 73.72670715 509.73143978 C71.99480286 509.73080029 70.26289858 509.73015186 68.5309943 509.7294946 C52.317633 509.72380103 36.10429438 509.73033408 19.8909368 509.74109533 C5.99734822 509.75003157 -7.89620694 509.74847631 -21.78979492 509.73925781 C-37.94935863 509.72854074 -54.10890251 509.72434857 -70.26846927 509.73048234 C-71.99345743 509.7311194 -73.7184456 509.73174814 -75.44343376 509.73236847 C-76.29202045 509.73267702 -77.14060714 509.73298557 -78.01490857 509.73330347 C-83.97762643 509.73502598 -89.94033166 509.73212494 -95.90304756 509.72740936 C-103.17475457 509.72178462 -110.44641842 509.72335046 -117.71812052 509.73397085 C-121.42393425 509.73920592 -125.12967618 509.74132146 -128.83548927 509.73467255 C-132.86158444 509.72755853 -136.88750031 509.73608629 -140.91358948 509.74603271 C-142.07207085 509.74157127 -143.23055222 509.73710983 -144.42413908 509.73251319 C-162.82186626 509.82036278 -178.25101015 514.16832372 -190.85546875 528.10546875 Z M314 513 C315.56502977 516.91257443 317.08467277 519.97351055 319.2734375 523.5078125 C319.92707275 524.56693848 320.58070801 525.62606445 321.25415039 526.71728516 C321.9609516 527.85328261 322.66790504 528.98918537 323.375 530.125 C324.10497905 531.30372342 324.83471292 532.48259871 325.56420898 533.66162109 C330.64797843 541.86800311 335.78818123 550.03839758 340.95703125 558.19140625 C349.81018983 572.16348036 358.53295965 586.2167234 367.1875 600.3125 C372.71417248 609.31326989 378.30235684 618.27066172 383.95703125 627.19140625 C394.29035055 643.49947323 404.43795681 659.92251994 414.5390625 676.375 C417.33747884 680.93063249 420.1585485 685.47109647 423 690 C426.85975386 688.71341538 427.30028026 687.33195621 429.37109375 683.8828125 C430.02150635 682.8107959 430.67191895 681.7387793 431.34204102 680.63427734 C432.04053005 679.46451984 432.73901631 678.29476069 433.4375 677.125 C434.52596174 675.32466395 435.61755418 673.52624941 436.70915222 671.72781372 C437.44066089 670.52195586 438.1711371 669.31547109 438.90058899 668.10836792 C441.89342386 663.1575374 444.95724099 658.25584119 448.0625 653.375 C452.50603332 646.37079929 456.91879374 639.34807383 461.3125 632.3125 C461.94293213 631.30300293 462.57336426 630.29350586 463.22290039 629.25341797 C464.5076015 627.19587228 465.79218745 625.13825468 467.07666016 623.08056641 C470.21589223 618.05253513 473.35807151 613.02634659 476.5 608 C477.75001464 606.00000915 479.00001462 604.00000914 480.25 602 C502.75 566 502.75 566 504.62719727 562.99658203 C505.86999023 561.00804849 507.1126671 559.01944239 508.35522461 557.03076172 C511.58951614 551.85470635 514.82616129 546.6801434 518.06640625 541.5078125 C518.73542969 540.43917969 519.40445312 539.37054687 520.09375 538.26953125 C521.36252487 536.24301583 522.63200232 534.21694003 523.90234375 532.19140625 C530.92717878 523.02406226 530.92717878 523.02406226 535 513 C462.07 513 389.14 513 314 513 Z M423 906 C422.72551025 906.48952148 422.45102051 906.97904297 422.16821289 907.48339844 C415.9110644 918.61005743 409.46881538 929.60729446 402.8125 940.5 C396.83856038 950.27701125 390.96368694 960.10481284 385.1875 970 C380.08484493 978.73924719 374.95453962 987.45876278 369.73046875 996.1262207 C365.01341928 1003.95864676 360.35074874 1011.82297914 355.6875 1019.6875 C349.92113311 1029.41121642 344.1373516 1039.12366885 338.3125 1048.8125 C335.8737254 1052.87423611 333.43659097 1056.93695364 331 1061 C330.64494385 1061.59155884 330.2898877 1062.18311768 329.92407227 1062.79260254 C327.66294574 1066.5604083 325.40663431 1070.33102938 323.15634155 1074.10531616 C322.43185145 1075.31883658 321.70581693 1076.53143639 320.97817993 1077.74307251 C319.97223873 1079.41870838 318.97229731 1081.09794177 317.97265625 1082.77734375 C317.39781494 1083.73890381 316.82297363 1084.70046387 316.23071289 1085.69116211 C314.84320345 1087.85809145 314.84320345 1087.85809145 315 1090 C388.26 1090 461.52 1090 537 1090 C533.14336119 1082.92949552 529.27304313 1076.04947988 525 1069.25 C523.8533761 1067.41195127 522.70757183 1065.57339104 521.5625 1063.734375 C520.97597656 1062.79271484 520.38945313 1061.85105469 519.78515625 1060.88085938 C516.82623673 1056.10579779 513.91377538 1051.30269443 511 1046.5 C506.53424883 1039.14508053 502.03852945 1031.81023478 497.5 1024.5 C492.36201255 1016.22421486 487.28640905 1007.91205552 482.23046875 999.5859375 C478.35159442 993.20428617 474.43905613 986.84465975 470.5 980.5 C465.96146722 973.18975986 461.46626728 965.8546096 457 958.5 C450.92200601 948.49610948 444.79868435 938.52167987 438.60986328 928.5859375 C437.50488797 926.81100596 436.40179651 925.03490067 435.30029297 923.2578125 C433.64277321 920.58533988 431.97857966 917.91714238 430.3125 915.25 C429.80702637 914.43305664 429.30155273 913.61611328 428.78076172 912.77441406 C428.31299316 912.02901367 427.84522461 911.28361328 427.36328125 910.515625 C426.95376221 909.85852539 426.54424316 909.20142578 426.12231445 908.52441406 C425.06123843 906.84098071 425.06123843 906.84098071 423 906 Z M-426 908 C-427.34554008 909.97605886 -428.61882002 911.96712345 -429.875 914 C-430.51344849 915.02637573 -430.51344849 915.02637573 -431.16479492 916.07348633 C-436.41861916 924.58398336 -441.48167602 933.20996201 -446.57269287 941.81835938 C-451.46937123 950.09648892 -456.39798945 958.34607156 -461.5 966.5 C-466.90970866 975.14855358 -472.12231114 983.9063171 -477.3125 992.6875 C-483.74423697 1003.56904234 -490.27493726 1014.37619895 -496.93408203 1025.12060547 C-502.70956968 1034.46639457 -508.31567319 1043.90810512 -513.90127563 1053.3682251 C-519.58462621 1062.99228805 -525.35427446 1072.54795113 -531.34448242 1081.9855957 C-531.83279541 1082.7612085 -532.3211084 1083.53682129 -532.82421875 1084.3359375 C-533.24791748 1085.00157715 -533.67161621 1085.6672168 -534.1081543 1086.35302734 C-535.15872465 1087.98096021 -535.15872465 1087.98096021 -535 1090 C-462.4 1090 -389.8 1090 -315 1090 C-318.30467288 1083.36189636 -318.30467288 1083.36189636 -321.9609375 1076.99609375 C-322.7804187 1075.65671753 -322.7804187 1075.65671753 -323.61645508 1074.2902832 C-324.1967749 1073.34886475 -324.77709473 1072.40744629 -325.375 1071.4375 C-326.63679562 1069.37765125 -327.89851223 1067.31775411 -329.16015625 1065.2578125 C-329.80098145 1064.21399414 -330.44180664 1063.17017578 -331.10205078 1062.09472656 C-334.01734032 1057.3411621 -336.91486561 1052.57683944 -339.8125 1047.8125 C-340.38145996 1046.87784912 -340.95041992 1045.94319824 -341.53662109 1044.98022461 C-346.56104846 1036.72600689 -351.57551797 1028.465754 -356.5894165 1020.20513916 C-363.15023869 1009.39619658 -369.72164214 998.59372406 -376.29833984 987.79443359 C-379.19959437 983.03004919 -382.09973207 978.26498502 -385 973.5 C-386.16666151 971.58333019 -387.33332817 969.66666352 -388.5 967.75 C-395.5 956.25 -395.5 956.25 -397.25219727 953.37133789 C-398.41147767 951.46684049 -399.57081949 949.56238047 -400.73022461 947.65795898 C-403.76042202 942.68041726 -406.78934872 937.70210819 -409.81640625 932.72265625 C-410.44353516 931.69140625 -411.07066406 930.66015625 -411.71679688 929.59765625 C-412.90990344 927.63565878 -414.10263758 925.67343476 -415.29492188 923.7109375 C-416.85962187 921.13837025 -418.42916554 918.56882463 -420 916 C-420.73065674 914.79512939 -420.73065674 914.79512939 -421.47607422 913.56591797 C-422.62319834 911.69347298 -423.80743627 909.84383723 -425 908 C-425.33 908 -425.66 908 -426 908 Z M-111 1206 C-109.50391364 1209.74021591 -108.15892382 1212.55953747 -106.05078125 1215.89453125 C-105.16144897 1217.30871338 -105.16144897 1217.30871338 -104.25415039 1218.75146484 C-103.61340576 1219.76160645 -102.97266113 1220.77174805 -102.3125 1221.8125 C-100.94263538 1223.98823532 -99.57284575 1226.16401786 -98.203125 1228.33984375 C-97.50251953 1229.44956543 -96.80191406 1230.55928711 -96.08007812 1231.70263672 C-92.89473286 1236.75208193 -89.72730353 1241.81266251 -86.5625 1246.875 C-85.94955078 1247.8546875 -85.33660156 1248.834375 -84.70507812 1249.84375 C-79.3513901 1258.41187922 -74.06220774 1267.0190612 -68.77636719 1275.62915039 C-64.35612495 1282.82042799 -59.88201732 1289.974528 -55.35986328 1297.10205078 C-51.76436466 1302.77397719 -48.21638511 1308.47391468 -44.6875 1314.1875 C-40.02102396 1321.74241332 -35.33353872 1329.28372369 -30.625 1336.8125 C-29.69324951 1338.30233398 -29.69324951 1338.30233398 -28.74267578 1339.82226562 C-26.82878923 1342.8817225 -24.91446622 1345.94090583 -23 1349 C-6.53456821 1375.31086606 -6.53456821 1375.31086606 0 1386 C2.69859135 1382.72783405 5.08074102 1379.42581828 7.29296875 1375.80859375 C7.91421631 1374.79619629 8.53546387 1373.78379883 9.17553711 1372.74072266 C9.83948486 1371.65065918 10.50343262 1370.5605957 11.1875 1369.4375 C11.89632559 1368.27898714 12.6053965 1367.12062434 13.31469727 1365.96240234 C15.54852914 1362.31154917 17.77495663 1358.65621415 20 1355 C20.35505615 1354.41684021 20.7101123 1353.83368042 21.07592773 1353.23284912 C26.39532524 1344.49545968 31.69926306 1335.74871886 37 1327 C39.85310815 1322.29102437 42.70689946 1317.58246471 45.5625 1312.875 C45.91464569 1312.29445862 46.26679138 1311.71391724 46.62960815 1311.11578369 C52.37472563 1301.64760366 58.17021488 1292.2110231 63.98291016 1282.78417969 C70.61833166 1272.0144428 77.18143856 1261.20134352 83.73698425 1250.38290405 C86.36873676 1246.040028 89.00389703 1241.69923184 91.640625 1237.359375 C92.21448692 1236.41473892 92.21448692 1236.41473892 92.79994202 1235.45101929 C95.77466959 1230.55432983 95.77466959 1230.55432983 97.25509644 1228.1182251 C99.50612685 1224.41380006 101.75355564 1220.70720734 104 1217 C104.90032959 1215.52128418 104.90032959 1215.52128418 105.81884766 1214.01269531 C106.36976074 1213.10358398 106.92067383 1212.19447266 107.48828125 1211.2578125 C107.97466064 1210.45746582 108.46104004 1209.65711914 108.9621582 1208.83251953 C110.08213366 1207.20597671 110.08213366 1207.20597671 110 1206 C37.07 1206 -35.86 1206 -111 1206 Z " fill="#853A92" transform="translate(736,0)"/>
<path d="M0 0 C22.92769468 19.51107563 39.31440563 47.20527343 43.17504883 77.32568359 C43.47150408 82.41232377 43.49999811 87.48143827 43.48754883 92.57568359 C43.50366211 93.87892578 43.51977539 95.18216797 43.53637695 96.52490234 C43.55227158 128.60026499 28.81372937 157.3004017 6.66821289 179.85546875 C-1.62437519 188.02060371 -10.63808755 194.66889615 -20.82495117 200.32568359 C-21.42645996 200.66196777 -22.02796875 200.99825195 -22.64770508 201.34472656 C-51.7631797 217.4076562 -86.41492789 222.08713269 -118.82495117 214.32568359 C-119.51669434 214.16471191 -120.2084375 214.00374023 -120.92114258 213.83789062 C-143.51566644 208.39701639 -162.66204741 196.73270352 -179.82495117 181.32568359 C-180.62803711 180.60767578 -181.43112305 179.88966797 -182.25854492 179.14990234 C-202.62164698 159.87573623 -216.71251928 130.6138008 -217.94897461 102.50634766 C-218.28594915 88.84015786 -218.42897979 75.58440676 -214.82495117 62.32568359 C-214.5078418 61.12814453 -214.19073242 59.93060547 -213.86401367 58.69677734 C-204.55336624 27.56223645 -181.9855668 1.14032338 -153.82495117 -14.67431641 C-104.016867 -41.48980449 -43.7749368 -36.15353046 0 0 Z " fill="#853A93" transform="translate(810.824951171875,707.67431640625)"/>
</svg>
