<?xml version="1.0" encoding="UTF-8"?>
<svg version="1.1" xmlns="http://www.w3.org/2000/svg" width="1480" height="1273">
<path d="M0 0 C1.90794342 0.00090637 1.90794342 0.00090637 3.85443115 0.00183105 C24.94395176 0.02890234 45.9163684 0.46108806 66.9375 2.1875 C67.71258911 2.25066406 68.48767822 2.31382813 69.28625488 2.37890625 C156.00779546 9.53590014 241.98006257 28.94908892 354.9375 77.1875 C356.0399707 77.69812988 357.14244141 78.20875977 358.27832031 78.73486328 C373.15209109 85.663929 387.63517283 93.14937039 401.9375 101.1875 C402.79762695 101.66654785 403.65775391 102.1455957 404.54394531 102.63916016 C443.52943782 124.3672119 481.12570597 149.56394655 515.00390625 178.6875 C517.73361025 181.01374575 520.51058751 183.26176153 523.3125 185.5 C529.15441833 190.2502898 534.60116983 195.39007085 540.06640625 200.5625 C542.87849842 203.21993999 545.74698966 205.80280062 548.640625 208.37109375 C554.13044652 213.2958096 559.35860278 218.45699961 564.5612793 223.6809082 C566.1302236 225.25524155 567.70448558 226.82411589 569.27929688 228.39257812 C574.16938571 233.27944511 578.96353894 238.20660129 583.45922852 243.46411133 C585.6724114 246.04426954 587.9955758 248.51261141 590.3125 251 C594.55060701 255.59309375 598.59350193 260.30020222 602.51171875 265.171875 C604.29109865 267.38392216 606.08380553 269.57956839 607.89453125 271.765625 C630.05485793 298.5930766 649.99798928 327.78601918 666.9375 358.1875 C667.49840332 359.19264648 668.05930664 360.19779297 668.63720703 361.23339844 C713.44542235 442.01405871 739.56795039 532.16157343 721.2265625 785.45703125 C711.44603589 819.06180588 699.1034017 851.63836669 683.9375 883.1875 C683.2573584 884.61352539 683.2573584 884.61352539 682.56347656 886.06835938 C675.45706098 900.90410498 667.4177581 915.09810258 658.9375 929.1875 C658.39867187 930.08855469 657.85984375 930.98960937 657.3046875 931.91796875 C645.53977754 951.53581122 632.52562784 970.28715943 618.41943359 988.29248047 C616.98503712 990.126712 615.56333555 991.97009977 614.14453125 993.81640625 C605.33331042 1005.230044 595.85673701 1016.06706747 586.1574707 1026.73217773 C584.80043183 1028.23308392 583.45186028 1029.74177193 582.1184082 1031.26367188 C575.39749295 1038.89259063 568.22355997 1046.05320024 561.02612305 1053.22924805 C558.87237478 1055.37761866 556.72404774 1057.53130694 554.57617188 1059.68554688 C553.18521646 1061.07584168 551.79395097 1062.46582636 550.40234375 1063.85546875 C549.77190659 1064.48793015 549.14146942 1065.12039154 548.4919281 1065.77201843 C544.67897541 1069.56530037 540.75031947 1073.17313579 536.67721558 1076.68589783 C534.4552149 1078.60377515 532.29129341 1080.58210567 530.125 1082.5625 C525.8830915 1086.38664478 521.53198903 1090.03639455 517.08984375 1093.625 C514.74890119 1095.51770913 512.43500788 1097.44000175 510.12890625 1099.375 C499.709868 1108.09420702 488.98292858 1116.27872661 477.9375 1124.1875 C477.1237793 1124.77031738 476.31005859 1125.35313477 475.47167969 1125.95361328 C449.69055353 1144.34767001 422.85760374 1161.22213681 394.9375 1176.1875 C394.1017041 1176.63625488 393.2659082 1177.08500977 392.40478516 1177.54736328 C323.18733539 1214.54530063 249.1722646 1241.06780585 57.96365356 1272.04675293 C56.01546058 1272.18208446 54.06812274 1272.32955976 52.12084961 1272.47753906 C35.82471262 1273.62417771 19.45309292 1273.43341775 3.125 1273.4375 C2.31531139 1273.43794186 1.50562279 1273.43838371 0.67139816 1273.43883896 C-26.3410658 1273.44655605 -53.16307797 1272.86974908 -80.0625 1270.1875 C-81.35827972 1270.06021515 -81.35827972 1270.06021515 -82.68023682 1269.93035889 C-165.16216774 1261.76125832 -246.32917604 1241.9980826 -463.0625 1133.1875 C-464.23695481 1132.36194452 -465.41143379 1131.53642341 -466.5859375 1130.7109375 C-483.59044833 1118.70635284 -500.27874554 1106.17402009 -516.01074219 1092.53613281 C-519.59672769 1089.42854899 -523.23644226 1086.40855601 -526.9375 1083.4375 C-530.84768822 1080.26583928 -534.45299472 1076.95629947 -537.91796875 1073.3046875 C-539.68361905 1071.56155005 -541.47028992 1069.98132579 -543.359375 1068.37890625 C-549.56540336 1062.98921537 -555.2989797 1057.09969871 -561.09887695 1051.28149414 C-563.12014268 1049.2548702 -565.14669574 1047.23364453 -567.17382812 1045.21289062 C-573.3504319 1039.03947233 -579.422441 1032.86144968 -585.0625 1026.1875 C-586.68217817 1024.41179779 -588.30661718 1022.64041693 -589.9375 1020.875 C-594.8582178 1015.47258543 -599.49042553 1009.88581141 -604.0625 1004.1875 C-604.97475289 1003.06729484 -605.88753803 1001.94752295 -606.80078125 1000.828125 C-614.89585483 990.86296973 -622.55670849 980.60211743 -630.0625 970.1875 C-630.95702881 968.94661621 -630.95702881 968.94661621 -631.86962891 967.68066406 C-639.652892 956.83585791 -646.99193541 945.81909192 -653.79199219 934.33154297 C-655.02076933 932.25792251 -656.26277061 930.19279105 -657.5078125 928.12890625 C-702.52543041 853.08746348 -729.30342739 770.44344454 -739.25 637.4375 C-739.24939575 636.55353546 -739.2487915 635.66957092 -739.24816895 634.75881958 C-739.15458069 583.79602034 -731.9645802 533.20847814 -718.0625 484.1875 C-717.75231934 483.08615723 -717.44213867 481.98481445 -717.12255859 480.85009766 C-709.10476045 452.74328439 -698.34158794 425.6826828 -686.0625 399.1875 C-685.63227539 398.24874023 -685.20205078 397.30998047 -684.75878906 396.34277344 C-665.22036847 353.77311546 -639.513109 313.59038391 -610.0625 277.1875 C-609.50916992 276.50268555 -608.95583984 275.81787109 -608.38574219 275.11230469 C-601.85739031 267.05550378 -595.25100874 259.12467665 -588.20703125 251.51171875 C-586.36717937 249.51770806 -584.58041393 247.49494822 -582.8125 245.4375 C-574.14667705 235.50497903 -564.98987477 226.02164978 -555.6875 216.6875 C-554.95104248 215.9464502 -554.21458496 215.20540039 -553.45581055 214.44189453 C-549.40748003 210.40496776 -545.26434654 206.5453408 -540.93359375 202.81347656 C-538.13840938 200.38446718 -535.45053532 197.84553052 -532.75 195.3125 C-527.92667577 190.82560543 -522.98094022 186.56460987 -517.83984375 182.44140625 C-515.41471241 180.47333201 -513.04488511 178.45461764 -510.68505859 176.40917969 C-502.32186805 169.18987468 -493.48468398 162.63204667 -484.6015625 156.07080078 C-482.21318312 154.2992663 -479.83902662 152.51049232 -477.46875 150.71484375 C-449.04646749 129.29363818 -418.23746959 111.26348058 -387.0625 94.1875 C-386.24152832 93.73568359 -385.42055664 93.28386719 -384.57470703 92.81835938 C-348.47681827 73.04160736 -309.93418341 57.54799133 -271.0625 44.1875 C-270.40159363 43.95953735 -269.74068726 43.73157471 -269.05975342 43.4967041 C-198.66919824 19.26290937 -124.35725467 5.34887921 -50.0625 1.1875 C-49.32270905 1.14513214 -48.58291809 1.10276428 -47.82070923 1.05911255 C-31.88054073 0.16864356 -15.96263879 -0.01409966 0 0 Z " fill="#003874" transform="translate(739.0625,-0.1875)"/>
<path d="M0 0 C1.05219727 -0.00376648 2.10439453 -0.00753296 3.18847656 -0.01141357 C14.40228447 -0.03173795 25.29520816 0.01891049 36.3125 2.3125 C37.08166748 2.45840576 37.85083496 2.60431152 38.64331055 2.75463867 C58.99640317 6.72671076 78.35630184 12.94172929 97.3125 21.3125 C98.14023926 21.67746582 98.96797852 22.04243164 99.82080078 22.41845703 C124.61031476 33.47747561 147.35607683 48.09829526 168.3125 65.3125 C168.83972656 65.74208008 169.36695313 66.17166016 169.91015625 66.61425781 C176.69264504 72.15940068 183.20991047 77.97198951 189.625 83.9375 C190.27065918 84.5346582 190.91631836 85.13181641 191.58154297 85.74707031 C192.82190985 86.91279283 194.04841532 88.09350337 195.25817108 89.29096317 C196.6131693 90.62433232 197.99514401 91.93090109 199.40402985 93.20719814 C204.6672292 98.37892028 206.23249223 102.07774461 206.30786133 109.42840576 C206.26471802 111.14715912 206.26471802 111.14715912 206.22070312 112.90063477 C206.22187134 114.1308989 206.22303955 115.36116302 206.22424316 116.62870789 C206.21964889 119.97675601 206.17976348 123.32077545 206.1236515 126.66811109 C206.07337262 130.17534139 206.06892084 133.68263519 206.05944824 137.19017029 C206.0346608 143.82025052 205.96912023 150.44926554 205.88865232 157.07887834 C205.79898802 164.63139202 205.7551862 172.18395869 205.71508884 179.73687279 C205.63164452 195.26269709 205.49108618 210.78746076 205.3125 226.3125 C200.8511464 224.88946203 197.19386733 223.18630446 193.1875 220.75 C187.31776261 217.28107878 181.28550925 214.34384684 175.0625 211.5625 C174.24765137 211.19825928 173.43280273 210.83401855 172.59326172 210.45874023 C158.81291054 204.37999085 144.7650387 199.37266264 130.37548828 194.95361328 C128.38982383 194.33652987 126.4110823 193.70134034 124.43359375 193.05859375 C106.36534191 187.21291551 87.98120958 183.26422753 69.31103516 179.86035156 C66.64655231 179.3735335 63.98536238 178.87184017 61.32421875 178.3671875 C33.4848742 173.22830849 3.32559493 173.79480058 -24.6875 177.3125 C-25.5640625 177.41965332 -26.440625 177.52680664 -27.34375 177.63720703 C-50.27269124 180.49915882 -73.42845081 184.9704023 -94.6875 194.3125 C-95.84765625 194.79074219 -97.0078125 195.26898438 -98.203125 195.76171875 C-129.66183805 208.87082729 -158.28148507 229.48443786 -175.6875 259.3125 C-176.07325195 259.97024414 -176.45900391 260.62798828 -176.85644531 261.30566406 C-182.97420757 271.88924121 -187.27391306 282.59020781 -190.6875 294.3125 C-191.00460938 295.35792969 -191.32171875 296.40335938 -191.6484375 297.48046875 C-200.81638858 330.38524367 -196.57206184 367.26983851 -180.36547852 397.15454102 C-160.50911568 432.01531812 -125.03866644 456.24557541 -86.8359375 467.21875 C-82.21345133 468.47230557 -77.55559456 469.54962878 -72.875 470.5625 C-72.1229126 470.72588867 -71.3708252 470.88927734 -70.59594727 471.05761719 C-20.24083756 481.35141536 32.00806659 466.83573058 74.3125 439.3125 C85.39680994 431.873307 95.84621058 423.6977372 105.6953125 414.68359375 C107.11893922 413.39383043 108.54881987 412.11033374 110.00854492 410.86157227 C115.56670847 406.09894874 120.76917962 401.00899605 125.9309082 395.82446289 C127.37275221 394.37725615 128.81987116 392.93547974 130.26757812 391.49414062 C135.49539475 386.27046515 140.52866077 380.94588441 145.3125 375.3125 C146.28543331 374.19441972 147.25935929 373.0772023 148.234375 371.9609375 C154.65432599 364.54899548 160.82541827 356.98536066 166.82470703 349.22998047 C168.41561845 347.17960005 170.01750001 345.13813094 171.62109375 343.09765625 C182.35566442 329.413231 192.64275084 315.41982286 202.8125 301.3125 C212.35675023 288.07285984 221.98764254 274.92445727 232.06225586 262.08203125 C236.24693015 256.7305047 240.30418974 251.29708524 244.3125 245.8125 C248.87933063 239.56368934 253.53519383 233.40191607 258.3125 227.3125 C263.6632051 220.4878721 268.86106579 213.56697505 273.98339844 206.56958008 C278.29734876 200.6779875 282.66825135 194.8318937 287.0625 189 C291.19803005 183.50743369 295.29024667 177.99564754 299.25 172.375 C311.95151752 154.39800583 325.45840859 136.69458882 340.34375 120.4609375 C342.15905737 118.47994732 343.92942784 116.46923433 345.6875 114.4375 C353.19612594 105.85377535 360.95114102 97.57781171 369 89.5 C370.0506665 88.44244507 370.0506665 88.44244507 371.12255859 87.36352539 C375.6896682 82.80983898 380.41089699 78.50246665 385.3125 74.3125 C386.12279663 73.61169312 386.12279663 73.61169312 386.94946289 72.89672852 C418.20972489 45.89356486 453.47885532 24.07789884 493.3125 12.3125 C494.41609863 11.98258057 494.41609863 11.98258057 495.54199219 11.64599609 C508.93105257 7.7078672 522.51109732 5.29877651 536.3125 3.3125 C537.12654297 3.19245605 537.94058594 3.07241211 538.77929688 2.94873047 C553.57698685 0.83971391 568.39721795 1.04938096 583.3125 1.3125 C584.67592529 1.32555176 584.67592529 1.32555176 586.06689453 1.33886719 C614.15892065 1.65715934 645.50565606 7.72097289 671.0234375 19.78125 C673.61963535 20.98993118 676.22267199 22.14734561 678.8515625 23.28125 C701.95010962 33.30604202 722.45947629 46.62997166 741.3125 63.3125 C742.61767578 64.45138672 742.61767578 64.45138672 743.94921875 65.61328125 C752.97211967 73.58799587 761.6287222 82.02924193 769.3125 91.3125 C769.92399902 92.04533203 769.92399902 92.04533203 770.54785156 92.79296875 C784.68461037 109.80962481 796.78894517 127.86237686 807.3125 147.3125 C808.09052979 148.74311768 808.09052979 148.74311768 808.88427734 150.20263672 C815.43760505 162.3129618 821.40593395 174.44639347 826.3125 187.3125 C826.8143379 188.58884322 827.31693791 189.86488706 827.8203125 191.140625 C834.41389958 208.04637569 839.46842749 225.31928156 843.75 242.9375 C843.92948181 243.67217499 844.10896362 244.40684998 844.29388428 245.16378784 C844.80503797 247.26660734 845.3085249 249.3710822 845.80859375 251.4765625 C846.09919678 252.69811035 846.3897998 253.9196582 846.68920898 255.17822266 C847.3125 258.3125 847.3125 258.3125 847.3125 262.3125 C838.09829483 262.61483072 828.88581602 262.84523505 819.66771889 262.98605824 C815.38622521 263.05368029 811.10814295 263.14522915 806.82861328 263.29321289 C802.69153264 263.43536161 798.55771229 263.51236434 794.41837692 263.54590416 C792.84636461 263.56977332 791.27451479 263.61639579 789.70390701 263.68699074 C777.73172783 264.20329065 777.73172783 264.20329065 773.6863842 261.0415802 C770.29276947 257.51019104 767.85985931 253.47096803 765.3125 249.3125 C763.04521998 246.62934469 760.63027097 244.14809053 758.125 241.6875 C757.49263428 241.06343262 756.86026855 240.43936523 756.20874023 239.79638672 C745.22141987 229.19084415 732.75028945 221.42215435 719.3125 214.3125 C718.31992188 213.76980469 717.32734375 213.22710938 716.3046875 212.66796875 C703.19338774 205.74710161 688.81579041 200.77775059 674.31396484 197.734375 C672.99617962 197.45660812 671.68117276 197.16525906 670.36962891 196.859375 C658.52313341 194.14156342 646.65559048 194.02216305 634.5625 194 C633.77380524 193.99641479 632.98511047 193.99282959 632.17251587 193.98913574 C576.41619855 193.85295568 524.84997905 220.89028677 485.06640625 258.70703125 C482.79873861 260.85246999 480.49914504 262.91263276 478.125 264.9375 C471.30260025 270.8531251 465.0152307 277.33694862 459.1484375 284.1953125 C456.9604383 286.71849455 454.69956887 289.16804519 452.4375 291.625 C447.98427485 296.51284923 443.77653068 301.55084763 439.62744141 306.69726562 C438.16574866 308.49276492 436.68413823 310.27053951 435.19921875 312.046875 C417.89236558 332.78913353 401.98506285 354.63268746 386.20410156 376.54589844 C380.55286 384.38515851 374.8134334 392.15847839 369.06982422 399.93017578 C367.3349021 402.2821305 365.60594856 404.63834839 363.87890625 406.99609375 C357.06178062 416.29490505 350.14866521 425.51296082 343.14428711 434.67163086 C339.06384926 440.00751171 335.01627051 445.36570179 331 450.75 C319.24298863 466.47635099 306.92377378 481.78477017 294.19311523 496.73291016 C291.3789916 500.03959532 288.61191898 503.37921648 285.875 506.75 C278.32174514 516.01928951 270.50009146 525.04373942 262.453125 533.88671875 C260.17598049 536.46720551 258.02480241 539.12524699 255.875 541.8125 C252.0701913 546.52036976 247.9672634 550.76118207 243.640625 554.98828125 C241.63421612 556.99132367 239.77151125 559.02853045 237.9375 561.1875 C231.3805696 568.82950162 224.09669837 575.95483127 216.4296875 582.4765625 C214.24094573 584.37454891 212.11543103 586.33363247 209.99365234 588.3059082 C199.49835902 598.04542186 188.18588517 606.48647298 176.50976562 614.75341797 C175.15788076 615.71265538 173.80941998 616.6767672 172.46679688 617.64892578 C155.82893442 629.67842507 136.6257675 639.40176619 117.3125 646.3125 C115.93719943 646.85340305 114.56215112 647.39494854 113.1875 647.9375 C107.64218767 649.97674389 101.97590545 651.63749727 96.3125 653.3125 C94.7346875 653.80943359 94.7346875 653.80943359 93.125 654.31640625 C70.77515631 660.91271428 46.76406898 662.54385532 23.5625 662.5625 C22.79893188 662.56317474 22.03536377 662.56384949 21.24865723 662.56454468 C-7.27673012 662.52482917 -34.73386892 657.6186472 -61.6875 648.3125 C-62.35233398 648.09013672 -63.01716797 647.86777344 -63.70214844 647.63867188 C-104.17396272 634.03299422 -142.55738318 606.22812827 -169.6875 573.3125 C-170.10435059 572.80944336 -170.52120117 572.30638672 -170.95068359 571.78808594 C-182.78703971 557.44622378 -193.45694334 542.45892947 -202.6875 526.3125 C-203.08146973 525.6313916 -203.47543945 524.9502832 -203.88134766 524.24853516 C-206.91610543 518.98852892 -209.84024252 513.67625036 -212.6875 508.3125 C-213.07486328 507.58546875 -213.46222656 506.8584375 -213.86132812 506.109375 C-227.67207522 479.74977649 -238.11153916 450.30277558 -244.6875 421.3125 C-244.9158252 420.32507813 -245.14415039 419.33765625 -245.37939453 418.3203125 C-254.02551532 380.46664934 -256.23162355 343.09084719 -255.7142334 304.40826416 C-255.69136084 302.61517082 -255.67553159 300.82199 -255.66113281 299.02880859 C-255.53227695 286.7230734 -253.9390867 274.61853723 -252.3125 262.4375 C-252.20749176 261.65008423 -252.10248352 260.86266846 -251.99429321 260.0513916 C-242.53623569 189.99970689 -217.37451186 120.01132119 -167.6875 68.3125 C-166.82850098 67.41265381 -166.82850098 67.41265381 -165.95214844 66.49462891 C-157.74236901 57.93749585 -149.4335148 50.11899098 -139.6875 43.3125 C-139.00816406 42.8371582 -138.32882812 42.36181641 -137.62890625 41.87207031 C-122.44186433 31.33453722 -106.8880241 22.14930138 -89.6875 15.3125 C-88.71272705 14.92433105 -88.71272705 14.92433105 -87.71826172 14.52832031 C-59.09266696 3.3445648 -30.47500273 0.06119249 0 0 Z " fill="#FEFEFE" transform="translate(444.6875,303.6875)"/>
<path d="M0 0 C0.92748047 0.01691895 1.85496094 0.03383789 2.81054688 0.05126953 C31.00909385 0.57083159 60.0133559 6.91708571 86.84082031 15.33935547 C90.22457309 16.37468281 93.63209489 17.32348086 97.03833008 18.28173828 C119.05947296 24.47936346 119.05947296 24.47936346 128.66845703 28.95092773 C130.94348586 29.9745716 133.23650964 30.89193775 135.5625 31.79296875 C141.28111541 34.06800372 146.82629838 36.65374714 152.375 39.3125 C153.32632812 39.76044922 154.27765625 40.20839844 155.2578125 40.66992188 C157.1390204 41.56857997 159.00860663 42.49212455 160.86352539 43.44386292 C163.96302118 45.03336365 163.96302118 45.03336365 167.13793945 46.25730896 C170.62804818 47.85276531 173.20538945 49.35467342 176 52 C177.82759982 57.29100589 177.74219223 62.46049647 177.6640625 67.984375 C177.67725715 69.56556128 177.69370534 71.1467234 177.71322632 72.72784424 C177.73990718 76.04438868 177.72235398 79.357064 177.67431641 82.67333984 C177.61764336 86.86966667 177.67796495 91.05471101 177.76977634 95.25005054 C178.0999431 112.75753185 178.20195588 126.94856877 165.57324219 140.40087891 C164.95549927 141.01707092 164.33775635 141.63326294 163.70129395 142.26812744 C161.35086746 144.66079988 159.47807828 147.23534594 157.51953125 149.95703125 C156.28577587 151.5769862 155.05015815 153.19552484 153.8125 154.8125 C153.14307373 155.68865967 152.47364746 156.56481934 151.78393555 157.4675293 C146.25201966 164.69534162 140.67735594 171.88584396 135 179 C134.48872559 179.64275879 133.97745117 180.28551758 133.45068359 180.94775391 C127.09045415 188.92715914 120.61606829 196.71328144 113.6328125 204.15625 C111.66644111 206.2801645 109.77489798 208.42390928 107.89453125 210.62109375 C103.51430111 215.64826844 98.80671189 220.34344517 94.0847168 225.0456543 C92.56508332 226.5599258 91.05087483 228.0794743 89.53710938 229.59960938 C84.19876565 234.9422062 78.7861511 240.13906371 73 245 C72.44465576 245.47268311 71.88931152 245.94536621 71.31713867 246.43237305 C60.50610907 255.54850079 48.89810458 263.38117125 37 271 C35.90945313 271.70125 34.81890625 272.4025 33.6953125 273.125 C12.83949911 285.88663086 -10.95651067 294.10859753 -35 298 C-35.67466309 298.11714355 -36.34932617 298.23428711 -37.04443359 298.35498047 C-56.20154506 301.60661629 -77.9546495 301.87810442 -97 298 C-97.79180664 297.84934082 -98.58361328 297.69868164 -99.39941406 297.54345703 C-133.12100794 291.04989817 -163.36572015 276.01201721 -188 252 C-188.77472656 251.29875 -189.54945313 250.5975 -190.34765625 249.875 C-213.26481778 228.53415117 -225.12112311 196.35962263 -226.24609375 165.6328125 C-226.95905159 130.86975228 -217.53783875 94.4854084 -194 68 C-193.15566406 67.03578125 -192.31132812 66.0715625 -191.44140625 65.078125 C-171.45715809 42.5657707 -146.83550477 27.89099202 -119 17 C-117.96101563 16.59007812 -116.92203125 16.18015625 -115.8515625 15.7578125 C-108.70355065 13.0537259 -101.40708569 10.87138676 -94 9 C-92.83283447 8.70391846 -92.83283447 8.70391846 -91.64208984 8.40185547 C-61.66638463 1.02188878 -30.75913774 -0.87353055 0 0 Z " fill="#003874" transform="translate(474,478)"/>
<path d="M0 0 C1.90528473 0.0199855 1.90528473 0.0199855 3.84906006 0.04037476 C4.90332184 0.03906052 4.90332184 0.03906052 5.97888184 0.03771973 C8.29579897 0.04189116 10.60979916 0.08851227 12.9262085 0.1355896 C14.53473326 0.14678356 16.14327851 0.15532281 17.75183105 0.16131592 C21.98069984 0.18419917 26.2083274 0.24311606 30.43670654 0.30953979 C34.75334888 0.37097439 39.07019228 0.39833332 43.387146 0.42855835 C51.85386075 0.49286158 60.31956762 0.59523277 68.7855835 0.7215271 C67.77875042 13.05705485 66.21195333 25.02786103 63.49139404 37.10458374 C62.97117463 39.41751406 62.46994144 41.73397352 61.97113037 44.05160522 C59.97844559 53.17322481 57.61384911 62.1283044 54.89691162 71.06063843 C53.9223543 74.27098267 53.00118857 77.49058583 52.0980835 80.7215271 C39.3107897 121.79431478 18.57308212 159.98045028 -9.86529541 192.18881226 C-11.08006023 193.56888709 -12.27911315 194.96275376 -13.47613525 196.35824585 C-43.16082215 230.43253524 -86.17357571 253.54830203 -130.2144165 262.7215271 C-131.49961182 262.99480835 -132.78480713 263.2680896 -134.10894775 263.5496521 C-150.29013408 266.85802943 -166.53093963 268.16355907 -183.0269165 268.1590271 C-184.28493073 268.16062836 -184.28493073 268.16062836 -185.56835938 268.16226196 C-201.51986871 268.13323934 -216.65238826 266.40075194 -232.2144165 262.7215271 C-233.19023682 262.49159058 -234.16605713 262.26165405 -235.17144775 262.02474976 C-273.87021549 252.57084955 -309.70578148 230.67494473 -338.42144775 203.36605835 C-340.7227763 201.18703817 -343.05613401 199.09218601 -345.4644165 197.0340271 C-352.63621021 190.81343972 -359.05740754 183.93091284 -365.2144165 176.7215271 C-366.09511111 175.71560393 -366.97669381 174.71045791 -367.85894775 173.7059021 C-374.41091598 166.20995051 -380.74870092 158.57658566 -386.57794189 150.5015564 C-388.90844505 147.32848037 -391.34800626 144.5087336 -394.11578369 141.71322632 C-410.23579174 124.02985837 -406.94821156 101.45850522 -406.24438477 79.09963989 C-406.08908176 73.63594692 -406.02204334 68.17118041 -405.94683838 62.7059021 C-405.78744825 52.04166013 -405.53252949 41.3821353 -405.2144165 30.7215271 C-388.79321402 38.92578164 -388.79321402 38.92578164 -380.6206665 43.05355835 C-332.53908903 67.2884496 -283.38907119 90.75498679 -229.2144165 96.7215271 C-227.95347168 96.86400879 -227.95347168 96.86400879 -226.66705322 97.0093689 C-184.85381089 101.3083908 -138.03558803 96.03818313 -99.2144165 79.7215271 C-97.60397783 79.0750995 -95.99329926 78.42926926 -94.38238525 77.7840271 C-76.80134846 70.57273301 -59.92950755 61.85939881 -45.2144165 49.7215271 C-44.67881104 49.28453491 -44.14320557 48.84754272 -43.59136963 48.39730835 C-29.80948541 37.12552676 -18.75953406 25.11271891 -9.2925415 10.0184021 C-8.60676025 8.93043335 -7.920979 7.8424646 -7.2144165 6.7215271 C-6.37865082 5.15560318 -6.37865082 5.15560318 -5.52600098 3.55804443 C-3.2144165 0.7215271 -3.2144165 0.7215271 0 0 Z " fill="#FEFEFE" transform="translate(1227.2144165039063,700.2784729003906)"/>
<path d="M0 0 C0.54937259 29.91001455 0.9731809 59.81985454 1.22556791 89.73381242 C1.2555792 93.27795353 1.28664348 96.82208469 1.31835938 100.36621094 C1.32465483 101.0716818 1.33095028 101.77715267 1.3374365 102.50400144 C1.44142778 113.87690913 1.63039193 125.24685838 1.85166711 136.61802 C2.07737316 148.31583896 2.20966972 160.0121264 2.25812387 171.71203279 C2.28923855 178.272913 2.36153614 184.82712304 2.53752136 191.385849 C3.69246918 236.12993265 3.69246918 236.12993265 -6.80765486 248.20024538 C-11.15536099 252.74385148 -16.03046763 256.43598951 -21.21983337 259.97703552 C-25.13701066 262.82733608 -28.0108482 266.22767605 -31 270 C-32.57863792 271.71267321 -34.16149958 273.42147024 -35.75 275.125 C-40.4979542 280.33197093 -44.85053154 285.77601838 -49.16015625 291.34765625 C-51.51050178 294.38598695 -53.91300683 297.37762522 -56.33300781 300.3605957 C-65.64036877 311.85349703 -74.3403501 323.80079999 -82.875 335.875 C-87.68904799 342.6816242 -92.76048105 349.28646536 -97.83105469 355.90307617 C-102.33069013 361.78287406 -106.75513129 367.71077096 -111.125 373.6875 C-116.20989562 380.63642569 -121.43574854 387.45694642 -126.75048828 394.23120117 C-131.54102703 400.35809032 -136.15378164 406.60380962 -140.74121094 412.88354492 C-145.37312373 419.20279737 -150.16280308 425.38564393 -155.00488281 431.54467773 C-159.16844611 436.86419329 -163.15021765 442.28704288 -166.98144531 447.85083008 C-169.79619346 451.89809673 -169.79619346 451.89809673 -172 453 C-172 322.32 -172 191.64 -172 57 C-166.12243113 54.64897245 -160.43536862 52.39515257 -154.46166992 50.40625 C-153.77883438 50.17800537 -153.09599884 49.94976074 -152.39247131 49.71459961 C-150.1727648 48.97347972 -147.95166599 48.23663875 -145.73046875 47.5 C-144.16157328 46.97743338 -142.59275246 46.45464262 -141.02400208 45.93164062 C-137.74928332 44.8405863 -134.4739084 43.75153367 -131.19799805 42.6640625 C-127.03513252 41.28209061 -122.87358643 39.89619686 -118.71248913 38.50891113 C-115.47577215 37.43009691 -112.2385326 36.35285811 -109.00112343 35.27612305 C-107.46827937 34.76622303 -105.93554948 34.25597969 -104.40294456 33.74536133 C-97.4741539 31.43813151 -90.54620078 29.14660587 -83.55859375 27.02246094 C-76.25911776 24.79887611 -69.03004151 22.37608856 -61.79694557 19.9471817 C-59.33856161 19.12183445 -56.87942909 18.29875301 -54.42008972 17.47625732 C-47.43906585 15.14116744 -40.45923916 12.80251391 -33.48022461 10.46142578 C-29.18672671 9.02135761 -24.89227102 7.58417772 -20.59720421 6.14879608 C-18.96568842 5.60288644 -17.33455316 5.0558382 -15.70380592 4.50763702 C-13.43860587 3.74619853 -11.1722164 2.98840835 -8.90551758 2.23144531 C-8.23182632 2.00396103 -7.55813507 1.77647675 -6.86402893 1.542099 C-2.22790094 0 -2.22790094 0 0 0 Z " fill="#EC1C24" transform="translate(822,148)"/>
<path d="M0 0 C0.33 0 0.66 0 1 0 C0.99907821 0.68360281 0.99815641 1.36720562 0.99720669 2.07152367 C0.97514435 18.68751878 0.95858497 35.30350927 0.94818783 51.91951561 C0.94302651 59.95481262 0.93598692 67.99009988 0.92456055 76.02539062 C0.91460872 83.02707381 0.90814538 90.02874992 0.90591151 97.03043997 C0.90460525 100.73946293 0.90152475 104.44846566 0.89426994 108.15748215 C0.88624618 112.2929856 0.88600919 116.42845364 0.88647461 120.56396484 C0.88287933 121.80042252 0.87928406 123.03688019 0.87557983 124.31080627 C0.87764183 125.993554 0.87764183 125.993554 0.87974548 127.71029663 C0.87882369 128.68924078 0.8779019 129.66818493 0.87695217 130.67679405 C0.84630688 133.02534785 0.84630688 133.02534785 2 135 C2.08789612 136.38636334 2.11366286 137.77692279 2.10743046 139.16605568 C2.10593811 140.04437007 2.10444576 140.92268445 2.10290819 141.82761443 C2.09270251 143.28381794 2.09270251 143.28381794 2.08229065 144.7694397 C2.07906152 145.79612019 2.07583239 146.82280068 2.07250541 147.8805927 C2.06037929 151.34312073 2.04101712 154.8055714 2.02172852 158.26806641 C2.01159113 160.74123463 2.00189688 163.21440471 1.99261475 165.68757629 C1.97158564 171.02361481 1.94745565 176.35962569 1.92053413 181.69563675 C1.88161516 189.41067047 1.84824376 197.12572029 1.81623887 204.84078543 C1.76416547 217.3570922 1.70758755 229.87337442 1.64819336 242.38964844 C1.59049718 254.55012048 1.53491222 266.71059914 1.48217773 278.87109375 C1.47892802 279.62030419 1.4756783 280.36951464 1.4723301 281.14142843 C1.45604075 284.89988889 1.43979302 288.65834954 1.42356598 292.41681027 C1.28883118 323.61123737 1.14671817 354.80562686 1 386 C-42.35493271 400.84094106 -42.35493271 400.84094106 -60.78860855 406.94440269 C-63.61727102 407.88116596 -66.44505016 408.82056044 -69.27267456 409.76045227 C-77.27132902 412.41876805 -85.2713098 415.07307724 -93.27197266 417.7253418 C-98.26081692 419.3793614 -103.24868057 421.03631005 -108.2359581 422.69504738 C-110.10539776 423.31614042 -111.97521484 423.93609874 -113.84543228 424.55484581 C-116.42928804 425.40971495 -119.01188431 426.2682924 -121.59423828 427.12768555 C-122.34622498 427.37542725 -123.09821167 427.62316895 -123.87298584 427.87841797 C-124.93445328 428.23289253 -124.93445328 428.23289253 -126.0173645 428.5945282 C-126.62135134 428.79480968 -127.22533817 428.99509115 -127.84762764 429.20144176 C-129.66622934 429.87616673 -131.45199726 430.63841276 -133.22767448 431.41914082 C-137.18326674 433.13003273 -141.22497904 434.42926751 -145.33984375 435.69921875 C-146.10680069 435.9391304 -146.87375763 436.17904205 -147.66395569 436.42622375 C-150.08740759 437.18344139 -152.51240895 437.9355506 -154.9375 438.6875 C-156.59190243 439.2034377 -158.24620038 439.71971053 -159.90039062 440.23632812 C-163.93239671 441.49476172 -167.96579948 442.74861989 -172 444 C-172.27399663 413.61293312 -172.48624126 383.22599433 -172.61278395 352.83797375 C-172.62779169 349.24704232 -172.64332363 345.65611333 -172.65917969 342.06518555 C-172.66232741 341.35032342 -172.66547514 340.63546129 -172.66871825 339.89893667 C-172.72087578 328.33737039 -172.81545655 316.77652314 -172.92583355 305.21538284 C-173.03821808 293.34459434 -173.10473975 281.47418131 -173.12906194 269.60288268 C-173.144023 262.93802382 -173.18137418 256.27447358 -173.26876068 249.61005211 C-173.35039943 243.33294051 -173.37530307 237.05812301 -173.35729218 230.78053093 C-173.36058543 228.48068 -173.38435095 226.18075001 -173.4304657 223.8813591 C-173.77885298 205.60901513 -173.77885298 205.60901513 -169.36696625 200.24210548 C-166.53332876 197.39581646 -163.36124541 195.19422552 -160 193 C-158.74221457 191.90002919 -157.50063095 190.78008074 -156.30078125 189.6171875 C-155.79885254 189.15731445 -155.29692383 188.69744141 -154.77978516 188.22363281 C-147.17158279 181.23066944 -139.74769017 174.14765754 -133.01171875 166.296875 C-130.39719364 163.3117473 -127.69945854 160.4082244 -125 157.5 C-120.5848043 152.73380266 -116.23150072 147.93092232 -112 143 C-111.57783203 142.50951172 -111.15566406 142.01902344 -110.72070312 141.51367188 C-101.20598332 130.45884654 -91.71204854 119.38591452 -82.5078125 108.0703125 C-80.5741688 105.70295433 -78.63117582 103.34477223 -76.6796875 100.9921875 C-70.07970466 93.02948801 -63.61668983 85.00520468 -57.35742188 76.77099609 C-55.83999049 74.79123939 -54.3045171 72.82640119 -52.765625 70.86328125 C-45.46991243 61.55421485 -38.35770458 52.13289006 -31.37109375 42.58984375 C-28.26197046 38.3452917 -25.10656254 34.13738656 -21.9375 29.9375 C-15.95253503 21.99585371 -10.13688945 13.93460311 -4.34350586 5.85253906 C-3.90014893 5.24120117 -3.45679199 4.62986328 -3 4 C-2.20444702 2.89350098 -2.20444702 2.89350098 -1.39282227 1.76464844 C-0.70337524 0.89114746 -0.70337524 0.89114746 0 0 Z " fill="#EC1C24" transform="translate(822,691)"/>
</svg>
