<?xml version="1.0" encoding="UTF-8"?>
<svg version="1.1" xmlns="http://www.w3.org/2000/svg" width="1384" height="1816">
<path d="M0 0 C114.51 0 229.02 0 347 0 C347 144.21 347 288.42 347 437 C363.83767981 427.95255268 363.83767981 427.95255268 380.625 418.8125 C390.85202592 413.38872895 401.41512892 408.6764009 412 404 C413.1446875 403.49307617 414.289375 402.98615234 415.46875 402.46386719 C448.34972836 388.01534517 482.20167954 376.48665906 516.97247314 367.52349854 C518.92534206 367.01927635 520.876527 366.50854574 522.82763672 365.99755859 C562.69285657 355.62400544 607.64879377 346.2615856 649 347 C650.27616195 353.86409643 650.13899954 360.69016441 650.12698364 367.65338135 C650.12813662 369.05146759 650.12972534 370.44955353 650.13171089 371.84763885 C650.13587967 375.67977177 650.1338246 379.51187974 650.13072467 383.34401274 C650.1284609 387.48032009 650.131955 391.61662318 650.13470459 395.75292969 C650.13915032 403.85100527 650.13819126 411.94907159 650.13529195 420.04714754 C650.13303385 426.62638028 650.13272716 433.20561043 650.13381577 439.78484344 C650.13404561 441.1892297 650.13404561 441.1892297 650.13428011 442.62198739 C650.13459983 444.52390546 650.13492404 446.42582353 650.1352527 448.32774159 C650.13810382 466.15889484 650.1348259 483.99004294 650.12945233 501.82119533 C650.1249817 517.13047394 650.12576307 532.43974497 650.13037109 547.74902344 C650.13571829 565.52244623 650.13783225 583.29586453 650.13475883 601.06928802 C650.13444027 602.96299855 650.1341259 604.85670908 650.13381577 606.75041962 C650.13366149 607.68220184 650.13350721 608.61398406 650.13334826 609.5740021 C650.13248377 616.14951741 650.13394448 622.72502987 650.13629532 629.30054474 C650.13909499 637.30752603 650.13835137 645.31449752 650.13301457 653.32147768 C650.13038029 657.40889131 650.12936795 661.49628857 650.13266373 665.58370209 C650.13563208 669.32144552 650.13402481 673.05915732 650.12868617 676.79689786 C650.1270308 678.79755792 650.13031469 680.79822015 650.13374341 682.79887795 C650.13113566 683.97792191 650.12852791 685.15696587 650.12584114 686.37173843 C650.12567879 687.39356854 650.12551644 688.41539864 650.12534916 689.46819329 C650 692 650 692 649 695 C645.9772405 695.82466765 643.07573817 696.4540143 640 697 C638.20024192 697.34620946 636.40077223 697.69392078 634.6015625 698.04296875 C633.6422583 698.22553223 632.6829541 698.4080957 631.69458008 698.59619141 C568.95019304 710.68295713 511.58985977 737.01214748 463.81933594 779.86328125 C458.52212407 784.58245377 458.52212407 784.58245377 455 786 C455 786.66 455 787.32 455 788 C454.34 788 453.68 788 453 788 C452.690625 788.8353125 452.690625 788.8353125 452.375 789.6875 C450.84861213 792.25460688 449.00290077 793.7006667 446.6875 795.54296875 C444.19693214 797.69338961 442.154307 800.16011014 440.02734375 802.6640625 C437.71559179 805.32769963 435.29581117 807.87263476 432.875 810.4375 C386.40246237 860.48235576 359.11430181 928.04406033 350 995 C349.88140625 995.82193848 349.7628125 996.64387695 349.640625 997.49072266 C340.00531696 1066.24266022 355.88576599 1139.14474762 388 1200 C388.34933594 1200.67208496 388.69867188 1201.34416992 389.05859375 1202.03662109 C399.05323252 1221.15892597 411.08345123 1239.49570405 425 1256 C425.49532227 1256.59006836 425.99064453 1257.18013672 426.50097656 1257.78808594 C440.51355477 1274.39913851 455.1480619 1290.06634288 472.13305664 1303.6862793 C473.94654107 1305.14982285 475.74948888 1306.6266053 477.53735352 1308.12133789 C483.90213471 1313.4356154 490.45667437 1318.24677241 497.375 1322.8125 C498.41446777 1323.50045654 499.45393555 1324.18841309 500.52490234 1324.8972168 C510.43685865 1331.39133513 520.5610004 1337.39557556 531 1343 C532.30155029 1343.70116943 532.30155029 1343.70116943 533.62939453 1344.41650391 C612.63721826 1386.52786279 707.4854982 1393.32753704 792.7734375 1367.95703125 C828.97926922 1356.76790684 863.72354681 1339.92646375 894.21142578 1317.32568359 C895.8699337 1316.09640459 897.54186188 1314.88528819 899.21484375 1313.67578125 C922.24937914 1296.81607532 943.39212182 1276.45408319 961 1254 C961.77472656 1253.03191406 962.54945313 1252.06382813 963.34765625 1251.06640625 C970.43723342 1242.06680036 976.80699856 1232.6342875 983 1223 C983.39010254 1222.39526855 983.78020508 1221.79053711 984.18212891 1221.16748047 C997.23104681 1200.73569926 1007.69581115 1178.74194488 1016 1156 C1016.53681396 1154.5459375 1016.53681396 1154.5459375 1017.08447266 1153.0625 C1026.4111464 1127.49254968 1031.90883336 1101.00789455 1035 1074 C1035.08588379 1073.26268143 1035.17176758 1072.52536285 1035.26025391 1071.76570129 C1035.92626996 1065.67886811 1036.17340211 1059.66370703 1036.203125 1053.54296875 C1036.21018463 1052.5702301 1036.21724426 1051.59749146 1036.22451782 1050.59527588 C1036.45298422 1009.79677798 1032.66436512 970.9791972 1020 932 C1019.72575195 931.14438477 1019.45150391 930.28876953 1019.16894531 929.40722656 C1004.03083168 882.65451004 978.27553645 840.03890279 945 804 C944.05881553 802.95670272 943.11877519 801.91237252 942.1796875 800.8671875 C941.2032816 799.78631685 940.22672113 798.70558581 939.25 797.625 C938.36828125 796.64789062 937.4865625 795.67078125 936.578125 794.6640625 C934.06829203 791.95112107 934.06829203 791.95112107 931.171875 789.7734375 C930.45515625 789.18820312 929.7384375 788.60296875 929 788 C929 787.34 929 786.68 929 786 C928.41605469 785.74605469 927.83210937 785.49210938 927.23046875 785.23046875 C924.76024249 783.86773447 923.23800578 782.36718017 921.3125 780.3125 C917.17135241 776.07239116 912.72800971 772.55691808 908 769 C906.44841465 767.78545568 904.89685705 766.5708756 903.34594727 765.35546875 C897.32249109 760.65942519 891.17215526 756.25473621 884.74072266 752.12646484 C882.82946033 750.88963954 880.93709352 749.6261816 879.04296875 748.36328125 C857.44953217 734.15147196 834.27170479 722.82751523 810 714 C809.03352539 713.64357422 808.06705078 713.28714844 807.07128906 712.91992188 C785.50189954 705.05147813 763.04070935 699.63426663 740.296875 696.5078125 C737 696 737 696 735 695 C735 580.16 735 465.32 735 347 C756.90663511 348.1529808 756.90663511 348.1529808 764.0234375 349.015625 C764.84976685 349.11138321 765.67609619 349.20714142 766.52746582 349.30580139 C769.14435095 349.61246282 771.75974516 349.92975059 774.375 350.25 C775.74328949 350.41573013 775.74328949 350.41573013 777.13922119 350.58480835 C851.29428275 359.61329958 923.73919493 380.41751537 991 413 C992.26099783 413.6065906 993.52206825 414.2130303 994.78320312 414.81933594 C1012.74600387 423.47668127 1030.09469918 432.7999587 1047.09667969 443.22363281 C1049.72362217 444.83090102 1052.36179705 446.41659094 1055.0078125 447.9921875 C1065.97975049 454.55340175 1076.53301571 461.66420492 1087 469 C1087.65516602 469.45793945 1088.31033203 469.91587891 1088.98535156 470.38769531 C1096.93403604 475.95718171 1104.70036222 481.73609331 1112.34814453 487.71142578 C1114.0391284 489.03052316 1115.73604379 490.34171068 1117.43359375 491.65234375 C1124.09216925 496.81448467 1130.577645 502.13414065 1136.94750977 507.64868164 C1140.54456199 510.76199411 1144.18215226 513.81237956 1147.875 516.8125 C1151.16783923 519.49555419 1154.45286545 522.18437848 1157.6875 524.9375 C1158.33074219 525.48277344 1158.97398438 526.02804687 1159.63671875 526.58984375 C1161 528 1161 528 1161 530 C1161.5885527 530.26356293 1162.17710541 530.52712585 1162.78349304 530.79867554 C1165.09557729 532.05180193 1166.61171425 533.36419563 1168.46411133 535.22119141 C1169.12192093 535.87592438 1169.77973053 536.53065735 1170.45747375 537.20523071 C1171.50912971 538.26766495 1171.50912971 538.26766495 1172.58203125 539.3515625 C1173.68063728 540.45085587 1173.68063728 540.45085587 1174.80143738 541.57235718 C1176.35119847 543.12513829 1177.89852945 544.68034803 1179.44360352 546.23779297 C1181.78812668 548.60043828 1184.14041748 550.95511735 1186.49414062 553.30859375 C1188.00307417 554.82244833 1189.51155215 556.33675717 1191.01953125 557.8515625 C1191.71456253 558.5477066 1192.40959381 559.24385071 1193.12568665 559.96109009 C1197.06792466 563.94102056 1200.84441448 568.0176296 1204.49983215 572.26295471 C1206.57181882 574.66210937 1208.72407465 576.98414141 1210.875 579.3125 C1214.91402153 583.74631311 1218.77506878 588.28054584 1222.5390625 592.94921875 C1224.33280236 595.17288674 1226.13872383 597.38198478 1227.9609375 599.58203125 C1236.37236574 609.772651 1244.25239502 620.29875558 1252 631 C1252.87090344 632.1928473 1253.74198034 633.385568 1254.61328125 634.578125 C1271.81089215 658.2422324 1287.22281545 683.19954373 1301 709 C1301.52416504 709.98129883 1302.04833008 710.96259766 1302.58837891 711.97363281 C1323.24885521 750.84384173 1339.93236498 790.99001627 1353 833 C1353.33484406 834.07577301 1353.33484406 834.07577301 1353.67645264 835.17327881 C1378.12560777 914.09313747 1388.10169334 998.56528209 1364 1205 C1363.70399902 1206.20865723 1363.40799805 1207.41731445 1363.10302734 1208.66259766 C1356.00242002 1237.2453233 1347.21221667 1265.74935884 1336 1293 C1335.27006836 1294.78374023 1335.27006836 1294.78374023 1334.52539062 1296.60351562 C1323.58482736 1323.25349353 1311.60328148 1349.29436786 1297.45458984 1374.41455078 C1295.99543435 1377.00811517 1294.55384502 1379.61091634 1293.11328125 1382.21484375 C1282.53577109 1401.18416438 1270.47299925 1419.23222218 1258 1437 C1257.36868164 1437.90153809 1257.36868164 1437.90153809 1256.72460938 1438.82128906 C1251.10918474 1446.82175965 1245.30224818 1454.65070659 1239.28417969 1462.35253906 C1237.97704912 1464.02944345 1236.67948428 1465.71343704 1235.3828125 1467.3984375 C1226.43020674 1478.9782077 1216.81729681 1489.95912906 1206.984375 1500.796875 C1205.08634472 1502.90413697 1203.22734723 1505.04008861 1201.375 1507.1875 C1198.55398475 1510.4359418 1195.57830647 1513.4726155 1192.48046875 1516.45703125 C1190.78164495 1518.13707372 1190.78164495 1518.13707372 1189 1521 C1188.34 1521 1187.68 1521 1187 1521 C1186.7525 1521.61875 1186.505 1522.2375 1186.25 1522.875 C1184.76259631 1525.40358627 1183.56321991 1525.71839004 1181 1527 C1180.31731862 1528.32520503 1179.6492959 1529.65812182 1179 1531 C1178.01 1531.33 1177.02 1531.66 1176 1532 C1175.73960938 1532.55429688 1175.47921875 1533.10859375 1175.2109375 1533.6796875 C1173.37772324 1537.19236257 1170.53867139 1539.48729308 1167.625 1542.125 C1167.0475 1542.66253906 1166.47 1543.20007812 1165.875 1543.75390625 C1163.08144692 1546.31147426 1160.56806161 1548.57629069 1157 1550 C1157 1550.66 1157 1551.32 1157 1552 C1155.44759659 1553.39325954 1153.82970015 1554.71380128 1152.1875 1556 C1148.21421446 1559.17254687 1144.41067177 1562.4066882 1140.6875 1565.875 C1135.01948968 1571.07868179 1129.05224364 1575.78927813 1122.96142578 1580.47998047 C1120.89914501 1582.07815823 1118.85288796 1583.69529546 1116.80859375 1585.31640625 C1105.83524206 1593.98993905 1094.54587135 1602.10797452 1083 1610 C1082.27941406 1610.49677246 1081.55882812 1610.99354492 1080.81640625 1611.50537109 C1060.999019 1625.14597028 1040.23432298 1637.69352161 1019 1649 C1018.03900391 1649.51594727 1017.07800781 1650.03189453 1016.08789062 1650.56347656 C998.731088 1659.85220345 981.08792661 1668.23233198 963 1676 C961.8975293 1676.4753418 960.79505859 1676.95068359 959.65917969 1677.44042969 C879.94674715 1711.55515448 794.40065795 1727.99235057 444 1685 C421.54619952 1675.94485065 399.40302254 1666.21424965 377.6875 1655.5 C376.88948975 1655.10989746 376.09147949 1654.71979492 375.26928711 1654.31787109 C365.90702782 1649.6306651 357.10943566 1644.2738838 348 1639 C347.67 1697.41 347.34 1755.82 347 1816 C232.49 1816 117.98 1816 0 1816 C0 1216.72 0 617.44 0 0 Z " fill="#EC1C24" transform="translate(0,0)"/>
<path d="M0 0 C21.90663511 1.1529808 21.90663511 1.1529808 29.0234375 2.015625 C29.84976685 2.11138321 30.67609619 2.20714142 31.52746582 2.30580139 C34.14435095 2.61246282 36.75974516 2.92975059 39.375 3.25 C40.28719299 3.36048676 41.19938599 3.47097351 42.13922119 3.58480835 C116.29428275 12.61329958 188.73919493 33.41751537 256 66 C257.26099783 66.6065906 258.52206825 67.2130303 259.78320312 67.81933594 C277.74600387 76.47668127 295.09469918 85.7999587 312.09667969 96.22363281 C314.72362217 97.83090102 317.36179705 99.41659094 320.0078125 100.9921875 C330.97975049 107.55340175 341.53301571 114.66420492 352 122 C352.65516602 122.45793945 353.31033203 122.91587891 353.98535156 123.38769531 C361.93403604 128.95718171 369.70036222 134.73609331 377.34814453 140.71142578 C379.0391284 142.03052316 380.73604379 143.34171068 382.43359375 144.65234375 C389.09216925 149.81448467 395.577645 155.13414065 401.94750977 160.64868164 C405.54456199 163.76199411 409.18215226 166.81237956 412.875 169.8125 C416.16783923 172.49555419 419.45286545 175.18437848 422.6875 177.9375 C423.33074219 178.48277344 423.97398437 179.02804687 424.63671875 179.58984375 C426 181 426 181 426 183 C426.5885527 183.26356293 427.17710541 183.52712585 427.78349304 183.79867554 C430.09557729 185.05180193 431.61171425 186.36419563 433.46411133 188.22119141 C434.12192093 188.87592438 434.77973053 189.53065735 435.45747375 190.20523071 C436.15857773 190.9135202 436.8596817 191.62180969 437.58203125 192.3515625 C438.68063728 193.45085587 438.68063728 193.45085587 439.80143738 194.57235718 C441.35119847 196.12513829 442.89852945 197.68034803 444.44360352 199.23779297 C446.78812668 201.60043828 449.14041748 203.95511735 451.49414062 206.30859375 C453.00307417 207.82244833 454.51155215 209.33675717 456.01953125 210.8515625 C456.71456253 211.5477066 457.40959381 212.24385071 458.12568665 212.96109009 C462.06792466 216.94102056 465.84441448 221.0176296 469.49983215 225.26295471 C471.57181882 227.66210937 473.72407465 229.98414141 475.875 232.3125 C479.91402153 236.74631311 483.77506878 241.28054584 487.5390625 245.94921875 C489.33280236 248.17288674 491.13872383 250.38198478 492.9609375 252.58203125 C501.37236574 262.772651 509.25239502 273.29875558 517 284 C517.87090344 285.1928473 518.74198034 286.385568 519.61328125 287.578125 C536.81089215 311.2422324 552.22281545 336.19954373 566 362 C566.52416504 362.98129883 567.04833008 363.96259766 567.58837891 364.97363281 C588.24885521 403.84384173 604.93236498 443.99001627 618 486 C618.22322937 486.71718201 618.44645874 487.43436401 618.67645264 488.17327881 C643.12560777 567.09313747 653.10169334 651.56528209 629 858 C628.70399902 859.20865723 628.40799805 860.41731445 628.10302734 861.66259766 C621.00242002 890.2453233 612.21221667 918.74935884 601 946 C600.51337891 947.18916016 600.02675781 948.37832031 599.52539062 949.60351562 C588.58482736 976.25349353 576.60328148 1002.29436786 562.45458984 1027.41455078 C560.99543435 1030.00811517 559.55384502 1032.61091634 558.11328125 1035.21484375 C547.53577109 1054.18416438 535.47299925 1072.23222218 523 1090 C522.36868164 1090.90153809 522.36868164 1090.90153809 521.72460938 1091.82128906 C516.10918474 1099.82175965 510.30224818 1107.65070659 504.28417969 1115.35253906 C502.97704912 1117.02944345 501.67948428 1118.71343704 500.3828125 1120.3984375 C491.43020674 1131.9782077 481.81729681 1142.95912906 471.984375 1153.796875 C470.08634472 1155.90413697 468.22734723 1158.04008861 466.375 1160.1875 C463.55398475 1163.4359418 460.57830647 1166.4726155 457.48046875 1169.45703125 C455.78164495 1171.13707372 455.78164495 1171.13707372 454 1174 C453.34 1174 452.68 1174 452 1174 C451.7525 1174.61875 451.505 1175.2375 451.25 1175.875 C449.76259631 1178.40358627 448.56321991 1178.71839004 446 1180 C445.31731862 1181.32520503 444.6492959 1182.65812182 444 1184 C443.01 1184.33 442.02 1184.66 441 1185 C440.73960937 1185.55429688 440.47921875 1186.10859375 440.2109375 1186.6796875 C438.37772324 1190.19236257 435.53867139 1192.48729308 432.625 1195.125 C431.75875 1195.93130859 431.75875 1195.93130859 430.875 1196.75390625 C428.08144692 1199.31147426 425.56806161 1201.57629069 422 1203 C422 1203.66 422 1204.32 422 1205 C420.44759659 1206.39325954 418.82970015 1207.71380128 417.1875 1209 C413.21421446 1212.17254687 409.41067177 1215.4066882 405.6875 1218.875 C400.01948968 1224.07868179 394.05224364 1228.78927813 387.96142578 1233.47998047 C385.89914501 1235.07815823 383.85288796 1236.69529546 381.80859375 1238.31640625 C370.83524206 1246.98993905 359.54587135 1255.10797452 348 1263 C347.27941406 1263.49677246 346.55882812 1263.99354492 345.81640625 1264.50537109 C325.999019 1278.14597028 305.23432298 1290.69352161 284 1302 C283.03900391 1302.51594727 282.07800781 1303.03189453 281.08789062 1303.56347656 C263.731088 1312.85220345 246.08792661 1321.23233198 228 1329 C226.8975293 1329.4753418 225.79505859 1329.95068359 224.65917969 1330.44042969 C144.94674715 1364.55515448 59.40065795 1380.99235057 -291 1338 C-313.41017981 1328.96244195 -335.51356304 1319.25479432 -357.1875 1308.5625 C-357.96875244 1308.18077637 -358.75000488 1307.79905273 -359.55493164 1307.40576172 C-369.62677238 1302.36325182 -379.19003542 1296.60569404 -389 1291 C-389 1093 -389 895 -389 691 C-388.67 691 -388.34 691 -388 691 C-387.94054199 692.21840576 -387.94054199 692.21840576 -387.87988281 693.46142578 C-386.33375701 723.93547992 -382.72869403 753.42169885 -375 783 C-374.76055664 783.92425781 -374.52111328 784.84851562 -374.27441406 785.80078125 C-362.34861742 830.87302283 -339.09729571 874.45278614 -309 910 C-308.33943604 910.78793945 -308.33943604 910.78793945 -307.66552734 911.59179688 C-293.9327035 927.96609953 -279.57202315 943.29080122 -262.86694336 956.6862793 C-261.05345893 958.14982285 -259.25051112 959.6266053 -257.46264648 961.12133789 C-251.09786529 966.4356154 -244.54332563 971.24677241 -237.625 975.8125 C-236.06579834 976.84443481 -236.06579834 976.84443481 -234.47509766 977.8972168 C-224.56314135 984.39133513 -214.4389996 990.39557556 -204 996 C-203.1322998 996.46744629 -202.26459961 996.93489258 -201.37060547 997.41650391 C-122.36278174 1039.52786279 -27.5145018 1046.32753704 57.7734375 1020.95703125 C93.97926922 1009.76790684 128.72354681 992.92646375 159.21142578 970.32568359 C160.8699337 969.09640459 162.54186188 967.88528819 164.21484375 966.67578125 C187.24937914 949.81607532 208.39212182 929.45408319 226 907 C226.77472656 906.03191406 227.54945313 905.06382812 228.34765625 904.06640625 C235.43723342 895.06680036 241.80699856 885.6342875 248 876 C248.39010254 875.39526855 248.78020508 874.79053711 249.18212891 874.16748047 C262.23104681 853.73569926 272.69581115 831.74194488 281 809 C281.35787598 808.030625 281.71575195 807.06125 282.08447266 806.0625 C291.4111464 780.49254968 296.90883336 754.00789455 300 727 C300.08588379 726.26268143 300.17176758 725.52536285 300.26025391 724.76570129 C300.92626996 718.67886811 301.17340211 712.66370703 301.203125 706.54296875 C301.21018463 705.5702301 301.21724426 704.59749146 301.22451782 703.59527588 C301.45298422 662.79677798 297.66436512 623.9791972 285 585 C284.72575195 584.14438477 284.45150391 583.28876953 284.16894531 582.40722656 C269.03083168 535.65451004 243.27553645 493.03890279 210 457 C209.05881553 455.95670272 208.11877519 454.91237252 207.1796875 453.8671875 C206.2032816 452.78631685 205.22672113 451.70558581 204.25 450.625 C203.36828125 449.64789062 202.4865625 448.67078125 201.578125 447.6640625 C199.06829203 444.95112107 199.06829203 444.95112107 196.171875 442.7734375 C195.45515625 442.18820312 194.7384375 441.60296875 194 441 C194 440.34 194 439.68 194 439 C193.41605469 438.74605469 192.83210937 438.49210937 192.23046875 438.23046875 C189.76024249 436.86773447 188.23800578 435.36718017 186.3125 433.3125 C182.17135241 429.07239116 177.72800971 425.55691808 173 422 C171.44841465 420.78545568 169.89685705 419.5708756 168.34594727 418.35546875 C162.32249109 413.65942519 156.17215526 409.25473621 149.74072266 405.12646484 C147.82946033 403.88963954 145.93709352 402.6261816 144.04296875 401.36328125 C122.44953217 387.15147196 99.27170479 375.82751523 75 367 C74.03352539 366.64357422 73.06705078 366.28714844 72.07128906 365.91992188 C50.50189954 358.05147813 28.04070935 352.63426663 5.296875 349.5078125 C2 349 2 349 0 348 C0 233.16 0 118.32 0 0 Z " fill="#21307C" transform="translate(735,347)"/>
<path d="M0 0 C114.51 0 229.02 0 347 0 C347.40331349 109.63405054 347.40331349 109.63405054 347.48828125 155.35351562 C347.50786061 165.81876786 347.52806561 176.2840186 347.54931641 186.74926758 C347.55327264 188.7167985 347.55327264 188.7167985 347.55730879 190.72407752 C347.60082738 211.91309521 347.67967929 233.10184212 347.77152796 254.29069913 C347.86497292 276.02876459 347.92057288 297.76668809 347.94088495 319.50494617 C347.95462093 332.92376019 347.9980364 346.34180924 348.07916467 359.76038783 C348.13193785 368.95629692 348.1480208 378.15180931 348.13501377 387.34785891 C348.1285948 392.6574748 348.13857889 397.96575211 348.19205475 403.27513123 C348.2406447 408.13480419 348.24323157 412.99223617 348.20898895 417.85201132 C348.20475593 419.61125405 348.21751237 421.37063539 348.24883182 423.12960441 C348.46946441 436.28413497 348.46946441 436.28413497 344.81334376 440.553316 C342.27258871 442.36542296 339.83759127 443.71647168 337 445 C335.85353301 445.68262489 334.71417794 446.37749777 333.5859375 447.08984375 C331.99652344 448.00443359 331.99652344 448.00443359 330.375 448.9375 C308.93060859 461.54030885 288.69184042 476.21044071 269.04003906 491.42138672 C267.7362743 492.43025974 266.43107408 493.43728221 265.12402344 494.44189453 C252.8004112 503.91512458 241.09569556 514.06152246 229.66015625 524.5859375 C227.57931766 526.47427561 225.47468782 528.3145464 223.34570312 530.1472168 C218.99413604 533.95233329 214.88900861 537.9664185 210.80859375 542.05859375 C209.68518333 543.18056908 209.68518333 543.18056908 208.53907776 544.32521057 C206.96728775 545.89632464 205.39674151 547.46868392 203.82739258 549.04223633 C201.44398696 551.43099846 199.05528932 553.81437446 196.66601562 556.19726562 C195.12988763 557.7340545 193.59406991 559.2711536 192.05859375 560.80859375 C191.00205849 561.86209267 191.00205849 561.86209267 189.92417908 562.93687439 C185.9513797 566.92824338 182.15078318 571.01793702 178.47605896 575.28582764 C176.56858114 577.50101406 174.59731999 579.65503886 172.625 581.8125 C168.78071755 586.07745308 165.10473095 590.4486085 161.49609375 594.9140625 C159.68801844 597.14939817 157.86887237 599.37188205 156.03515625 601.5859375 C122.82759286 641.8163102 95.37072001 686.44495223 72 733 C71.52111328 733.94842773 71.04222656 734.89685547 70.54882812 735.87402344 C56.31377865 764.2330688 45.06847832 793.94344332 35 824 C34.39164307 825.80500977 34.39164307 825.80500977 33.77099609 827.64648438 C12.34467734 891.88055936 3.8013105 958.60258173 1 1026 C0.67 1026 0.34 1026 0 1026 C0 687.42 0 348.84 0 0 Z " fill="#21307C" transform="translate(0,0)"/>
</svg>
