<svg xmlns="http://www.w3.org/2000/svg" width="950" height="1510"><g fill-rule="evenodd"><path fill="#38d200" d="m541.5 441.8 169.1 110c22.8 14.7 46.8 24.9 78.3 24.9 74.6 0 135.1-60.4 135.1-134.9s-60.5-134.9-135.1-134.9c-32.5 0-55.7 10.3-78.3 24.9zm-438 634.1 633.6 411.9c61.7 39.9 147.8 25.5 189.7-39.9 40.8-63.7 23.4-148.2-40-189.5L64.5 723.7S-19.8 826 5.8 945.3c18.2 85 97.7 130.6 97.7 130.6"/><path fill="#0473ea" d="M136.8 248.8 483.2 22.4C546.7-18.8 631.6-.8 672.9 62.6s23.3 148.2-40.2 189.4l-292 189.8 497.5 323.5s89.5 51.3 107.2 137.7c24.6 120.7-58.6 220-58.6 220L136.9 635.4s-97.1-58.6-97.1-193.9c0-134.9 97-192.7 97-192.7m76.5 1235.9c-22.5 14.7-45.7 24.9-78.2 24.9-74.6 0-135.1-60.4-135.1-134.9s60.5-134.9 135.1-134.9c31.5 0 55.4 10.3 78.2 24.9l169.2 110z"/></g></svg>